%TF.GenerationSoftware,KiCad,Pcbnew,(5.1.6)-1*%
%TF.CreationDate,2020-10-06T21:24:19+08:00*%
%TF.ProjectId,esp32,65737033-322e-46b6-9963-61645f706362,rev?*%
%TF.SameCoordinates,Original*%
%TF.FileFunction,Copper,L1,Top*%
%TF.FilePolarity,Positive*%
%FSLAX46Y46*%
G04 Gerber Fmt 4.6, Leading zero omitted, Abs format (unit mm)*
G04 Created by KiCad (PCBNEW (5.1.6)-1) date 2020-10-06 21:24:19*
%MOMM*%
%LPD*%
G01*
G04 APERTURE LIST*
%TA.AperFunction,ComponentPad*%
%ADD10O,1.700000X1.700000*%
%TD*%
%TA.AperFunction,ComponentPad*%
%ADD11R,1.700000X1.700000*%
%TD*%
%TA.AperFunction,SMDPad,CuDef*%
%ADD12R,1.500000X0.900000*%
%TD*%
%TA.AperFunction,SMDPad,CuDef*%
%ADD13R,0.900000X1.500000*%
%TD*%
%TA.AperFunction,SMDPad,CuDef*%
%ADD14R,4.100000X4.100000*%
%TD*%
%TA.AperFunction,SMDPad,CuDef*%
%ADD15R,2.000000X1.500000*%
%TD*%
%TA.AperFunction,SMDPad,CuDef*%
%ADD16R,2.000000X3.800000*%
%TD*%
%TA.AperFunction,ComponentPad*%
%ADD17O,1.700000X0.900000*%
%TD*%
%TA.AperFunction,ComponentPad*%
%ADD18O,2.400000X0.900000*%
%TD*%
%TA.AperFunction,ComponentPad*%
%ADD19C,0.700000*%
%TD*%
%TA.AperFunction,ViaPad*%
%ADD20C,0.800000*%
%TD*%
%TA.AperFunction,Conductor*%
%ADD21C,0.250000*%
%TD*%
%TA.AperFunction,Conductor*%
%ADD22C,0.200000*%
%TD*%
G04 APERTURE END LIST*
D10*
%TO.P,REF\u002A\u002A,4*%
%TO.N,GND*%
X150600000Y-68020000D03*
%TO.P,REF\u002A\u002A,3*%
X150600000Y-65480000D03*
%TO.P,REF\u002A\u002A,2*%
%TO.N,+3V3*%
X150600000Y-62940000D03*
D11*
%TO.P,REF\u002A\u002A,1*%
X150600000Y-60400000D03*
%TD*%
D10*
%TO.P,J4,14*%
%TO.N,Net-(J4-Pad14)*%
X150500000Y-23680000D03*
%TO.P,J4,13*%
%TO.N,Net-(J4-Pad13)*%
X150500000Y-26220000D03*
%TO.P,J4,12*%
%TO.N,Net-(J4-Pad12)*%
X150500000Y-28760000D03*
%TO.P,J4,11*%
%TO.N,Net-(J4-Pad11)*%
X150500000Y-31300000D03*
%TO.P,J4,10*%
%TO.N,Net-(J4-Pad10)*%
X150500000Y-33840000D03*
%TO.P,J4,9*%
%TO.N,Net-(J4-Pad9)*%
X150500000Y-36380000D03*
%TO.P,J4,8*%
%TO.N,Net-(J4-Pad8)*%
X150500000Y-38920000D03*
%TO.P,J4,7*%
%TO.N,Net-(J4-Pad7)*%
X150500000Y-41460000D03*
%TO.P,J4,6*%
%TO.N,Net-(J4-Pad6)*%
X150500000Y-44000000D03*
%TO.P,J4,5*%
%TO.N,Net-(J4-Pad5)*%
X150500000Y-46540000D03*
%TO.P,J4,4*%
%TO.N,Net-(J4-Pad4)*%
X150500000Y-49080000D03*
%TO.P,J4,3*%
%TO.N,Net-(J4-Pad3)*%
X150500000Y-51620000D03*
%TO.P,J4,2*%
%TO.N,/usb_d+*%
X150500000Y-54160000D03*
D11*
%TO.P,J4,1*%
%TO.N,/usb_d-*%
X150500000Y-56700000D03*
%TD*%
D10*
%TO.P,J1,19*%
%TO.N,Net-(J1-Pad19)*%
X154300000Y-68820000D03*
%TO.P,J1,18*%
%TO.N,Net-(J1-Pad18)*%
X154300000Y-66280000D03*
%TO.P,J1,17*%
%TO.N,Net-(J1-Pad17)*%
X154300000Y-63740000D03*
%TO.P,J1,16*%
%TO.N,Net-(J1-Pad16)*%
X154300000Y-61200000D03*
%TO.P,J1,15*%
%TO.N,Net-(J1-Pad15)*%
X154300000Y-58660000D03*
%TO.P,J1,14*%
%TO.N,Net-(J1-Pad14)*%
X154300000Y-56120000D03*
%TO.P,J1,13*%
%TO.N,Net-(J1-Pad13)*%
X154300000Y-53580000D03*
%TO.P,J1,12*%
%TO.N,Net-(J1-Pad12)*%
X154300000Y-51040000D03*
%TO.P,J1,11*%
%TO.N,Net-(J1-Pad11)*%
X154300000Y-48500000D03*
%TO.P,J1,10*%
%TO.N,Net-(J1-Pad10)*%
X154300000Y-45960000D03*
%TO.P,J1,9*%
%TO.N,Net-(J1-Pad9)*%
X154300000Y-43420000D03*
%TO.P,J1,8*%
%TO.N,Net-(J1-Pad8)*%
X154300000Y-40880000D03*
%TO.P,J1,7*%
%TO.N,Net-(J1-Pad7)*%
X154300000Y-38340000D03*
%TO.P,J1,6*%
%TO.N,Net-(J1-Pad6)*%
X154300000Y-35800000D03*
%TO.P,J1,5*%
%TO.N,Net-(J1-Pad5)*%
X154300000Y-33260000D03*
%TO.P,J1,4*%
%TO.N,Net-(J1-Pad4)*%
X154300000Y-30720000D03*
%TO.P,J1,3*%
%TO.N,Net-(J1-Pad3)*%
X154300000Y-28180000D03*
%TO.P,J1,2*%
%TO.N,Net-(J1-Pad2)*%
X154300000Y-25640000D03*
D11*
%TO.P,J1,1*%
%TO.N,Net-(J1-Pad1)*%
X154300000Y-23100000D03*
%TD*%
D10*
%TO.P,J5,19*%
%TO.N,Net-(J5-Pad19)*%
X119000000Y-68820000D03*
%TO.P,J5,18*%
%TO.N,Net-(J5-Pad18)*%
X119000000Y-66280000D03*
%TO.P,J5,17*%
%TO.N,Net-(J5-Pad17)*%
X119000000Y-63740000D03*
%TO.P,J5,16*%
%TO.N,Net-(J5-Pad16)*%
X119000000Y-61200000D03*
%TO.P,J5,15*%
%TO.N,Net-(J5-Pad15)*%
X119000000Y-58660000D03*
%TO.P,J5,14*%
%TO.N,Net-(J5-Pad14)*%
X119000000Y-56120000D03*
%TO.P,J5,13*%
%TO.N,Net-(J5-Pad13)*%
X119000000Y-53580000D03*
%TO.P,J5,12*%
%TO.N,Net-(J5-Pad12)*%
X119000000Y-51040000D03*
%TO.P,J5,11*%
%TO.N,Net-(J5-Pad11)*%
X119000000Y-48500000D03*
%TO.P,J5,10*%
%TO.N,Net-(J5-Pad10)*%
X119000000Y-45960000D03*
%TO.P,J5,9*%
%TO.N,Net-(J5-Pad9)*%
X119000000Y-43420000D03*
%TO.P,J5,8*%
%TO.N,Net-(J5-Pad8)*%
X119000000Y-40880000D03*
%TO.P,J5,7*%
%TO.N,Net-(J5-Pad7)*%
X119000000Y-38340000D03*
%TO.P,J5,6*%
%TO.N,Net-(J5-Pad6)*%
X119000000Y-35800000D03*
%TO.P,J5,5*%
%TO.N,Net-(J5-Pad5)*%
X119000000Y-33260000D03*
%TO.P,J5,4*%
%TO.N,Net-(J5-Pad4)*%
X119000000Y-30720000D03*
%TO.P,J5,3*%
%TO.N,Net-(J5-Pad3)*%
X119000000Y-28180000D03*
%TO.P,J5,2*%
%TO.N,Net-(J5-Pad2)*%
X119000000Y-25640000D03*
D11*
%TO.P,J5,1*%
%TO.N,Net-(J5-Pad1)*%
X119000000Y-23100000D03*
%TD*%
D12*
%TO.P,U3,1*%
%TO.N,GND*%
X123875000Y-22325000D03*
%TO.P,U3,15*%
%TO.N,Net-(J5-Pad13)*%
X123875000Y-43325000D03*
%TO.P,U3,16*%
%TO.N,Net-(J5-Pad14)*%
X123875000Y-44825000D03*
D13*
%TO.P,U3,17*%
%TO.N,Net-(J5-Pad15)*%
X125750000Y-45575000D03*
%TO.P,U3,18*%
%TO.N,Net-(J5-Pad16)*%
X127250000Y-45575000D03*
%TO.P,U3,19*%
%TO.N,Net-(J5-Pad17)*%
X128750000Y-45575000D03*
%TO.P,U3,20*%
%TO.N,Net-(J5-Pad18)*%
X130250000Y-45575000D03*
%TO.P,U3,21*%
%TO.N,Net-(J5-Pad19)*%
X131750000Y-45575000D03*
%TO.P,U3,22*%
%TO.N,/usb_d-*%
X133250000Y-45575000D03*
%TO.P,U3,23*%
%TO.N,/usb_d+*%
X134750000Y-45575000D03*
%TO.P,U3,24*%
%TO.N,Net-(J4-Pad3)*%
X136250000Y-45575000D03*
D12*
%TO.P,U3,2*%
%TO.N,+3V3*%
X123875000Y-23825000D03*
%TO.P,U3,3*%
%TO.N,Net-(J5-Pad1)*%
X123875000Y-25325000D03*
%TO.P,U3,4*%
%TO.N,Net-(J5-Pad2)*%
X123875000Y-26825000D03*
%TO.P,U3,5*%
%TO.N,Net-(J5-Pad3)*%
X123875000Y-28325000D03*
%TO.P,U3,6*%
%TO.N,Net-(J5-Pad4)*%
X123875000Y-29825000D03*
%TO.P,U3,7*%
%TO.N,Net-(J5-Pad5)*%
X123875000Y-31325000D03*
%TO.P,U3,8*%
%TO.N,Net-(J5-Pad6)*%
X123875000Y-32825000D03*
%TO.P,U3,9*%
%TO.N,Net-(J5-Pad7)*%
X123875000Y-34325000D03*
%TO.P,U3,10*%
%TO.N,Net-(J5-Pad8)*%
X123875000Y-35825000D03*
%TO.P,U3,11*%
%TO.N,Net-(J5-Pad9)*%
X123875000Y-37325000D03*
%TO.P,U3,12*%
%TO.N,Net-(J5-Pad10)*%
X123875000Y-38825000D03*
%TO.P,U3,13*%
%TO.N,Net-(J5-Pad11)*%
X123875000Y-40325000D03*
%TO.P,U3,14*%
%TO.N,Net-(J5-Pad12)*%
X123875000Y-41825000D03*
%TO.P,U3,38*%
%TO.N,/rx*%
X141125000Y-28425000D03*
%TO.P,U3,37*%
%TO.N,/tx*%
X141125000Y-29925000D03*
%TO.P,U3,36*%
%TO.N,Net-(J4-Pad12)*%
X141125000Y-31425000D03*
%TO.P,U3,35*%
%TO.N,Net-(J4-Pad11)*%
X141125000Y-32925000D03*
%TO.P,U3,34*%
%TO.N,Net-(J4-Pad10)*%
X141125000Y-34425000D03*
%TO.P,U3,33*%
%TO.N,Net-(J4-Pad9)*%
X141125000Y-35925000D03*
%TO.P,U3,32*%
%TO.N,Net-(J4-Pad8)*%
X141125000Y-37425000D03*
%TO.P,U3,31*%
%TO.N,/io1*%
X141125000Y-38925000D03*
%TO.P,U3,30*%
%TO.N,/io2*%
X141125000Y-40425000D03*
%TO.P,U3,29*%
%TO.N,Net-(J4-Pad7)*%
X141125000Y-41925000D03*
%TO.P,U3,28*%
%TO.N,Net-(J4-Pad6)*%
X141125000Y-43425000D03*
%TO.P,U3,27*%
%TO.N,Net-(J4-Pad5)*%
X141125000Y-44925000D03*
D13*
%TO.P,U3,26*%
%TO.N,GND*%
X139250000Y-45575000D03*
%TO.P,U3,25*%
%TO.N,Net-(J4-Pad4)*%
X137750000Y-45575000D03*
D12*
%TO.P,U3,39*%
%TO.N,Net-(J4-Pad13)*%
X141125000Y-26925000D03*
%TO.P,U3,40*%
%TO.N,Net-(J4-Pad14)*%
X141125000Y-25325000D03*
%TO.P,U3,41*%
%TO.N,Net-(J6-Pad2)*%
X141125000Y-23825000D03*
%TO.P,U3,42*%
%TO.N,GND*%
X141125000Y-22425000D03*
D14*
%TO.P,U3,43*%
X131310000Y-30365000D03*
%TD*%
D15*
%TO.P,U2,1*%
%TO.N,GND*%
X166850000Y-60300000D03*
%TO.P,U2,3*%
%TO.N,/vbus*%
X166850000Y-64900000D03*
%TO.P,U2,2*%
%TO.N,+3V3*%
X166850000Y-62600000D03*
D16*
X173150000Y-62600000D03*
%TD*%
D12*
%TO.P,U1,1*%
%TO.N,GND*%
X158775000Y-22325000D03*
%TO.P,U1,15*%
%TO.N,Net-(J1-Pad13)*%
X158775000Y-43325000D03*
%TO.P,U1,16*%
%TO.N,Net-(J1-Pad14)*%
X158775000Y-44825000D03*
D13*
%TO.P,U1,17*%
%TO.N,Net-(J1-Pad15)*%
X160650000Y-45575000D03*
%TO.P,U1,18*%
%TO.N,Net-(J1-Pad16)*%
X162150000Y-45575000D03*
%TO.P,U1,19*%
%TO.N,Net-(J1-Pad17)*%
X163650000Y-45575000D03*
%TO.P,U1,20*%
%TO.N,Net-(J1-Pad18)*%
X165150000Y-45575000D03*
%TO.P,U1,21*%
%TO.N,Net-(J1-Pad19)*%
X166650000Y-45575000D03*
%TO.P,U1,22*%
%TO.N,/rd-*%
X168150000Y-45575000D03*
%TO.P,U1,23*%
%TO.N,/rd+*%
X169650000Y-45575000D03*
%TO.P,U1,24*%
%TO.N,Net-(J3-Pad1)*%
X171150000Y-45575000D03*
D12*
%TO.P,U1,2*%
%TO.N,+3V3*%
X158775000Y-23825000D03*
%TO.P,U1,3*%
%TO.N,Net-(J1-Pad1)*%
X158775000Y-25325000D03*
%TO.P,U1,4*%
%TO.N,Net-(J1-Pad2)*%
X158775000Y-26825000D03*
%TO.P,U1,5*%
%TO.N,Net-(J1-Pad3)*%
X158775000Y-28325000D03*
%TO.P,U1,6*%
%TO.N,Net-(J1-Pad4)*%
X158775000Y-29825000D03*
%TO.P,U1,7*%
%TO.N,Net-(J1-Pad5)*%
X158775000Y-31325000D03*
%TO.P,U1,8*%
%TO.N,Net-(J1-Pad6)*%
X158775000Y-32825000D03*
%TO.P,U1,9*%
%TO.N,Net-(J1-Pad7)*%
X158775000Y-34325000D03*
%TO.P,U1,10*%
%TO.N,Net-(J1-Pad8)*%
X158775000Y-35825000D03*
%TO.P,U1,11*%
%TO.N,Net-(J1-Pad9)*%
X158775000Y-37325000D03*
%TO.P,U1,12*%
%TO.N,Net-(J1-Pad10)*%
X158775000Y-38825000D03*
%TO.P,U1,13*%
%TO.N,Net-(J1-Pad11)*%
X158775000Y-40325000D03*
%TO.P,U1,14*%
%TO.N,Net-(J1-Pad12)*%
X158775000Y-41825000D03*
%TO.P,U1,38*%
%TO.N,/tx*%
X176025000Y-28425000D03*
%TO.P,U1,37*%
%TO.N,/rx*%
X176025000Y-29925000D03*
%TO.P,U1,36*%
%TO.N,Net-(J3-Pad10)*%
X176025000Y-31425000D03*
%TO.P,U1,35*%
%TO.N,Net-(J3-Pad9)*%
X176025000Y-32925000D03*
%TO.P,U1,34*%
%TO.N,Net-(J3-Pad8)*%
X176025000Y-34425000D03*
%TO.P,U1,33*%
%TO.N,Net-(J3-Pad7)*%
X176025000Y-35925000D03*
%TO.P,U1,32*%
%TO.N,Net-(J3-Pad6)*%
X176025000Y-37425000D03*
%TO.P,U1,31*%
%TO.N,/io2*%
X176025000Y-38925000D03*
%TO.P,U1,30*%
%TO.N,/io1*%
X176025000Y-40425000D03*
%TO.P,U1,29*%
%TO.N,Net-(J3-Pad5)*%
X176025000Y-41925000D03*
%TO.P,U1,28*%
%TO.N,Net-(J3-Pad4)*%
X176025000Y-43425000D03*
%TO.P,U1,27*%
%TO.N,Net-(J3-Pad3)*%
X176025000Y-44925000D03*
D13*
%TO.P,U1,26*%
%TO.N,GND*%
X174150000Y-45575000D03*
%TO.P,U1,25*%
%TO.N,Net-(J3-Pad2)*%
X172650000Y-45575000D03*
D12*
%TO.P,U1,39*%
%TO.N,Net-(J3-Pad11)*%
X176025000Y-26925000D03*
%TO.P,U1,40*%
%TO.N,Net-(J3-Pad12)*%
X176025000Y-25325000D03*
%TO.P,U1,41*%
%TO.N,Net-(J2-Pad2)*%
X176025000Y-23825000D03*
%TO.P,U1,42*%
%TO.N,GND*%
X176025000Y-22425000D03*
D14*
%TO.P,U1,43*%
X166210000Y-30365000D03*
%TD*%
%TO.P,R3,2*%
%TO.N,+3V3*%
%TA.AperFunction,SMDPad,CuDef*%
G36*
G01*
X171440000Y-48460000D02*
X171440000Y-48140000D01*
G75*
G02*
X171600000Y-47980000I160000J0D01*
G01*
X171995000Y-47980000D01*
G75*
G02*
X172155000Y-48140000I0J-160000D01*
G01*
X172155000Y-48460000D01*
G75*
G02*
X171995000Y-48620000I-160000J0D01*
G01*
X171600000Y-48620000D01*
G75*
G02*
X171440000Y-48460000I0J160000D01*
G01*
G37*
%TD.AperFunction*%
%TO.P,R3,1*%
%TO.N,/d+*%
%TA.AperFunction,SMDPad,CuDef*%
G36*
G01*
X170245000Y-48460000D02*
X170245000Y-48140000D01*
G75*
G02*
X170405000Y-47980000I160000J0D01*
G01*
X170800000Y-47980000D01*
G75*
G02*
X170960000Y-48140000I0J-160000D01*
G01*
X170960000Y-48460000D01*
G75*
G02*
X170800000Y-48620000I-160000J0D01*
G01*
X170405000Y-48620000D01*
G75*
G02*
X170245000Y-48460000I0J160000D01*
G01*
G37*
%TD.AperFunction*%
%TD*%
%TO.P,R2,2*%
%TO.N,/d+*%
%TA.AperFunction,SMDPad,CuDef*%
G36*
G01*
X169340000Y-48740000D02*
X169660000Y-48740000D01*
G75*
G02*
X169820000Y-48900000I0J-160000D01*
G01*
X169820000Y-49295000D01*
G75*
G02*
X169660000Y-49455000I-160000J0D01*
G01*
X169340000Y-49455000D01*
G75*
G02*
X169180000Y-49295000I0J160000D01*
G01*
X169180000Y-48900000D01*
G75*
G02*
X169340000Y-48740000I160000J0D01*
G01*
G37*
%TD.AperFunction*%
%TO.P,R2,1*%
%TO.N,/rd+*%
%TA.AperFunction,SMDPad,CuDef*%
G36*
G01*
X169340000Y-47545000D02*
X169660000Y-47545000D01*
G75*
G02*
X169820000Y-47705000I0J-160000D01*
G01*
X169820000Y-48100000D01*
G75*
G02*
X169660000Y-48260000I-160000J0D01*
G01*
X169340000Y-48260000D01*
G75*
G02*
X169180000Y-48100000I0J160000D01*
G01*
X169180000Y-47705000D01*
G75*
G02*
X169340000Y-47545000I160000J0D01*
G01*
G37*
%TD.AperFunction*%
%TD*%
%TO.P,R1,2*%
%TO.N,/d-*%
%TA.AperFunction,SMDPad,CuDef*%
G36*
G01*
X168140000Y-48740000D02*
X168460000Y-48740000D01*
G75*
G02*
X168620000Y-48900000I0J-160000D01*
G01*
X168620000Y-49295000D01*
G75*
G02*
X168460000Y-49455000I-160000J0D01*
G01*
X168140000Y-49455000D01*
G75*
G02*
X167980000Y-49295000I0J160000D01*
G01*
X167980000Y-48900000D01*
G75*
G02*
X168140000Y-48740000I160000J0D01*
G01*
G37*
%TD.AperFunction*%
%TO.P,R1,1*%
%TO.N,/rd-*%
%TA.AperFunction,SMDPad,CuDef*%
G36*
G01*
X168140000Y-47545000D02*
X168460000Y-47545000D01*
G75*
G02*
X168620000Y-47705000I0J-160000D01*
G01*
X168620000Y-48100000D01*
G75*
G02*
X168460000Y-48260000I-160000J0D01*
G01*
X168140000Y-48260000D01*
G75*
G02*
X167980000Y-48100000I0J160000D01*
G01*
X167980000Y-47705000D01*
G75*
G02*
X168140000Y-47545000I160000J0D01*
G01*
G37*
%TD.AperFunction*%
%TD*%
D17*
%TO.P,P1,S1*%
%TO.N,GND*%
X181460000Y-57700000D03*
X181460000Y-66350000D03*
D18*
X178080000Y-57700000D03*
X178080000Y-66350000D03*
D19*
%TO.P,P1,B6*%
%TO.N,N/C*%
X178450000Y-61600000D03*
%TO.P,P1,B1*%
%TO.N,GND*%
X178450000Y-59050000D03*
%TO.P,P1,B4*%
%TO.N,/vbus*%
X178450000Y-59900000D03*
%TO.P,P1,B5*%
%TO.N,Net-(P1-PadB5)*%
X178450000Y-60750000D03*
%TO.P,P1,B12*%
%TO.N,GND*%
X178450000Y-65000000D03*
%TO.P,P1,B8*%
%TO.N,N/C*%
X178450000Y-63300000D03*
%TO.P,P1,B7*%
X178450000Y-62450000D03*
%TO.P,P1,B9*%
%TO.N,/vbus*%
X178450000Y-64150000D03*
%TO.P,P1,A12*%
%TO.N,GND*%
X177100000Y-59050000D03*
%TO.P,P1,A9*%
%TO.N,/vbus*%
X177100000Y-59900000D03*
%TO.P,P1,A8*%
%TO.N,N/C*%
X177100000Y-60750000D03*
%TO.P,P1,A7*%
%TO.N,/d-*%
X177100000Y-61600000D03*
%TO.P,P1,A6*%
%TO.N,/d+*%
X177100000Y-62450000D03*
%TO.P,P1,A5*%
%TO.N,Net-(P1-PadA5)*%
X177100000Y-63300000D03*
%TO.P,P1,A4*%
%TO.N,/vbus*%
X177100000Y-64150000D03*
%TO.P,P1,A1*%
%TO.N,GND*%
X177100000Y-65000000D03*
%TD*%
D10*
%TO.P,J6,2*%
%TO.N,Net-(J6-Pad2)*%
X144160000Y-23300000D03*
D11*
%TO.P,J6,1*%
%TO.N,+3V3*%
X146700000Y-23300000D03*
%TD*%
D10*
%TO.P,J3,12*%
%TO.N,Net-(J3-Pad12)*%
X181500000Y-26960000D03*
%TO.P,J3,11*%
%TO.N,Net-(J3-Pad11)*%
X181500000Y-29500000D03*
%TO.P,J3,10*%
%TO.N,Net-(J3-Pad10)*%
X181500000Y-32040000D03*
%TO.P,J3,9*%
%TO.N,Net-(J3-Pad9)*%
X181500000Y-34580000D03*
%TO.P,J3,8*%
%TO.N,Net-(J3-Pad8)*%
X181500000Y-37120000D03*
%TO.P,J3,7*%
%TO.N,Net-(J3-Pad7)*%
X181500000Y-39660000D03*
%TO.P,J3,6*%
%TO.N,Net-(J3-Pad6)*%
X181500000Y-42200000D03*
%TO.P,J3,5*%
%TO.N,Net-(J3-Pad5)*%
X181500000Y-44740000D03*
%TO.P,J3,4*%
%TO.N,Net-(J3-Pad4)*%
X181500000Y-47280000D03*
%TO.P,J3,3*%
%TO.N,Net-(J3-Pad3)*%
X181500000Y-49820000D03*
%TO.P,J3,2*%
%TO.N,Net-(J3-Pad2)*%
X181500000Y-52360000D03*
D11*
%TO.P,J3,1*%
%TO.N,Net-(J3-Pad1)*%
X181500000Y-54900000D03*
%TD*%
D10*
%TO.P,J2,2*%
%TO.N,Net-(J2-Pad2)*%
X178960000Y-23300000D03*
D11*
%TO.P,J2,1*%
%TO.N,+3V3*%
X181500000Y-23300000D03*
%TD*%
%TO.P,C4,2*%
%TO.N,GND*%
%TA.AperFunction,SMDPad,CuDef*%
G36*
G01*
X163355000Y-61700000D02*
X163045000Y-61700000D01*
G75*
G02*
X162890000Y-61545000I0J155000D01*
G01*
X162890000Y-61120000D01*
G75*
G02*
X163045000Y-60965000I155000J0D01*
G01*
X163355000Y-60965000D01*
G75*
G02*
X163510000Y-61120000I0J-155000D01*
G01*
X163510000Y-61545000D01*
G75*
G02*
X163355000Y-61700000I-155000J0D01*
G01*
G37*
%TD.AperFunction*%
%TO.P,C4,1*%
%TO.N,+3V3*%
%TA.AperFunction,SMDPad,CuDef*%
G36*
G01*
X163355000Y-62835000D02*
X163045000Y-62835000D01*
G75*
G02*
X162890000Y-62680000I0J155000D01*
G01*
X162890000Y-62255000D01*
G75*
G02*
X163045000Y-62100000I155000J0D01*
G01*
X163355000Y-62100000D01*
G75*
G02*
X163510000Y-62255000I0J-155000D01*
G01*
X163510000Y-62680000D01*
G75*
G02*
X163355000Y-62835000I-155000J0D01*
G01*
G37*
%TD.AperFunction*%
%TD*%
%TO.P,C3,2*%
%TO.N,GND*%
%TA.AperFunction,SMDPad,CuDef*%
G36*
G01*
X164355000Y-61700000D02*
X164045000Y-61700000D01*
G75*
G02*
X163890000Y-61545000I0J155000D01*
G01*
X163890000Y-61120000D01*
G75*
G02*
X164045000Y-60965000I155000J0D01*
G01*
X164355000Y-60965000D01*
G75*
G02*
X164510000Y-61120000I0J-155000D01*
G01*
X164510000Y-61545000D01*
G75*
G02*
X164355000Y-61700000I-155000J0D01*
G01*
G37*
%TD.AperFunction*%
%TO.P,C3,1*%
%TO.N,+3V3*%
%TA.AperFunction,SMDPad,CuDef*%
G36*
G01*
X164355000Y-62835000D02*
X164045000Y-62835000D01*
G75*
G02*
X163890000Y-62680000I0J155000D01*
G01*
X163890000Y-62255000D01*
G75*
G02*
X164045000Y-62100000I155000J0D01*
G01*
X164355000Y-62100000D01*
G75*
G02*
X164510000Y-62255000I0J-155000D01*
G01*
X164510000Y-62680000D01*
G75*
G02*
X164355000Y-62835000I-155000J0D01*
G01*
G37*
%TD.AperFunction*%
%TD*%
%TO.P,C2,2*%
%TO.N,GND*%
%TA.AperFunction,SMDPad,CuDef*%
G36*
G01*
X164355000Y-64000000D02*
X164045000Y-64000000D01*
G75*
G02*
X163890000Y-63845000I0J155000D01*
G01*
X163890000Y-63420000D01*
G75*
G02*
X164045000Y-63265000I155000J0D01*
G01*
X164355000Y-63265000D01*
G75*
G02*
X164510000Y-63420000I0J-155000D01*
G01*
X164510000Y-63845000D01*
G75*
G02*
X164355000Y-64000000I-155000J0D01*
G01*
G37*
%TD.AperFunction*%
%TO.P,C2,1*%
%TO.N,/vbus*%
%TA.AperFunction,SMDPad,CuDef*%
G36*
G01*
X164355000Y-65135000D02*
X164045000Y-65135000D01*
G75*
G02*
X163890000Y-64980000I0J155000D01*
G01*
X163890000Y-64555000D01*
G75*
G02*
X164045000Y-64400000I155000J0D01*
G01*
X164355000Y-64400000D01*
G75*
G02*
X164510000Y-64555000I0J-155000D01*
G01*
X164510000Y-64980000D01*
G75*
G02*
X164355000Y-65135000I-155000J0D01*
G01*
G37*
%TD.AperFunction*%
%TD*%
%TO.P,C1,2*%
%TO.N,GND*%
%TA.AperFunction,SMDPad,CuDef*%
G36*
G01*
X163355000Y-64000000D02*
X163045000Y-64000000D01*
G75*
G02*
X162890000Y-63845000I0J155000D01*
G01*
X162890000Y-63420000D01*
G75*
G02*
X163045000Y-63265000I155000J0D01*
G01*
X163355000Y-63265000D01*
G75*
G02*
X163510000Y-63420000I0J-155000D01*
G01*
X163510000Y-63845000D01*
G75*
G02*
X163355000Y-64000000I-155000J0D01*
G01*
G37*
%TD.AperFunction*%
%TO.P,C1,1*%
%TO.N,/vbus*%
%TA.AperFunction,SMDPad,CuDef*%
G36*
G01*
X163355000Y-65135000D02*
X163045000Y-65135000D01*
G75*
G02*
X162890000Y-64980000I0J155000D01*
G01*
X162890000Y-64555000D01*
G75*
G02*
X163045000Y-64400000I155000J0D01*
G01*
X163355000Y-64400000D01*
G75*
G02*
X163510000Y-64555000I0J-155000D01*
G01*
X163510000Y-64980000D01*
G75*
G02*
X163355000Y-65135000I-155000J0D01*
G01*
G37*
%TD.AperFunction*%
%TD*%
D20*
%TO.N,GND*%
X175300000Y-47300000D03*
X138200000Y-22300000D03*
X143600000Y-47500000D03*
%TO.N,+3V3*%
X170617848Y-47122993D03*
X173200000Y-59900000D03*
X125400000Y-23800000D03*
%TO.N,/d-*%
X178228768Y-56496232D03*
%TO.N,/d+*%
X178971232Y-55753768D03*
%TO.N,/tx*%
X173800000Y-28600000D03*
X143500000Y-30100000D03*
%TO.N,/rx*%
X146900000Y-28900000D03*
X174600000Y-29900000D03*
%TO.N,/io2*%
X174300000Y-38900000D03*
X144900000Y-40400000D03*
%TO.N,/io1*%
X147400000Y-38700000D03*
X174500000Y-40000000D03*
%TD*%
D21*
%TO.N,GND*%
X166210000Y-28760000D02*
X166210000Y-30365000D01*
X159775000Y-22325000D02*
X166210000Y-28760000D01*
X158775000Y-22325000D02*
X159775000Y-22325000D01*
X174150000Y-22425000D02*
X176025000Y-22425000D01*
X166210000Y-30365000D02*
X174150000Y-22425000D01*
X173425001Y-44850001D02*
X174150000Y-45575000D01*
X173425001Y-37580001D02*
X173425001Y-44850001D01*
X166210000Y-30365000D02*
X173425001Y-37580001D01*
X165232500Y-60300000D02*
X164200000Y-61332500D01*
X166850000Y-60300000D02*
X165232500Y-60300000D01*
X163200000Y-61332500D02*
X164200000Y-61332500D01*
X163200000Y-63632500D02*
X164200000Y-63632500D01*
X162564990Y-61967510D02*
X163200000Y-61332500D01*
X162564990Y-62997490D02*
X162564990Y-61967510D01*
X163200000Y-63632500D02*
X162564990Y-62997490D01*
X178080000Y-65370000D02*
X178450000Y-65000000D01*
X178080000Y-66350000D02*
X178080000Y-65370000D01*
X179800000Y-66350000D02*
X178450000Y-65000000D01*
X181460000Y-66350000D02*
X179800000Y-66350000D01*
X177100000Y-65000000D02*
X178450000Y-65000000D01*
X181460000Y-57700000D02*
X178080000Y-57700000D01*
X178080000Y-58070000D02*
X177100000Y-59050000D01*
X178080000Y-57700000D02*
X178080000Y-58070000D01*
X178450000Y-59050000D02*
X177100000Y-59050000D01*
X168100000Y-59050000D02*
X166850000Y-60300000D01*
X177100000Y-59050000D02*
X168100000Y-59050000D01*
X175300000Y-46725000D02*
X174150000Y-45575000D01*
X175300000Y-47300000D02*
X175300000Y-46725000D01*
X139250000Y-38305000D02*
X131310000Y-30365000D01*
X139250000Y-45575000D02*
X139250000Y-38305000D01*
X125570000Y-22325000D02*
X123875000Y-22325000D01*
X131310000Y-28065000D02*
X125570000Y-22325000D01*
X131310000Y-30365000D02*
X131310000Y-28065000D01*
X132185000Y-30365000D02*
X131310000Y-30365000D01*
X140125000Y-22425000D02*
X132185000Y-30365000D01*
X141125000Y-22425000D02*
X140125000Y-22425000D01*
X138325000Y-22425000D02*
X138200000Y-22300000D01*
X141125000Y-22425000D02*
X138325000Y-22425000D01*
X141175000Y-47500000D02*
X143600000Y-47500000D01*
X139250000Y-45575000D02*
X141175000Y-47500000D01*
%TO.N,/vbus*%
X166717500Y-64767500D02*
X166850000Y-64900000D01*
X163200000Y-64767500D02*
X166717500Y-64767500D01*
X176950998Y-64150000D02*
X178450000Y-64150000D01*
X176200998Y-64900000D02*
X176950998Y-64150000D01*
X166850000Y-64900000D02*
X176200998Y-64900000D01*
X178450000Y-59900000D02*
X176900000Y-59900000D01*
X176900000Y-59900000D02*
X177100000Y-59900000D01*
X178949000Y-64150000D02*
X178450000Y-64150000D01*
X179125001Y-60425999D02*
X179125001Y-63973999D01*
X179125001Y-63973999D02*
X178949000Y-64150000D01*
X178774001Y-60074999D02*
X179125001Y-60425999D01*
X178574999Y-60074999D02*
X178774001Y-60074999D01*
X178450000Y-59950000D02*
X178574999Y-60074999D01*
X178450000Y-59900000D02*
X178450000Y-59950000D01*
%TO.N,+3V3*%
X148075001Y-21924999D02*
X146700000Y-23300000D01*
X157775000Y-23825000D02*
X155874999Y-21924999D01*
X158775000Y-23825000D02*
X157775000Y-23825000D01*
X155850001Y-21549999D02*
X155475001Y-21924999D01*
X179749999Y-21549999D02*
X155850001Y-21549999D01*
X181500000Y-23300000D02*
X179749999Y-21549999D01*
X155475001Y-21924999D02*
X148075001Y-21924999D01*
X155874999Y-21924999D02*
X155475001Y-21924999D01*
X171794855Y-48300000D02*
X170617848Y-47122993D01*
X171797500Y-48300000D02*
X171794855Y-48300000D01*
X163200000Y-62467500D02*
X164200000Y-62467500D01*
X166717500Y-62467500D02*
X166850000Y-62600000D01*
X164200000Y-62467500D02*
X166717500Y-62467500D01*
X166850000Y-62600000D02*
X173150000Y-62600000D01*
X173150000Y-59950000D02*
X173200000Y-59900000D01*
X173150000Y-62600000D02*
X173150000Y-59950000D01*
X125375000Y-23825000D02*
X125400000Y-23800000D01*
X123875000Y-23825000D02*
X125375000Y-23825000D01*
%TO.N,Net-(J1-Pad19)*%
X166650000Y-46575000D02*
X166650000Y-45575000D01*
X156999723Y-66120277D02*
X156999723Y-65655369D01*
X154300000Y-68820000D02*
X156999723Y-66120277D01*
X165700000Y-47525000D02*
X166650000Y-46575000D01*
X156999723Y-65655369D02*
X162655092Y-60000000D01*
X165700000Y-57636410D02*
X165700000Y-47525000D01*
X163336410Y-60000000D02*
X165700000Y-57636410D01*
X162655092Y-60000000D02*
X163336410Y-60000000D01*
%TO.N,Net-(J1-Pad18)*%
X155738682Y-66280000D02*
X155720000Y-66280000D01*
X163218682Y-58800000D02*
X155738682Y-66280000D01*
X163900000Y-58800000D02*
X163218682Y-58800000D01*
X154300000Y-66280000D02*
X155720000Y-66280000D01*
X165150000Y-57550000D02*
X163900000Y-58800000D01*
X165150000Y-45575000D02*
X165150000Y-57550000D01*
%TO.N,Net-(J1-Pad17)*%
X163650000Y-54390000D02*
X154300000Y-63740000D01*
X163650000Y-45575000D02*
X163650000Y-54390000D01*
%TO.N,Net-(J1-Pad16)*%
X162150000Y-53350000D02*
X162150000Y-45575000D01*
X154300000Y-61200000D02*
X162150000Y-53350000D01*
%TO.N,Net-(J1-Pad15)*%
X160650000Y-52310000D02*
X154300000Y-58660000D01*
X160650000Y-45575000D02*
X160650000Y-52310000D01*
%TO.N,Net-(J1-Pad14)*%
X158775000Y-51645000D02*
X158775000Y-44825000D01*
X154300000Y-56120000D02*
X158775000Y-51645000D01*
%TO.N,Net-(J1-Pad13)*%
X157699999Y-43400001D02*
X157699999Y-50599999D01*
X157775000Y-43325000D02*
X157699999Y-43400001D01*
X158775000Y-43325000D02*
X157775000Y-43325000D01*
X154719998Y-53580000D02*
X154300000Y-53580000D01*
X157699999Y-50599999D02*
X154719998Y-53580000D01*
%TO.N,Net-(J1-Pad12)*%
X158489998Y-41825000D02*
X158775000Y-41825000D01*
X157249989Y-43065009D02*
X158489998Y-41825000D01*
X157249989Y-48090011D02*
X157249989Y-43065009D01*
X154300000Y-51040000D02*
X157249989Y-48090011D01*
%TO.N,Net-(J1-Pad11)*%
X155475001Y-47324999D02*
X156175001Y-47324999D01*
X154300000Y-48500000D02*
X155475001Y-47324999D01*
X156175001Y-47324999D02*
X156799979Y-46700021D01*
X158489998Y-40325000D02*
X158775000Y-40325000D01*
X156799979Y-42015019D02*
X158489998Y-40325000D01*
X156799979Y-46700021D02*
X156799979Y-42015019D01*
%TO.N,Net-(J1-Pad10)*%
X157775000Y-38825000D02*
X157500000Y-39100000D01*
X158775000Y-38825000D02*
X157775000Y-38825000D01*
X157500000Y-40678588D02*
X156349969Y-41828619D01*
X157500000Y-39100000D02*
X157500000Y-40678588D01*
X156349969Y-43910031D02*
X154300000Y-45960000D01*
X156349969Y-41828619D02*
X156349969Y-43910031D01*
%TO.N,Net-(J1-Pad9)*%
X154300000Y-43420000D02*
X154300000Y-43242178D01*
X157049990Y-38050010D02*
X157775000Y-37325000D01*
X157775000Y-37325000D02*
X158775000Y-37325000D01*
X157049990Y-40492188D02*
X157049990Y-38050010D01*
X154300000Y-43242178D02*
X157049990Y-40492188D01*
%TO.N,Net-(J1-Pad8)*%
X154300000Y-40880000D02*
X156599980Y-38580020D01*
X158489998Y-35825000D02*
X158775000Y-35825000D01*
X156599980Y-37715018D02*
X158489998Y-35825000D01*
X156599980Y-38580020D02*
X156599980Y-37715018D01*
%TO.N,Net-(J1-Pad7)*%
X158315000Y-34325000D02*
X158775000Y-34325000D01*
X154300000Y-38340000D02*
X158315000Y-34325000D01*
%TO.N,Net-(J1-Pad6)*%
X157275000Y-32825000D02*
X158775000Y-32825000D01*
X154300000Y-35800000D02*
X157275000Y-32825000D01*
%TO.N,Net-(J1-Pad5)*%
X156235000Y-31325000D02*
X154300000Y-33260000D01*
X158775000Y-31325000D02*
X156235000Y-31325000D01*
%TO.N,Net-(J1-Pad4)*%
X155195000Y-29825000D02*
X154300000Y-30720000D01*
X158775000Y-29825000D02*
X155195000Y-29825000D01*
%TO.N,Net-(J1-Pad3)*%
X158630000Y-28180000D02*
X158775000Y-28325000D01*
X154300000Y-28180000D02*
X158630000Y-28180000D01*
%TO.N,Net-(J1-Pad2)*%
X155485000Y-26825000D02*
X158775000Y-26825000D01*
X154300000Y-25640000D02*
X155485000Y-26825000D01*
%TO.N,Net-(J1-Pad1)*%
X156525000Y-25325000D02*
X154300000Y-23100000D01*
X158775000Y-25325000D02*
X156525000Y-25325000D01*
%TO.N,Net-(J2-Pad2)*%
X176550000Y-23300000D02*
X176025000Y-23825000D01*
X178960000Y-23300000D02*
X176550000Y-23300000D01*
%TO.N,Net-(J3-Pad12)*%
X179865000Y-25325000D02*
X176025000Y-25325000D01*
X181500000Y-26960000D02*
X179865000Y-25325000D01*
%TO.N,Net-(J3-Pad11)*%
X178925000Y-26925000D02*
X181500000Y-29500000D01*
X176025000Y-26925000D02*
X178925000Y-26925000D01*
%TO.N,Net-(J3-Pad10)*%
X180885000Y-31425000D02*
X181500000Y-32040000D01*
X176025000Y-31425000D02*
X180885000Y-31425000D01*
%TO.N,Net-(J3-Pad9)*%
X178680000Y-34580000D02*
X181500000Y-34580000D01*
X177025000Y-32925000D02*
X178680000Y-34580000D01*
X176025000Y-32925000D02*
X177025000Y-32925000D01*
%TO.N,Net-(J3-Pad8)*%
X179720000Y-37120000D02*
X181500000Y-37120000D01*
X177025000Y-34425000D02*
X179720000Y-37120000D01*
X176025000Y-34425000D02*
X177025000Y-34425000D01*
%TO.N,Net-(J3-Pad7)*%
X181500000Y-39536410D02*
X181500000Y-39660000D01*
X177888590Y-35925000D02*
X181500000Y-39536410D01*
X176025000Y-35925000D02*
X177888590Y-35925000D01*
%TO.N,Net-(J3-Pad6)*%
X181500000Y-41399002D02*
X181500000Y-42200000D01*
X177525998Y-37425000D02*
X181500000Y-41399002D01*
X176025000Y-37425000D02*
X177525998Y-37425000D01*
%TO.N,Net-(J3-Pad5)*%
X178685000Y-41925000D02*
X181500000Y-44740000D01*
X176025000Y-41925000D02*
X178685000Y-41925000D01*
%TO.N,Net-(J3-Pad4)*%
X177645000Y-43425000D02*
X181500000Y-47280000D01*
X176025000Y-43425000D02*
X177645000Y-43425000D01*
%TO.N,Net-(J3-Pad3)*%
X181500000Y-49400000D02*
X181500000Y-49820000D01*
X177025000Y-44925000D02*
X181500000Y-49400000D01*
X176025000Y-44925000D02*
X177025000Y-44925000D01*
%TO.N,Net-(J3-Pad2)*%
X178435000Y-52360000D02*
X181500000Y-52360000D01*
X172650000Y-46575000D02*
X178435000Y-52360000D01*
X172650000Y-45575000D02*
X172650000Y-46575000D01*
%TO.N,Net-(J3-Pad1)*%
X179475000Y-54900000D02*
X181500000Y-54900000D01*
X171150000Y-46575000D02*
X179475000Y-54900000D01*
X171150000Y-45575000D02*
X171150000Y-46575000D01*
%TO.N,Net-(J4-Pad14)*%
X148855000Y-25325000D02*
X150500000Y-23680000D01*
X141125000Y-25325000D02*
X148855000Y-25325000D01*
%TO.N,Net-(J4-Pad13)*%
X149795000Y-26925000D02*
X150500000Y-26220000D01*
X141125000Y-26925000D02*
X149795000Y-26925000D01*
%TO.N,Net-(J4-Pad12)*%
X147835000Y-31425000D02*
X150500000Y-28760000D01*
X141125000Y-31425000D02*
X147835000Y-31425000D01*
%TO.N,Net-(J4-Pad11)*%
X148875000Y-32925000D02*
X150500000Y-31300000D01*
X141125000Y-32925000D02*
X148875000Y-32925000D01*
%TO.N,Net-(J4-Pad10)*%
X149915000Y-34425000D02*
X150500000Y-33840000D01*
X141125000Y-34425000D02*
X149915000Y-34425000D01*
%TO.N,Net-(J4-Pad9)*%
X141580000Y-36380000D02*
X141125000Y-35925000D01*
X150500000Y-36380000D02*
X141580000Y-36380000D01*
%TO.N,Net-(J4-Pad8)*%
X149005000Y-37425000D02*
X150500000Y-38920000D01*
X141125000Y-37425000D02*
X149005000Y-37425000D01*
%TO.N,Net-(J4-Pad7)*%
X150035000Y-41925000D02*
X150500000Y-41460000D01*
X141125000Y-41925000D02*
X150035000Y-41925000D01*
%TO.N,Net-(J4-Pad6)*%
X149925000Y-43425000D02*
X150500000Y-44000000D01*
X141125000Y-43425000D02*
X149925000Y-43425000D01*
%TO.N,Net-(J4-Pad5)*%
X148885000Y-44925000D02*
X150500000Y-46540000D01*
X141125000Y-44925000D02*
X148885000Y-44925000D01*
%TO.N,Net-(J4-Pad4)*%
X140255000Y-49080000D02*
X150500000Y-49080000D01*
X137750000Y-46575000D02*
X140255000Y-49080000D01*
X137750000Y-45575000D02*
X137750000Y-46575000D01*
%TO.N,Net-(J4-Pad3)*%
X141295000Y-51620000D02*
X150500000Y-51620000D01*
X136250000Y-46575000D02*
X141295000Y-51620000D01*
X136250000Y-45575000D02*
X136250000Y-46575000D01*
%TO.N,Net-(J5-Pad19)*%
X119000000Y-68019002D02*
X119000000Y-68820000D01*
X131750000Y-55269002D02*
X119000000Y-68019002D01*
X131750000Y-45575000D02*
X131750000Y-55269002D01*
%TO.N,Net-(J5-Pad18)*%
X130250000Y-55030000D02*
X130250000Y-45575000D01*
X119000000Y-66280000D02*
X130250000Y-55030000D01*
%TO.N,Net-(J5-Pad17)*%
X119000000Y-62939002D02*
X119000000Y-63740000D01*
X128750000Y-53189002D02*
X119000000Y-62939002D01*
X128750000Y-45575000D02*
X128750000Y-53189002D01*
%TO.N,Net-(J5-Pad16)*%
X119000000Y-60399002D02*
X119000000Y-61200000D01*
X127250000Y-52149002D02*
X119000000Y-60399002D01*
X127250000Y-45575000D02*
X127250000Y-52149002D01*
%TO.N,Net-(J5-Pad15)*%
X119000000Y-57859002D02*
X119000000Y-58660000D01*
X125750000Y-51109002D02*
X119000000Y-57859002D01*
X125750000Y-45575000D02*
X125750000Y-51109002D01*
%TO.N,Net-(J5-Pad14)*%
X123875000Y-50444002D02*
X119000000Y-55319002D01*
X119000000Y-55319002D02*
X119000000Y-56120000D01*
X123875000Y-44825000D02*
X123875000Y-50444002D01*
%TO.N,Net-(J5-Pad13)*%
X122150029Y-50429971D02*
X119000000Y-53580000D01*
X122150029Y-44049971D02*
X122150029Y-50429971D01*
X122875000Y-43325000D02*
X122150029Y-44049971D01*
X123875000Y-43325000D02*
X122875000Y-43325000D01*
%TO.N,Net-(J5-Pad12)*%
X121700020Y-48339980D02*
X119000000Y-51040000D01*
X121700020Y-42999980D02*
X121700020Y-48339980D01*
X122875000Y-41825000D02*
X121700020Y-42999980D01*
X123875000Y-41825000D02*
X122875000Y-41825000D01*
%TO.N,Net-(J5-Pad11)*%
X122875000Y-40325000D02*
X123875000Y-40325000D01*
X121250010Y-41949990D02*
X122875000Y-40325000D01*
X121250010Y-46249990D02*
X121250010Y-41949990D01*
X119000000Y-48500000D02*
X121250010Y-46249990D01*
%TO.N,Net-(J5-Pad10)*%
X119000000Y-45960000D02*
X120800000Y-44160000D01*
X122875000Y-38825000D02*
X123875000Y-38825000D01*
X120800000Y-40900000D02*
X122875000Y-38825000D01*
X120800000Y-44160000D02*
X120800000Y-40900000D01*
%TO.N,Net-(J5-Pad9)*%
X122875000Y-37325000D02*
X123875000Y-37325000D01*
X120175001Y-40024999D02*
X122875000Y-37325000D01*
X120175001Y-42244999D02*
X120175001Y-40024999D01*
X119000000Y-43420000D02*
X120175001Y-42244999D01*
%TO.N,Net-(J5-Pad8)*%
X123589998Y-35825000D02*
X123875000Y-35825000D01*
X119000000Y-40414998D02*
X123589998Y-35825000D01*
X119000000Y-40880000D02*
X119000000Y-40414998D01*
%TO.N,Net-(J5-Pad7)*%
X123015000Y-34325000D02*
X123875000Y-34325000D01*
X119000000Y-38340000D02*
X123015000Y-34325000D01*
%TO.N,Net-(J5-Pad6)*%
X121975000Y-32825000D02*
X123875000Y-32825000D01*
X119000000Y-35800000D02*
X121975000Y-32825000D01*
%TO.N,Net-(J5-Pad5)*%
X120935000Y-31325000D02*
X123875000Y-31325000D01*
X119000000Y-33260000D02*
X120935000Y-31325000D01*
%TO.N,Net-(J5-Pad4)*%
X119895000Y-29825000D02*
X123875000Y-29825000D01*
X119000000Y-30720000D02*
X119895000Y-29825000D01*
%TO.N,Net-(J5-Pad3)*%
X123730000Y-28180000D02*
X123875000Y-28325000D01*
X119000000Y-28180000D02*
X123730000Y-28180000D01*
%TO.N,Net-(J5-Pad2)*%
X120185000Y-26825000D02*
X123875000Y-26825000D01*
X119000000Y-25640000D02*
X120185000Y-26825000D01*
%TO.N,Net-(J5-Pad1)*%
X121225000Y-25325000D02*
X123875000Y-25325000D01*
X119000000Y-23100000D02*
X121225000Y-25325000D01*
%TO.N,Net-(J6-Pad2)*%
X143635000Y-23825000D02*
X144160000Y-23300000D01*
X141125000Y-23825000D02*
X143635000Y-23825000D01*
D22*
%TO.N,/d-*%
X178228768Y-56071967D02*
X178228768Y-56496232D01*
X171704301Y-49547500D02*
X178228768Y-56071967D01*
X168300000Y-49097500D02*
X168750000Y-49547500D01*
X169850544Y-49755010D02*
X170058054Y-49547500D01*
X169149456Y-49755010D02*
X169850544Y-49755010D01*
X168750000Y-49547500D02*
X168941946Y-49547500D01*
X168941946Y-49547500D02*
X169149456Y-49755010D01*
X170058054Y-49547500D02*
X171704301Y-49547500D01*
%TO.N,/d+*%
X178588760Y-55746250D02*
X178596278Y-55753768D01*
X171890699Y-49097500D02*
X178539449Y-55746250D01*
X169500000Y-49097500D02*
X171890699Y-49097500D01*
X178539449Y-55746250D02*
X178588760Y-55746250D01*
X178596278Y-55753768D02*
X178971232Y-55753768D01*
D21*
X169805000Y-49097500D02*
X170602500Y-48300000D01*
X169500000Y-49097500D02*
X169805000Y-49097500D01*
D22*
%TO.N,/rd-*%
X168675000Y-47527500D02*
X168300000Y-47902500D01*
X168675000Y-47225001D02*
X168675000Y-47527500D01*
X168150000Y-46700001D02*
X168675000Y-47225001D01*
X168150000Y-45575000D02*
X168150000Y-46700001D01*
%TO.N,/rd+*%
X169125000Y-47225001D02*
X169125000Y-47527500D01*
X169650000Y-46700001D02*
X169125000Y-47225001D01*
X169125000Y-47527500D02*
X169500000Y-47902500D01*
X169650000Y-45575000D02*
X169650000Y-46700001D01*
D21*
%TO.N,/tx*%
X173975000Y-28425000D02*
X173800000Y-28600000D01*
X176025000Y-28425000D02*
X173975000Y-28425000D01*
X141300000Y-30100000D02*
X141125000Y-29925000D01*
X143500000Y-30100000D02*
X141300000Y-30100000D01*
%TO.N,/rx*%
X146425000Y-28425000D02*
X146900000Y-28900000D01*
X141125000Y-28425000D02*
X146425000Y-28425000D01*
X176000000Y-29900000D02*
X176025000Y-29925000D01*
X174600000Y-29900000D02*
X176000000Y-29900000D01*
%TO.N,/io2*%
X174325000Y-38925000D02*
X174300000Y-38900000D01*
X176025000Y-38925000D02*
X174325000Y-38925000D01*
X141150000Y-40400000D02*
X141125000Y-40425000D01*
X144900000Y-40400000D02*
X141150000Y-40400000D01*
%TO.N,/io1*%
X147175000Y-38925000D02*
X147400000Y-38700000D01*
X141125000Y-38925000D02*
X147175000Y-38925000D01*
X175600000Y-40000000D02*
X176025000Y-40425000D01*
X174500000Y-40000000D02*
X175600000Y-40000000D01*
D22*
%TO.N,/usb_d+*%
X134750000Y-45875000D02*
X134225000Y-46400000D01*
X134750000Y-45575000D02*
X134750000Y-45875000D01*
X134225000Y-46400000D02*
X134225000Y-46606800D01*
X142823200Y-55205000D02*
X149455000Y-55205000D01*
X134225000Y-46606800D02*
X142823200Y-55205000D01*
X149455000Y-55205000D02*
X150500000Y-54160000D01*
%TO.N,/usb_d-*%
X133775000Y-46400000D02*
X133775000Y-46793200D01*
X133250000Y-45575000D02*
X133250000Y-45875000D01*
X133250000Y-45875000D02*
X133775000Y-46400000D01*
X149455000Y-55655000D02*
X150500000Y-56700000D01*
X142636800Y-55655000D02*
X149455000Y-55655000D01*
X133775000Y-46793200D02*
X142636800Y-55655000D01*
%TD*%
M02*
