%TF.GenerationSoftware,KiCad,Pcbnew,(5.1.6)-1*%
%TF.CreationDate,2020-10-06T21:24:19+08:00*%
%TF.ProjectId,esp32,65737033-322e-46b6-9963-61645f706362,rev?*%
%TF.SameCoordinates,Original*%
%TF.FileFunction,Legend,Bot*%
%TF.FilePolarity,Positive*%
%FSLAX46Y46*%
G04 Gerber Fmt 4.6, Leading zero omitted, Abs format (unit mm)*
G04 Created by KiCad (PCBNEW (5.1.6)-1) date 2020-10-06 21:24:19*
%MOMM*%
%LPD*%
G01*
G04 APERTURE LIST*
%ADD10C,0.150000*%
%ADD11C,0.010000*%
G04 APERTURE END LIST*
D10*
X138552380Y-34185714D02*
X138552380Y-35042857D01*
X138600000Y-35138095D01*
X138695238Y-35185714D01*
X138742857Y-35185714D01*
X138552380Y-33852380D02*
X138600000Y-33900000D01*
X138552380Y-33947619D01*
X138504761Y-33900000D01*
X138552380Y-33852380D01*
X138552380Y-33947619D01*
X137933333Y-34852380D02*
X138028571Y-34804761D01*
X138076190Y-34757142D01*
X138123809Y-34661904D01*
X138123809Y-34376190D01*
X138076190Y-34280952D01*
X138028571Y-34233333D01*
X137933333Y-34185714D01*
X137790476Y-34185714D01*
X137695238Y-34233333D01*
X137647619Y-34280952D01*
X137600000Y-34376190D01*
X137600000Y-34661904D01*
X137647619Y-34757142D01*
X137695238Y-34804761D01*
X137790476Y-34852380D01*
X137933333Y-34852380D01*
X137171428Y-34852380D02*
X137171428Y-34185714D01*
X137171428Y-33852380D02*
X137219047Y-33900000D01*
X137171428Y-33947619D01*
X137123809Y-33900000D01*
X137171428Y-33852380D01*
X137171428Y-33947619D01*
X136695238Y-34185714D02*
X136695238Y-34852380D01*
X136695238Y-34280952D02*
X136647619Y-34233333D01*
X136552380Y-34185714D01*
X136409523Y-34185714D01*
X136314285Y-34233333D01*
X136266666Y-34328571D01*
X136266666Y-34852380D01*
X135790476Y-34471428D02*
X135028571Y-34471428D01*
X134171428Y-34804761D02*
X134266666Y-34852380D01*
X134457142Y-34852380D01*
X134552380Y-34804761D01*
X134600000Y-34709523D01*
X134600000Y-34328571D01*
X134552380Y-34233333D01*
X134457142Y-34185714D01*
X134266666Y-34185714D01*
X134171428Y-34233333D01*
X134123809Y-34328571D01*
X134123809Y-34423809D01*
X134600000Y-34519047D01*
X133742857Y-34804761D02*
X133647619Y-34852380D01*
X133457142Y-34852380D01*
X133361904Y-34804761D01*
X133314285Y-34709523D01*
X133314285Y-34661904D01*
X133361904Y-34566666D01*
X133457142Y-34519047D01*
X133600000Y-34519047D01*
X133695238Y-34471428D01*
X133742857Y-34376190D01*
X133742857Y-34328571D01*
X133695238Y-34233333D01*
X133600000Y-34185714D01*
X133457142Y-34185714D01*
X133361904Y-34233333D01*
X132885714Y-34185714D02*
X132885714Y-35185714D01*
X132885714Y-34233333D02*
X132790476Y-34185714D01*
X132600000Y-34185714D01*
X132504761Y-34233333D01*
X132457142Y-34280952D01*
X132409523Y-34376190D01*
X132409523Y-34661904D01*
X132457142Y-34757142D01*
X132504761Y-34804761D01*
X132600000Y-34852380D01*
X132790476Y-34852380D01*
X132885714Y-34804761D01*
X131980952Y-34471428D02*
X131219047Y-34471428D01*
X130790476Y-33947619D02*
X130742857Y-33900000D01*
X130647619Y-33852380D01*
X130409523Y-33852380D01*
X130314285Y-33900000D01*
X130266666Y-33947619D01*
X130219047Y-34042857D01*
X130219047Y-34138095D01*
X130266666Y-34280952D01*
X130838095Y-34852380D01*
X130219047Y-34852380D01*
X129361904Y-34804761D02*
X129457142Y-34852380D01*
X129647619Y-34852380D01*
X129742857Y-34804761D01*
X129790476Y-34757142D01*
X129838095Y-34661904D01*
X129838095Y-34376190D01*
X129790476Y-34280952D01*
X129742857Y-34233333D01*
X129647619Y-34185714D01*
X129457142Y-34185714D01*
X129361904Y-34233333D01*
X128790476Y-34852380D02*
X128885714Y-34804761D01*
X128933333Y-34757142D01*
X128980952Y-34661904D01*
X128980952Y-34376190D01*
X128933333Y-34280952D01*
X128885714Y-34233333D01*
X128790476Y-34185714D01*
X128647619Y-34185714D01*
X128552380Y-34233333D01*
X128504761Y-34280952D01*
X128457142Y-34376190D01*
X128457142Y-34661904D01*
X128504761Y-34757142D01*
X128552380Y-34804761D01*
X128647619Y-34852380D01*
X128790476Y-34852380D01*
X128028571Y-34185714D02*
X128028571Y-34852380D01*
X128028571Y-34280952D02*
X127980952Y-34233333D01*
X127885714Y-34185714D01*
X127742857Y-34185714D01*
X127647619Y-34233333D01*
X127600000Y-34328571D01*
X127600000Y-34852380D01*
X127123809Y-34185714D02*
X127123809Y-34852380D01*
X127123809Y-34280952D02*
X127076190Y-34233333D01*
X126980952Y-34185714D01*
X126838095Y-34185714D01*
X126742857Y-34233333D01*
X126695238Y-34328571D01*
X126695238Y-34852380D01*
X125838095Y-34804761D02*
X125933333Y-34852380D01*
X126123809Y-34852380D01*
X126219047Y-34804761D01*
X126266666Y-34709523D01*
X126266666Y-34328571D01*
X126219047Y-34233333D01*
X126123809Y-34185714D01*
X125933333Y-34185714D01*
X125838095Y-34233333D01*
X125790476Y-34328571D01*
X125790476Y-34423809D01*
X126266666Y-34519047D01*
X124933333Y-34804761D02*
X125028571Y-34852380D01*
X125219047Y-34852380D01*
X125314285Y-34804761D01*
X125361904Y-34757142D01*
X125409523Y-34661904D01*
X125409523Y-34376190D01*
X125361904Y-34280952D01*
X125314285Y-34233333D01*
X125219047Y-34185714D01*
X125028571Y-34185714D01*
X124933333Y-34233333D01*
X124647619Y-34185714D02*
X124266666Y-34185714D01*
X124504761Y-33852380D02*
X124504761Y-34709523D01*
X124457142Y-34804761D01*
X124361904Y-34852380D01*
X124266666Y-34852380D01*
X123552380Y-34804761D02*
X123647619Y-34852380D01*
X123838095Y-34852380D01*
X123933333Y-34804761D01*
X123980952Y-34709523D01*
X123980952Y-34328571D01*
X123933333Y-34233333D01*
X123838095Y-34185714D01*
X123647619Y-34185714D01*
X123552380Y-34233333D01*
X123504761Y-34328571D01*
X123504761Y-34423809D01*
X123980952Y-34519047D01*
X122647619Y-34852380D02*
X122647619Y-33852380D01*
X122647619Y-34804761D02*
X122742857Y-34852380D01*
X122933333Y-34852380D01*
X123028571Y-34804761D01*
X123076190Y-34757142D01*
X123123809Y-34661904D01*
X123123809Y-34376190D01*
X123076190Y-34280952D01*
X123028571Y-34233333D01*
X122933333Y-34185714D01*
X122742857Y-34185714D01*
X122647619Y-34233333D01*
D11*
%TO.C,G\u002A\u002A\u002A*%
G36*
X130900613Y-32835701D02*
G01*
X130824247Y-32852723D01*
X130750779Y-32884944D01*
X130678924Y-32933137D01*
X130607398Y-32998074D01*
X130534917Y-33080527D01*
X130504315Y-33119990D01*
X130447383Y-33188603D01*
X130392325Y-33239874D01*
X130337752Y-33274989D01*
X130308194Y-33287581D01*
X130243876Y-33301006D01*
X130180589Y-33297182D01*
X130121147Y-33277588D01*
X130068364Y-33243706D01*
X130025054Y-33197014D01*
X129994029Y-33138995D01*
X129987287Y-33118735D01*
X129984317Y-33089096D01*
X129992390Y-33052888D01*
X129994904Y-33045608D01*
X130005393Y-32996238D01*
X129998976Y-32954406D01*
X129975792Y-32920683D01*
X129961257Y-32909187D01*
X129931114Y-32892723D01*
X129903865Y-32888925D01*
X129871623Y-32897189D01*
X129860844Y-32901490D01*
X129838774Y-32914348D01*
X129821182Y-32934866D01*
X129803571Y-32968307D01*
X129803332Y-32968828D01*
X129782361Y-33036129D01*
X129778196Y-33106350D01*
X129789541Y-33177287D01*
X129815099Y-33246737D01*
X129853573Y-33312495D01*
X129903665Y-33372359D01*
X129964078Y-33424125D01*
X130033516Y-33465591D01*
X130110681Y-33494551D01*
X130113222Y-33495236D01*
X130160754Y-33503511D01*
X130217780Y-33507028D01*
X130275562Y-33505671D01*
X130325359Y-33499324D01*
X130330774Y-33498130D01*
X130409018Y-33470764D01*
X130486725Y-33426249D01*
X130561712Y-33366182D01*
X130631796Y-33292156D01*
X130657743Y-33259296D01*
X130717294Y-33185464D01*
X130774215Y-33125994D01*
X130827246Y-33082098D01*
X130866646Y-33058714D01*
X130920287Y-33041671D01*
X130973598Y-33039222D01*
X131023588Y-33049917D01*
X131067266Y-33072303D01*
X131101642Y-33104929D01*
X131123725Y-33146346D01*
X131130585Y-33186785D01*
X131129605Y-33219796D01*
X131126030Y-33249279D01*
X131124324Y-33256781D01*
X131121889Y-33268849D01*
X131124318Y-33278583D01*
X131134413Y-33288454D01*
X131154978Y-33300928D01*
X131188813Y-33318474D01*
X131201748Y-33324984D01*
X131238298Y-33342924D01*
X131268802Y-33357119D01*
X131289230Y-33365738D01*
X131295204Y-33367482D01*
X131305583Y-33358775D01*
X131315897Y-33335410D01*
X131325149Y-33301522D01*
X131332344Y-33261245D01*
X131336488Y-33218712D01*
X131337093Y-33193445D01*
X131328023Y-33110336D01*
X131302507Y-33036319D01*
X131260712Y-32971653D01*
X131202805Y-32916597D01*
X131130074Y-32871962D01*
X131088978Y-32853095D01*
X131054526Y-32841823D01*
X131017565Y-32835756D01*
X130981160Y-32833105D01*
X130900613Y-32835701D01*
G37*
X130900613Y-32835701D02*
X130824247Y-32852723D01*
X130750779Y-32884944D01*
X130678924Y-32933137D01*
X130607398Y-32998074D01*
X130534917Y-33080527D01*
X130504315Y-33119990D01*
X130447383Y-33188603D01*
X130392325Y-33239874D01*
X130337752Y-33274989D01*
X130308194Y-33287581D01*
X130243876Y-33301006D01*
X130180589Y-33297182D01*
X130121147Y-33277588D01*
X130068364Y-33243706D01*
X130025054Y-33197014D01*
X129994029Y-33138995D01*
X129987287Y-33118735D01*
X129984317Y-33089096D01*
X129992390Y-33052888D01*
X129994904Y-33045608D01*
X130005393Y-32996238D01*
X129998976Y-32954406D01*
X129975792Y-32920683D01*
X129961257Y-32909187D01*
X129931114Y-32892723D01*
X129903865Y-32888925D01*
X129871623Y-32897189D01*
X129860844Y-32901490D01*
X129838774Y-32914348D01*
X129821182Y-32934866D01*
X129803571Y-32968307D01*
X129803332Y-32968828D01*
X129782361Y-33036129D01*
X129778196Y-33106350D01*
X129789541Y-33177287D01*
X129815099Y-33246737D01*
X129853573Y-33312495D01*
X129903665Y-33372359D01*
X129964078Y-33424125D01*
X130033516Y-33465591D01*
X130110681Y-33494551D01*
X130113222Y-33495236D01*
X130160754Y-33503511D01*
X130217780Y-33507028D01*
X130275562Y-33505671D01*
X130325359Y-33499324D01*
X130330774Y-33498130D01*
X130409018Y-33470764D01*
X130486725Y-33426249D01*
X130561712Y-33366182D01*
X130631796Y-33292156D01*
X130657743Y-33259296D01*
X130717294Y-33185464D01*
X130774215Y-33125994D01*
X130827246Y-33082098D01*
X130866646Y-33058714D01*
X130920287Y-33041671D01*
X130973598Y-33039222D01*
X131023588Y-33049917D01*
X131067266Y-33072303D01*
X131101642Y-33104929D01*
X131123725Y-33146346D01*
X131130585Y-33186785D01*
X131129605Y-33219796D01*
X131126030Y-33249279D01*
X131124324Y-33256781D01*
X131121889Y-33268849D01*
X131124318Y-33278583D01*
X131134413Y-33288454D01*
X131154978Y-33300928D01*
X131188813Y-33318474D01*
X131201748Y-33324984D01*
X131238298Y-33342924D01*
X131268802Y-33357119D01*
X131289230Y-33365738D01*
X131295204Y-33367482D01*
X131305583Y-33358775D01*
X131315897Y-33335410D01*
X131325149Y-33301522D01*
X131332344Y-33261245D01*
X131336488Y-33218712D01*
X131337093Y-33193445D01*
X131328023Y-33110336D01*
X131302507Y-33036319D01*
X131260712Y-32971653D01*
X131202805Y-32916597D01*
X131130074Y-32871962D01*
X131088978Y-32853095D01*
X131054526Y-32841823D01*
X131017565Y-32835756D01*
X130981160Y-32833105D01*
X130900613Y-32835701D01*
G36*
X129032122Y-24913704D02*
G01*
X129033635Y-24940136D01*
X129036255Y-24981778D01*
X129039864Y-25036852D01*
X129044344Y-25103579D01*
X129049576Y-25180182D01*
X129055442Y-25264881D01*
X129061823Y-25355898D01*
X129063456Y-25379025D01*
X129069892Y-25471443D01*
X129075730Y-25558082D01*
X129080863Y-25637149D01*
X129085186Y-25706850D01*
X129088589Y-25765391D01*
X129090966Y-25810980D01*
X129092210Y-25841821D01*
X129092214Y-25856123D01*
X129092018Y-25856895D01*
X129083223Y-25853196D01*
X129059770Y-25840758D01*
X129023177Y-25820449D01*
X128974965Y-25793138D01*
X128916652Y-25759693D01*
X128849757Y-25720982D01*
X128775800Y-25677874D01*
X128696298Y-25631237D01*
X128663271Y-25611781D01*
X128581986Y-25563872D01*
X128505694Y-25518978D01*
X128435911Y-25477983D01*
X128374150Y-25441774D01*
X128321927Y-25411237D01*
X128280757Y-25387259D01*
X128252152Y-25370727D01*
X128237630Y-25362527D01*
X128236104Y-25361778D01*
X128237031Y-25370753D01*
X128240935Y-25396519D01*
X128247523Y-25437341D01*
X128256505Y-25491479D01*
X128267589Y-25557198D01*
X128280483Y-25632760D01*
X128294897Y-25716428D01*
X128310537Y-25806465D01*
X128315360Y-25834087D01*
X128331329Y-25925785D01*
X128346177Y-26011717D01*
X128359608Y-26090132D01*
X128371328Y-26159280D01*
X128381045Y-26217409D01*
X128388462Y-26262770D01*
X128393286Y-26293612D01*
X128395223Y-26308185D01*
X128395203Y-26309118D01*
X128386302Y-26306032D01*
X128361749Y-26296155D01*
X128323159Y-26280171D01*
X128272148Y-26258759D01*
X128210331Y-26232604D01*
X128139323Y-26202386D01*
X128060739Y-26168787D01*
X127976195Y-26132490D01*
X127943197Y-26118284D01*
X127856780Y-26081174D01*
X127775657Y-26046569D01*
X127701451Y-26015144D01*
X127635784Y-25987575D01*
X127580280Y-25964540D01*
X127536560Y-25946713D01*
X127506247Y-25934772D01*
X127490964Y-25929391D01*
X127489439Y-25929203D01*
X127491599Y-25938660D01*
X127499389Y-25964331D01*
X127512287Y-26004647D01*
X127529775Y-26058041D01*
X127551330Y-26122943D01*
X127576433Y-26197786D01*
X127604563Y-26281003D01*
X127635200Y-26371025D01*
X127664889Y-26457741D01*
X127697374Y-26552545D01*
X127727877Y-26641918D01*
X127755872Y-26724299D01*
X127780835Y-26798126D01*
X127802240Y-26861838D01*
X127819564Y-26913874D01*
X127832282Y-26952674D01*
X127839869Y-26976676D01*
X127841869Y-26984344D01*
X127832164Y-26983805D01*
X127806132Y-26981052D01*
X127766093Y-26976366D01*
X127714368Y-26970027D01*
X127653278Y-26962317D01*
X127585145Y-26953516D01*
X127561468Y-26950414D01*
X127284011Y-26913945D01*
X127267500Y-26935139D01*
X127256871Y-26949738D01*
X127237789Y-26976876D01*
X127212362Y-27013520D01*
X127182697Y-27056637D01*
X127158019Y-27092741D01*
X127032322Y-27288629D01*
X126920992Y-27487171D01*
X126821168Y-27693771D01*
X126749230Y-27864544D01*
X126726666Y-27923603D01*
X126702493Y-27990672D01*
X126677867Y-28062176D01*
X126653941Y-28134535D01*
X126631872Y-28204173D01*
X126612813Y-28267512D01*
X126597921Y-28320974D01*
X126588348Y-28360983D01*
X126587398Y-28365844D01*
X126580588Y-28389893D01*
X126572130Y-28404446D01*
X126570090Y-28405758D01*
X126557423Y-28405643D01*
X126529889Y-28402661D01*
X126491133Y-28397291D01*
X126444802Y-28390008D01*
X126427814Y-28387154D01*
X126380605Y-28379234D01*
X126340608Y-28372793D01*
X126311179Y-28368349D01*
X126295677Y-28366425D01*
X126294141Y-28366457D01*
X126296888Y-28375356D01*
X126305552Y-28400024D01*
X126319457Y-28438607D01*
X126337924Y-28489253D01*
X126360278Y-28550108D01*
X126385841Y-28619320D01*
X126413936Y-28695035D01*
X126426963Y-28730032D01*
X126456336Y-28808952D01*
X126483820Y-28882961D01*
X126508683Y-28950070D01*
X126530190Y-29008292D01*
X126547607Y-29055638D01*
X126560201Y-29090121D01*
X126567238Y-29109752D01*
X126568326Y-29112982D01*
X126574897Y-29134148D01*
X126421393Y-29133882D01*
X126267889Y-29133615D01*
X126180024Y-28997474D01*
X126092160Y-28861333D01*
X126026370Y-28861333D01*
X125994488Y-28862346D01*
X125972091Y-28865013D01*
X125963641Y-28868778D01*
X125963716Y-28869149D01*
X125969555Y-28878931D01*
X125984242Y-28902146D01*
X126006298Y-28936497D01*
X126034245Y-28979689D01*
X126066605Y-29029426D01*
X126087757Y-29061810D01*
X126208662Y-29246654D01*
X126395821Y-29249197D01*
X126582981Y-29251741D01*
X126395969Y-29632741D01*
X126357509Y-29711180D01*
X126321769Y-29784236D01*
X126289568Y-29850218D01*
X126261730Y-29907437D01*
X126239074Y-29954201D01*
X126222422Y-29988821D01*
X126212596Y-30009606D01*
X126210201Y-30015137D01*
X126219413Y-30014267D01*
X126244038Y-30010955D01*
X126280898Y-30005655D01*
X126326815Y-29998819D01*
X126357259Y-29994189D01*
X126407490Y-29986530D01*
X126450960Y-29979974D01*
X126484365Y-29975013D01*
X126504403Y-29972141D01*
X126508601Y-29971626D01*
X126512443Y-29980157D01*
X126518357Y-30003318D01*
X126525411Y-30037165D01*
X126530186Y-30063130D01*
X126582929Y-30311863D01*
X126653591Y-30559896D01*
X126741309Y-30805349D01*
X126845225Y-31046341D01*
X126964477Y-31280992D01*
X127098206Y-31507421D01*
X127245552Y-31723749D01*
X127355400Y-31867000D01*
X127528517Y-32067687D01*
X127715748Y-32257667D01*
X127915360Y-32435508D01*
X128125619Y-32599778D01*
X128344793Y-32749044D01*
X128571147Y-32881875D01*
X128606258Y-32900634D01*
X128722531Y-32961952D01*
X128724283Y-33035365D01*
X128734894Y-33119238D01*
X128761744Y-33195469D01*
X128803597Y-33262315D01*
X128859217Y-33318037D01*
X128927366Y-33360894D01*
X128967346Y-33377519D01*
X129012366Y-33388459D01*
X129065890Y-33394184D01*
X129120848Y-33394556D01*
X129170171Y-33389436D01*
X129198810Y-33382058D01*
X129277970Y-33343871D01*
X129344020Y-33292743D01*
X129396156Y-33229390D01*
X129421256Y-33184037D01*
X129433779Y-33155030D01*
X129441598Y-33129223D01*
X129445782Y-33100494D01*
X129447404Y-33062725D01*
X129447592Y-33033519D01*
X129447060Y-32988211D01*
X129444687Y-32955493D01*
X129439309Y-32929154D01*
X129429759Y-32902981D01*
X129418481Y-32878296D01*
X129397179Y-32840114D01*
X129371213Y-32802624D01*
X129350277Y-32778274D01*
X129311185Y-32739399D01*
X129311185Y-31723929D01*
X129028385Y-31397299D01*
X129383427Y-31042165D01*
X129461259Y-30964362D01*
X129526920Y-30898897D01*
X129581507Y-30844769D01*
X129626120Y-30800976D01*
X129661854Y-30766518D01*
X129689809Y-30740393D01*
X129711083Y-30721600D01*
X129726772Y-30709139D01*
X129737977Y-30702007D01*
X129745793Y-30699205D01*
X129751319Y-30699730D01*
X129755653Y-30702582D01*
X129755750Y-30702669D01*
X129762944Y-30707854D01*
X129770942Y-30708673D01*
X129781982Y-30703487D01*
X129798306Y-30690660D01*
X129822153Y-30668554D01*
X129855761Y-30635531D01*
X129878249Y-30613091D01*
X129983466Y-30507873D01*
X129871368Y-30394593D01*
X129765405Y-30500256D01*
X129725555Y-30540325D01*
X129697650Y-30569483D01*
X129680063Y-30589850D01*
X129671171Y-30603548D01*
X129669348Y-30612699D01*
X129672969Y-30619424D01*
X129673608Y-30620085D01*
X129675539Y-30624208D01*
X129674165Y-30630726D01*
X129668535Y-30640664D01*
X129657698Y-30655047D01*
X129640706Y-30674901D01*
X129616608Y-30701251D01*
X129584454Y-30735123D01*
X129543293Y-30777542D01*
X129492176Y-30829532D01*
X129430153Y-30892120D01*
X129356273Y-30966331D01*
X129307280Y-31015440D01*
X128926785Y-31396630D01*
X129081355Y-31574313D01*
X129235926Y-31751995D01*
X129235926Y-32697355D01*
X129199917Y-32684949D01*
X129168589Y-32676797D01*
X129130365Y-32670320D01*
X129112899Y-32668455D01*
X129061889Y-32664367D01*
X129059445Y-32227559D01*
X129057001Y-31790750D01*
X128892635Y-31593690D01*
X128849459Y-31541747D01*
X128810513Y-31494549D01*
X128777352Y-31454008D01*
X128751529Y-31422036D01*
X128734600Y-31400545D01*
X128728120Y-31391447D01*
X128728097Y-31391340D01*
X128734500Y-31383905D01*
X128753032Y-31364231D01*
X128782588Y-31333453D01*
X128822062Y-31292705D01*
X128870348Y-31243123D01*
X128926342Y-31185839D01*
X128988938Y-31121989D01*
X129057030Y-31052707D01*
X129129512Y-30979127D01*
X129152455Y-30955872D01*
X129237811Y-30869411D01*
X129310960Y-30795433D01*
X129372894Y-30733012D01*
X129424603Y-30681222D01*
X129467078Y-30639136D01*
X129501309Y-30605827D01*
X129528288Y-30580369D01*
X129549006Y-30561835D01*
X129564453Y-30549300D01*
X129575620Y-30541836D01*
X129583498Y-30538518D01*
X129589077Y-30538418D01*
X129593350Y-30540610D01*
X129595044Y-30542037D01*
X129602395Y-30547612D01*
X129610209Y-30549001D01*
X129620746Y-30544578D01*
X129636265Y-30532712D01*
X129659026Y-30511774D01*
X129691288Y-30480137D01*
X129718323Y-30453165D01*
X129823541Y-30347947D01*
X129767491Y-30291307D01*
X129711442Y-30234667D01*
X129605546Y-30340263D01*
X129560902Y-30385929D01*
X129529674Y-30420477D01*
X129512158Y-30443555D01*
X129508651Y-30454809D01*
X129508899Y-30455107D01*
X129517523Y-30469368D01*
X129518148Y-30473170D01*
X129511677Y-30481165D01*
X129492990Y-30501351D01*
X129463173Y-30532617D01*
X129423312Y-30573850D01*
X129374494Y-30623937D01*
X129317806Y-30681764D01*
X129254333Y-30746219D01*
X129185162Y-30816190D01*
X129111380Y-30890563D01*
X129071296Y-30930865D01*
X128995521Y-31007132D01*
X128923791Y-31079615D01*
X128857191Y-31147199D01*
X128796811Y-31208765D01*
X128743735Y-31263198D01*
X128699052Y-31309381D01*
X128663849Y-31346196D01*
X128639212Y-31372527D01*
X128626229Y-31387257D01*
X128624444Y-31389964D01*
X128630321Y-31399477D01*
X128646937Y-31421384D01*
X128672771Y-31453807D01*
X128706300Y-31494868D01*
X128746005Y-31542691D01*
X128790362Y-31595396D01*
X128802814Y-31610073D01*
X128981184Y-31819963D01*
X128981555Y-32250226D01*
X128981926Y-32680488D01*
X128948454Y-32694474D01*
X128917256Y-32709832D01*
X128888023Y-32727660D01*
X128887169Y-32728264D01*
X128859355Y-32748069D01*
X128767770Y-32699069D01*
X128582280Y-32594940D01*
X128411912Y-32488629D01*
X128252980Y-32377427D01*
X128101799Y-32258621D01*
X127954684Y-32129501D01*
X127829047Y-32008582D01*
X127648659Y-31816416D01*
X127485034Y-31617133D01*
X127337313Y-31409390D01*
X127204640Y-31191844D01*
X127086157Y-30963152D01*
X126981007Y-30721970D01*
X126940802Y-30617136D01*
X126919940Y-30557333D01*
X126897952Y-30488547D01*
X126875586Y-30413687D01*
X126853592Y-30335664D01*
X126832718Y-30257388D01*
X126813712Y-30181768D01*
X126797323Y-30111714D01*
X126784301Y-30050136D01*
X126775393Y-29999944D01*
X126771349Y-29964049D01*
X126771185Y-29957906D01*
X126771725Y-29948165D01*
X126775091Y-29940721D01*
X126783899Y-29934767D01*
X126800764Y-29929496D01*
X126828302Y-29924101D01*
X126869131Y-29917775D01*
X126925866Y-29909711D01*
X126928759Y-29909305D01*
X126972658Y-29902707D01*
X127008857Y-29896429D01*
X127033800Y-29891151D01*
X127043935Y-29887550D01*
X127044000Y-29887346D01*
X127039001Y-29878478D01*
X127024735Y-29855607D01*
X127002302Y-29820434D01*
X126972797Y-29774660D01*
X126937320Y-29719987D01*
X126896967Y-29658114D01*
X126852836Y-29590742D01*
X126837011Y-29566649D01*
X126630023Y-29251741D01*
X126829474Y-29249196D01*
X126899611Y-29248567D01*
X126952894Y-29248759D01*
X126991268Y-29249862D01*
X127016681Y-29251963D01*
X127031079Y-29255152D01*
X127036009Y-29258604D01*
X127044000Y-29269612D01*
X127061701Y-29292618D01*
X127087029Y-29324959D01*
X127117901Y-29363973D01*
X127144676Y-29397556D01*
X127246259Y-29524556D01*
X127315390Y-29527338D01*
X127353186Y-29527678D01*
X127375626Y-29525198D01*
X127381242Y-29520618D01*
X127374736Y-29510912D01*
X127358138Y-29488548D01*
X127333044Y-29455614D01*
X127301055Y-29414192D01*
X127263768Y-29366367D01*
X127229412Y-29322632D01*
X127080862Y-29134148D01*
X126864875Y-29134148D01*
X126803417Y-29133855D01*
X126748791Y-29133034D01*
X126703620Y-29131770D01*
X126670527Y-29130149D01*
X126652135Y-29128256D01*
X126649235Y-29127093D01*
X126654771Y-29118273D01*
X126670430Y-29096048D01*
X126695019Y-29062044D01*
X126727345Y-29017888D01*
X126766215Y-28965207D01*
X126810435Y-28905626D01*
X126858815Y-28840774D01*
X126878632Y-28814296D01*
X126928182Y-28748028D01*
X126973943Y-28686582D01*
X127014741Y-28631552D01*
X127049400Y-28584535D01*
X127076747Y-28547125D01*
X127095607Y-28520919D01*
X127104805Y-28507511D01*
X127105515Y-28506088D01*
X127095989Y-28503679D01*
X127071244Y-28498715D01*
X127034602Y-28491829D01*
X126989385Y-28483655D01*
X126968346Y-28479939D01*
X126920288Y-28471292D01*
X126879207Y-28463490D01*
X126848488Y-28457206D01*
X126831516Y-28453117D01*
X126829304Y-28452219D01*
X126829744Y-28441329D01*
X126835398Y-28415437D01*
X126845411Y-28377350D01*
X126858929Y-28329874D01*
X126875097Y-28275815D01*
X126893060Y-28217982D01*
X126911963Y-28159179D01*
X126930951Y-28102214D01*
X126949169Y-28049895D01*
X126964532Y-28008232D01*
X127029973Y-27849638D01*
X127105968Y-27686977D01*
X127189422Y-27526271D01*
X127277242Y-27373543D01*
X127347946Y-27262074D01*
X127369009Y-27230503D01*
X127385843Y-27205418D01*
X127395944Y-27190542D01*
X127397650Y-27188141D01*
X127407249Y-27188615D01*
X127433589Y-27191339D01*
X127474762Y-27196079D01*
X127528860Y-27202604D01*
X127593972Y-27210679D01*
X127668191Y-27220073D01*
X127749608Y-27230553D01*
X127806576Y-27237980D01*
X127891686Y-27249062D01*
X127970841Y-27259237D01*
X128042136Y-27268269D01*
X128103665Y-27275922D01*
X128153523Y-27281963D01*
X128189805Y-27286154D01*
X128210605Y-27288262D01*
X128214928Y-27288395D01*
X128212386Y-27279222D01*
X128204261Y-27253994D01*
X128191135Y-27214429D01*
X128173589Y-27162249D01*
X128152203Y-27099172D01*
X128127560Y-27026920D01*
X128100241Y-26947212D01*
X128070827Y-26861770D01*
X128067749Y-26852852D01*
X128037867Y-26766165D01*
X128009759Y-26684427D01*
X127984046Y-26609453D01*
X127961348Y-26543060D01*
X127942284Y-26487066D01*
X127927475Y-26443287D01*
X127917540Y-26413541D01*
X127913099Y-26399643D01*
X127913018Y-26399340D01*
X127913517Y-26395230D01*
X127918668Y-26393846D01*
X127929833Y-26395713D01*
X127948377Y-26401356D01*
X127975664Y-26411301D01*
X128013056Y-26426073D01*
X128061919Y-26446198D01*
X128123615Y-26472201D01*
X128199508Y-26504607D01*
X128290963Y-26543943D01*
X128313286Y-26553571D01*
X128395273Y-26588821D01*
X128471883Y-26621527D01*
X128541409Y-26650977D01*
X128602143Y-26676458D01*
X128652380Y-26697259D01*
X128690411Y-26712667D01*
X128714529Y-26721971D01*
X128723007Y-26724499D01*
X128722268Y-26714691D01*
X128718545Y-26688208D01*
X128712143Y-26646898D01*
X128703363Y-26592612D01*
X128692510Y-26527198D01*
X128679885Y-26452508D01*
X128665792Y-26370390D01*
X128652403Y-26293375D01*
X128637250Y-26206284D01*
X128623260Y-26125026D01*
X128610742Y-26051445D01*
X128600000Y-25987386D01*
X128591342Y-25934693D01*
X128585075Y-25895212D01*
X128581506Y-25870786D01*
X128580841Y-25863208D01*
X128589307Y-25867220D01*
X128612401Y-25879918D01*
X128648563Y-25900403D01*
X128696232Y-25927773D01*
X128753848Y-25961128D01*
X128819849Y-25999567D01*
X128892676Y-26042190D01*
X128970768Y-26088095D01*
X128982483Y-26094998D01*
X129061179Y-26141325D01*
X129134793Y-26184544D01*
X129201771Y-26223751D01*
X129260557Y-26258040D01*
X129309595Y-26286508D01*
X129347332Y-26308248D01*
X129372210Y-26322356D01*
X129382674Y-26327927D01*
X129382903Y-26327972D01*
X129382640Y-26318495D01*
X129381147Y-26292093D01*
X129378546Y-26250607D01*
X129374959Y-26195877D01*
X129370510Y-26129744D01*
X129365320Y-26054050D01*
X129359511Y-25970635D01*
X129353394Y-25883975D01*
X129347134Y-25794756D01*
X129341440Y-25711413D01*
X129336425Y-25635794D01*
X129332206Y-25569749D01*
X129328898Y-25515129D01*
X129326617Y-25473783D01*
X129325478Y-25447562D01*
X129325573Y-25438328D01*
X129333847Y-25442582D01*
X129354970Y-25456499D01*
X129386695Y-25478514D01*
X129426776Y-25507057D01*
X129472967Y-25540562D01*
X129491115Y-25553872D01*
X129539538Y-25588877D01*
X129583328Y-25619377D01*
X129620099Y-25643800D01*
X129647463Y-25660579D01*
X129663032Y-25668144D01*
X129665255Y-25668324D01*
X129682598Y-25663704D01*
X129714785Y-25656939D01*
X129758056Y-25648696D01*
X129808653Y-25639641D01*
X129862815Y-25630439D01*
X129916784Y-25621757D01*
X129966800Y-25614261D01*
X129983814Y-25611886D01*
X130173931Y-25591728D01*
X130371796Y-25581464D01*
X130573119Y-25580934D01*
X130773612Y-25589981D01*
X130968985Y-25608447D01*
X131154949Y-25636171D01*
X131270277Y-25659427D01*
X131303751Y-25667512D01*
X131322794Y-25674529D01*
X131331442Y-25683027D01*
X131333727Y-25695550D01*
X131333777Y-25699523D01*
X131341338Y-25749865D01*
X131362369Y-25805316D01*
X131394397Y-25861001D01*
X131434946Y-25912042D01*
X131448738Y-25926043D01*
X131504465Y-25970209D01*
X131565613Y-25999357D01*
X131636167Y-26015120D01*
X131674037Y-26018387D01*
X131748875Y-26017171D01*
X131813215Y-26004170D01*
X131872359Y-25977814D01*
X131920258Y-25945475D01*
X131978743Y-25889891D01*
X132021554Y-25824556D01*
X132049520Y-25748125D01*
X132054170Y-25727710D01*
X132061412Y-25688081D01*
X132063867Y-25657726D01*
X132061533Y-25627722D01*
X132054407Y-25589148D01*
X132054122Y-25587779D01*
X132028649Y-25506460D01*
X131988523Y-25436932D01*
X131933583Y-25378988D01*
X131863669Y-25332423D01*
X131851535Y-25326237D01*
X131826306Y-25314702D01*
X131803492Y-25307245D01*
X131777805Y-25302995D01*
X131743956Y-25301080D01*
X131696656Y-25300630D01*
X131695963Y-25300630D01*
X131648431Y-25301070D01*
X131614424Y-25302968D01*
X131588663Y-25307189D01*
X131565867Y-25314598D01*
X131540756Y-25326062D01*
X131540721Y-25326080D01*
X131503497Y-25347857D01*
X131465899Y-25375207D01*
X131448683Y-25390233D01*
X131408405Y-25428936D01*
X131260554Y-25400159D01*
X131018660Y-25360949D01*
X130772269Y-25336207D01*
X130524483Y-25325943D01*
X130278405Y-25330168D01*
X130037136Y-25348891D01*
X129803779Y-25382123D01*
X129734370Y-25395205D01*
X129726330Y-25394706D01*
X129713967Y-25390109D01*
X129695989Y-25380542D01*
X129671104Y-25365137D01*
X129638021Y-25343022D01*
X129595447Y-25313328D01*
X129542093Y-25275185D01*
X129476665Y-25227721D01*
X129397872Y-25170068D01*
X129372185Y-25151206D01*
X129302135Y-25099804D01*
X129236901Y-25052067D01*
X129178011Y-25009103D01*
X129126991Y-24972020D01*
X129085369Y-24941926D01*
X129054674Y-24919930D01*
X129036432Y-24907140D01*
X129031836Y-24904260D01*
X129032122Y-24913704D01*
G37*
X129032122Y-24913704D02*
X129033635Y-24940136D01*
X129036255Y-24981778D01*
X129039864Y-25036852D01*
X129044344Y-25103579D01*
X129049576Y-25180182D01*
X129055442Y-25264881D01*
X129061823Y-25355898D01*
X129063456Y-25379025D01*
X129069892Y-25471443D01*
X129075730Y-25558082D01*
X129080863Y-25637149D01*
X129085186Y-25706850D01*
X129088589Y-25765391D01*
X129090966Y-25810980D01*
X129092210Y-25841821D01*
X129092214Y-25856123D01*
X129092018Y-25856895D01*
X129083223Y-25853196D01*
X129059770Y-25840758D01*
X129023177Y-25820449D01*
X128974965Y-25793138D01*
X128916652Y-25759693D01*
X128849757Y-25720982D01*
X128775800Y-25677874D01*
X128696298Y-25631237D01*
X128663271Y-25611781D01*
X128581986Y-25563872D01*
X128505694Y-25518978D01*
X128435911Y-25477983D01*
X128374150Y-25441774D01*
X128321927Y-25411237D01*
X128280757Y-25387259D01*
X128252152Y-25370727D01*
X128237630Y-25362527D01*
X128236104Y-25361778D01*
X128237031Y-25370753D01*
X128240935Y-25396519D01*
X128247523Y-25437341D01*
X128256505Y-25491479D01*
X128267589Y-25557198D01*
X128280483Y-25632760D01*
X128294897Y-25716428D01*
X128310537Y-25806465D01*
X128315360Y-25834087D01*
X128331329Y-25925785D01*
X128346177Y-26011717D01*
X128359608Y-26090132D01*
X128371328Y-26159280D01*
X128381045Y-26217409D01*
X128388462Y-26262770D01*
X128393286Y-26293612D01*
X128395223Y-26308185D01*
X128395203Y-26309118D01*
X128386302Y-26306032D01*
X128361749Y-26296155D01*
X128323159Y-26280171D01*
X128272148Y-26258759D01*
X128210331Y-26232604D01*
X128139323Y-26202386D01*
X128060739Y-26168787D01*
X127976195Y-26132490D01*
X127943197Y-26118284D01*
X127856780Y-26081174D01*
X127775657Y-26046569D01*
X127701451Y-26015144D01*
X127635784Y-25987575D01*
X127580280Y-25964540D01*
X127536560Y-25946713D01*
X127506247Y-25934772D01*
X127490964Y-25929391D01*
X127489439Y-25929203D01*
X127491599Y-25938660D01*
X127499389Y-25964331D01*
X127512287Y-26004647D01*
X127529775Y-26058041D01*
X127551330Y-26122943D01*
X127576433Y-26197786D01*
X127604563Y-26281003D01*
X127635200Y-26371025D01*
X127664889Y-26457741D01*
X127697374Y-26552545D01*
X127727877Y-26641918D01*
X127755872Y-26724299D01*
X127780835Y-26798126D01*
X127802240Y-26861838D01*
X127819564Y-26913874D01*
X127832282Y-26952674D01*
X127839869Y-26976676D01*
X127841869Y-26984344D01*
X127832164Y-26983805D01*
X127806132Y-26981052D01*
X127766093Y-26976366D01*
X127714368Y-26970027D01*
X127653278Y-26962317D01*
X127585145Y-26953516D01*
X127561468Y-26950414D01*
X127284011Y-26913945D01*
X127267500Y-26935139D01*
X127256871Y-26949738D01*
X127237789Y-26976876D01*
X127212362Y-27013520D01*
X127182697Y-27056637D01*
X127158019Y-27092741D01*
X127032322Y-27288629D01*
X126920992Y-27487171D01*
X126821168Y-27693771D01*
X126749230Y-27864544D01*
X126726666Y-27923603D01*
X126702493Y-27990672D01*
X126677867Y-28062176D01*
X126653941Y-28134535D01*
X126631872Y-28204173D01*
X126612813Y-28267512D01*
X126597921Y-28320974D01*
X126588348Y-28360983D01*
X126587398Y-28365844D01*
X126580588Y-28389893D01*
X126572130Y-28404446D01*
X126570090Y-28405758D01*
X126557423Y-28405643D01*
X126529889Y-28402661D01*
X126491133Y-28397291D01*
X126444802Y-28390008D01*
X126427814Y-28387154D01*
X126380605Y-28379234D01*
X126340608Y-28372793D01*
X126311179Y-28368349D01*
X126295677Y-28366425D01*
X126294141Y-28366457D01*
X126296888Y-28375356D01*
X126305552Y-28400024D01*
X126319457Y-28438607D01*
X126337924Y-28489253D01*
X126360278Y-28550108D01*
X126385841Y-28619320D01*
X126413936Y-28695035D01*
X126426963Y-28730032D01*
X126456336Y-28808952D01*
X126483820Y-28882961D01*
X126508683Y-28950070D01*
X126530190Y-29008292D01*
X126547607Y-29055638D01*
X126560201Y-29090121D01*
X126567238Y-29109752D01*
X126568326Y-29112982D01*
X126574897Y-29134148D01*
X126421393Y-29133882D01*
X126267889Y-29133615D01*
X126180024Y-28997474D01*
X126092160Y-28861333D01*
X126026370Y-28861333D01*
X125994488Y-28862346D01*
X125972091Y-28865013D01*
X125963641Y-28868778D01*
X125963716Y-28869149D01*
X125969555Y-28878931D01*
X125984242Y-28902146D01*
X126006298Y-28936497D01*
X126034245Y-28979689D01*
X126066605Y-29029426D01*
X126087757Y-29061810D01*
X126208662Y-29246654D01*
X126395821Y-29249197D01*
X126582981Y-29251741D01*
X126395969Y-29632741D01*
X126357509Y-29711180D01*
X126321769Y-29784236D01*
X126289568Y-29850218D01*
X126261730Y-29907437D01*
X126239074Y-29954201D01*
X126222422Y-29988821D01*
X126212596Y-30009606D01*
X126210201Y-30015137D01*
X126219413Y-30014267D01*
X126244038Y-30010955D01*
X126280898Y-30005655D01*
X126326815Y-29998819D01*
X126357259Y-29994189D01*
X126407490Y-29986530D01*
X126450960Y-29979974D01*
X126484365Y-29975013D01*
X126504403Y-29972141D01*
X126508601Y-29971626D01*
X126512443Y-29980157D01*
X126518357Y-30003318D01*
X126525411Y-30037165D01*
X126530186Y-30063130D01*
X126582929Y-30311863D01*
X126653591Y-30559896D01*
X126741309Y-30805349D01*
X126845225Y-31046341D01*
X126964477Y-31280992D01*
X127098206Y-31507421D01*
X127245552Y-31723749D01*
X127355400Y-31867000D01*
X127528517Y-32067687D01*
X127715748Y-32257667D01*
X127915360Y-32435508D01*
X128125619Y-32599778D01*
X128344793Y-32749044D01*
X128571147Y-32881875D01*
X128606258Y-32900634D01*
X128722531Y-32961952D01*
X128724283Y-33035365D01*
X128734894Y-33119238D01*
X128761744Y-33195469D01*
X128803597Y-33262315D01*
X128859217Y-33318037D01*
X128927366Y-33360894D01*
X128967346Y-33377519D01*
X129012366Y-33388459D01*
X129065890Y-33394184D01*
X129120848Y-33394556D01*
X129170171Y-33389436D01*
X129198810Y-33382058D01*
X129277970Y-33343871D01*
X129344020Y-33292743D01*
X129396156Y-33229390D01*
X129421256Y-33184037D01*
X129433779Y-33155030D01*
X129441598Y-33129223D01*
X129445782Y-33100494D01*
X129447404Y-33062725D01*
X129447592Y-33033519D01*
X129447060Y-32988211D01*
X129444687Y-32955493D01*
X129439309Y-32929154D01*
X129429759Y-32902981D01*
X129418481Y-32878296D01*
X129397179Y-32840114D01*
X129371213Y-32802624D01*
X129350277Y-32778274D01*
X129311185Y-32739399D01*
X129311185Y-31723929D01*
X129028385Y-31397299D01*
X129383427Y-31042165D01*
X129461259Y-30964362D01*
X129526920Y-30898897D01*
X129581507Y-30844769D01*
X129626120Y-30800976D01*
X129661854Y-30766518D01*
X129689809Y-30740393D01*
X129711083Y-30721600D01*
X129726772Y-30709139D01*
X129737977Y-30702007D01*
X129745793Y-30699205D01*
X129751319Y-30699730D01*
X129755653Y-30702582D01*
X129755750Y-30702669D01*
X129762944Y-30707854D01*
X129770942Y-30708673D01*
X129781982Y-30703487D01*
X129798306Y-30690660D01*
X129822153Y-30668554D01*
X129855761Y-30635531D01*
X129878249Y-30613091D01*
X129983466Y-30507873D01*
X129871368Y-30394593D01*
X129765405Y-30500256D01*
X129725555Y-30540325D01*
X129697650Y-30569483D01*
X129680063Y-30589850D01*
X129671171Y-30603548D01*
X129669348Y-30612699D01*
X129672969Y-30619424D01*
X129673608Y-30620085D01*
X129675539Y-30624208D01*
X129674165Y-30630726D01*
X129668535Y-30640664D01*
X129657698Y-30655047D01*
X129640706Y-30674901D01*
X129616608Y-30701251D01*
X129584454Y-30735123D01*
X129543293Y-30777542D01*
X129492176Y-30829532D01*
X129430153Y-30892120D01*
X129356273Y-30966331D01*
X129307280Y-31015440D01*
X128926785Y-31396630D01*
X129081355Y-31574313D01*
X129235926Y-31751995D01*
X129235926Y-32697355D01*
X129199917Y-32684949D01*
X129168589Y-32676797D01*
X129130365Y-32670320D01*
X129112899Y-32668455D01*
X129061889Y-32664367D01*
X129059445Y-32227559D01*
X129057001Y-31790750D01*
X128892635Y-31593690D01*
X128849459Y-31541747D01*
X128810513Y-31494549D01*
X128777352Y-31454008D01*
X128751529Y-31422036D01*
X128734600Y-31400545D01*
X128728120Y-31391447D01*
X128728097Y-31391340D01*
X128734500Y-31383905D01*
X128753032Y-31364231D01*
X128782588Y-31333453D01*
X128822062Y-31292705D01*
X128870348Y-31243123D01*
X128926342Y-31185839D01*
X128988938Y-31121989D01*
X129057030Y-31052707D01*
X129129512Y-30979127D01*
X129152455Y-30955872D01*
X129237811Y-30869411D01*
X129310960Y-30795433D01*
X129372894Y-30733012D01*
X129424603Y-30681222D01*
X129467078Y-30639136D01*
X129501309Y-30605827D01*
X129528288Y-30580369D01*
X129549006Y-30561835D01*
X129564453Y-30549300D01*
X129575620Y-30541836D01*
X129583498Y-30538518D01*
X129589077Y-30538418D01*
X129593350Y-30540610D01*
X129595044Y-30542037D01*
X129602395Y-30547612D01*
X129610209Y-30549001D01*
X129620746Y-30544578D01*
X129636265Y-30532712D01*
X129659026Y-30511774D01*
X129691288Y-30480137D01*
X129718323Y-30453165D01*
X129823541Y-30347947D01*
X129767491Y-30291307D01*
X129711442Y-30234667D01*
X129605546Y-30340263D01*
X129560902Y-30385929D01*
X129529674Y-30420477D01*
X129512158Y-30443555D01*
X129508651Y-30454809D01*
X129508899Y-30455107D01*
X129517523Y-30469368D01*
X129518148Y-30473170D01*
X129511677Y-30481165D01*
X129492990Y-30501351D01*
X129463173Y-30532617D01*
X129423312Y-30573850D01*
X129374494Y-30623937D01*
X129317806Y-30681764D01*
X129254333Y-30746219D01*
X129185162Y-30816190D01*
X129111380Y-30890563D01*
X129071296Y-30930865D01*
X128995521Y-31007132D01*
X128923791Y-31079615D01*
X128857191Y-31147199D01*
X128796811Y-31208765D01*
X128743735Y-31263198D01*
X128699052Y-31309381D01*
X128663849Y-31346196D01*
X128639212Y-31372527D01*
X128626229Y-31387257D01*
X128624444Y-31389964D01*
X128630321Y-31399477D01*
X128646937Y-31421384D01*
X128672771Y-31453807D01*
X128706300Y-31494868D01*
X128746005Y-31542691D01*
X128790362Y-31595396D01*
X128802814Y-31610073D01*
X128981184Y-31819963D01*
X128981555Y-32250226D01*
X128981926Y-32680488D01*
X128948454Y-32694474D01*
X128917256Y-32709832D01*
X128888023Y-32727660D01*
X128887169Y-32728264D01*
X128859355Y-32748069D01*
X128767770Y-32699069D01*
X128582280Y-32594940D01*
X128411912Y-32488629D01*
X128252980Y-32377427D01*
X128101799Y-32258621D01*
X127954684Y-32129501D01*
X127829047Y-32008582D01*
X127648659Y-31816416D01*
X127485034Y-31617133D01*
X127337313Y-31409390D01*
X127204640Y-31191844D01*
X127086157Y-30963152D01*
X126981007Y-30721970D01*
X126940802Y-30617136D01*
X126919940Y-30557333D01*
X126897952Y-30488547D01*
X126875586Y-30413687D01*
X126853592Y-30335664D01*
X126832718Y-30257388D01*
X126813712Y-30181768D01*
X126797323Y-30111714D01*
X126784301Y-30050136D01*
X126775393Y-29999944D01*
X126771349Y-29964049D01*
X126771185Y-29957906D01*
X126771725Y-29948165D01*
X126775091Y-29940721D01*
X126783899Y-29934767D01*
X126800764Y-29929496D01*
X126828302Y-29924101D01*
X126869131Y-29917775D01*
X126925866Y-29909711D01*
X126928759Y-29909305D01*
X126972658Y-29902707D01*
X127008857Y-29896429D01*
X127033800Y-29891151D01*
X127043935Y-29887550D01*
X127044000Y-29887346D01*
X127039001Y-29878478D01*
X127024735Y-29855607D01*
X127002302Y-29820434D01*
X126972797Y-29774660D01*
X126937320Y-29719987D01*
X126896967Y-29658114D01*
X126852836Y-29590742D01*
X126837011Y-29566649D01*
X126630023Y-29251741D01*
X126829474Y-29249196D01*
X126899611Y-29248567D01*
X126952894Y-29248759D01*
X126991268Y-29249862D01*
X127016681Y-29251963D01*
X127031079Y-29255152D01*
X127036009Y-29258604D01*
X127044000Y-29269612D01*
X127061701Y-29292618D01*
X127087029Y-29324959D01*
X127117901Y-29363973D01*
X127144676Y-29397556D01*
X127246259Y-29524556D01*
X127315390Y-29527338D01*
X127353186Y-29527678D01*
X127375626Y-29525198D01*
X127381242Y-29520618D01*
X127374736Y-29510912D01*
X127358138Y-29488548D01*
X127333044Y-29455614D01*
X127301055Y-29414192D01*
X127263768Y-29366367D01*
X127229412Y-29322632D01*
X127080862Y-29134148D01*
X126864875Y-29134148D01*
X126803417Y-29133855D01*
X126748791Y-29133034D01*
X126703620Y-29131770D01*
X126670527Y-29130149D01*
X126652135Y-29128256D01*
X126649235Y-29127093D01*
X126654771Y-29118273D01*
X126670430Y-29096048D01*
X126695019Y-29062044D01*
X126727345Y-29017888D01*
X126766215Y-28965207D01*
X126810435Y-28905626D01*
X126858815Y-28840774D01*
X126878632Y-28814296D01*
X126928182Y-28748028D01*
X126973943Y-28686582D01*
X127014741Y-28631552D01*
X127049400Y-28584535D01*
X127076747Y-28547125D01*
X127095607Y-28520919D01*
X127104805Y-28507511D01*
X127105515Y-28506088D01*
X127095989Y-28503679D01*
X127071244Y-28498715D01*
X127034602Y-28491829D01*
X126989385Y-28483655D01*
X126968346Y-28479939D01*
X126920288Y-28471292D01*
X126879207Y-28463490D01*
X126848488Y-28457206D01*
X126831516Y-28453117D01*
X126829304Y-28452219D01*
X126829744Y-28441329D01*
X126835398Y-28415437D01*
X126845411Y-28377350D01*
X126858929Y-28329874D01*
X126875097Y-28275815D01*
X126893060Y-28217982D01*
X126911963Y-28159179D01*
X126930951Y-28102214D01*
X126949169Y-28049895D01*
X126964532Y-28008232D01*
X127029973Y-27849638D01*
X127105968Y-27686977D01*
X127189422Y-27526271D01*
X127277242Y-27373543D01*
X127347946Y-27262074D01*
X127369009Y-27230503D01*
X127385843Y-27205418D01*
X127395944Y-27190542D01*
X127397650Y-27188141D01*
X127407249Y-27188615D01*
X127433589Y-27191339D01*
X127474762Y-27196079D01*
X127528860Y-27202604D01*
X127593972Y-27210679D01*
X127668191Y-27220073D01*
X127749608Y-27230553D01*
X127806576Y-27237980D01*
X127891686Y-27249062D01*
X127970841Y-27259237D01*
X128042136Y-27268269D01*
X128103665Y-27275922D01*
X128153523Y-27281963D01*
X128189805Y-27286154D01*
X128210605Y-27288262D01*
X128214928Y-27288395D01*
X128212386Y-27279222D01*
X128204261Y-27253994D01*
X128191135Y-27214429D01*
X128173589Y-27162249D01*
X128152203Y-27099172D01*
X128127560Y-27026920D01*
X128100241Y-26947212D01*
X128070827Y-26861770D01*
X128067749Y-26852852D01*
X128037867Y-26766165D01*
X128009759Y-26684427D01*
X127984046Y-26609453D01*
X127961348Y-26543060D01*
X127942284Y-26487066D01*
X127927475Y-26443287D01*
X127917540Y-26413541D01*
X127913099Y-26399643D01*
X127913018Y-26399340D01*
X127913517Y-26395230D01*
X127918668Y-26393846D01*
X127929833Y-26395713D01*
X127948377Y-26401356D01*
X127975664Y-26411301D01*
X128013056Y-26426073D01*
X128061919Y-26446198D01*
X128123615Y-26472201D01*
X128199508Y-26504607D01*
X128290963Y-26543943D01*
X128313286Y-26553571D01*
X128395273Y-26588821D01*
X128471883Y-26621527D01*
X128541409Y-26650977D01*
X128602143Y-26676458D01*
X128652380Y-26697259D01*
X128690411Y-26712667D01*
X128714529Y-26721971D01*
X128723007Y-26724499D01*
X128722268Y-26714691D01*
X128718545Y-26688208D01*
X128712143Y-26646898D01*
X128703363Y-26592612D01*
X128692510Y-26527198D01*
X128679885Y-26452508D01*
X128665792Y-26370390D01*
X128652403Y-26293375D01*
X128637250Y-26206284D01*
X128623260Y-26125026D01*
X128610742Y-26051445D01*
X128600000Y-25987386D01*
X128591342Y-25934693D01*
X128585075Y-25895212D01*
X128581506Y-25870786D01*
X128580841Y-25863208D01*
X128589307Y-25867220D01*
X128612401Y-25879918D01*
X128648563Y-25900403D01*
X128696232Y-25927773D01*
X128753848Y-25961128D01*
X128819849Y-25999567D01*
X128892676Y-26042190D01*
X128970768Y-26088095D01*
X128982483Y-26094998D01*
X129061179Y-26141325D01*
X129134793Y-26184544D01*
X129201771Y-26223751D01*
X129260557Y-26258040D01*
X129309595Y-26286508D01*
X129347332Y-26308248D01*
X129372210Y-26322356D01*
X129382674Y-26327927D01*
X129382903Y-26327972D01*
X129382640Y-26318495D01*
X129381147Y-26292093D01*
X129378546Y-26250607D01*
X129374959Y-26195877D01*
X129370510Y-26129744D01*
X129365320Y-26054050D01*
X129359511Y-25970635D01*
X129353394Y-25883975D01*
X129347134Y-25794756D01*
X129341440Y-25711413D01*
X129336425Y-25635794D01*
X129332206Y-25569749D01*
X129328898Y-25515129D01*
X129326617Y-25473783D01*
X129325478Y-25447562D01*
X129325573Y-25438328D01*
X129333847Y-25442582D01*
X129354970Y-25456499D01*
X129386695Y-25478514D01*
X129426776Y-25507057D01*
X129472967Y-25540562D01*
X129491115Y-25553872D01*
X129539538Y-25588877D01*
X129583328Y-25619377D01*
X129620099Y-25643800D01*
X129647463Y-25660579D01*
X129663032Y-25668144D01*
X129665255Y-25668324D01*
X129682598Y-25663704D01*
X129714785Y-25656939D01*
X129758056Y-25648696D01*
X129808653Y-25639641D01*
X129862815Y-25630439D01*
X129916784Y-25621757D01*
X129966800Y-25614261D01*
X129983814Y-25611886D01*
X130173931Y-25591728D01*
X130371796Y-25581464D01*
X130573119Y-25580934D01*
X130773612Y-25589981D01*
X130968985Y-25608447D01*
X131154949Y-25636171D01*
X131270277Y-25659427D01*
X131303751Y-25667512D01*
X131322794Y-25674529D01*
X131331442Y-25683027D01*
X131333727Y-25695550D01*
X131333777Y-25699523D01*
X131341338Y-25749865D01*
X131362369Y-25805316D01*
X131394397Y-25861001D01*
X131434946Y-25912042D01*
X131448738Y-25926043D01*
X131504465Y-25970209D01*
X131565613Y-25999357D01*
X131636167Y-26015120D01*
X131674037Y-26018387D01*
X131748875Y-26017171D01*
X131813215Y-26004170D01*
X131872359Y-25977814D01*
X131920258Y-25945475D01*
X131978743Y-25889891D01*
X132021554Y-25824556D01*
X132049520Y-25748125D01*
X132054170Y-25727710D01*
X132061412Y-25688081D01*
X132063867Y-25657726D01*
X132061533Y-25627722D01*
X132054407Y-25589148D01*
X132054122Y-25587779D01*
X132028649Y-25506460D01*
X131988523Y-25436932D01*
X131933583Y-25378988D01*
X131863669Y-25332423D01*
X131851535Y-25326237D01*
X131826306Y-25314702D01*
X131803492Y-25307245D01*
X131777805Y-25302995D01*
X131743956Y-25301080D01*
X131696656Y-25300630D01*
X131695963Y-25300630D01*
X131648431Y-25301070D01*
X131614424Y-25302968D01*
X131588663Y-25307189D01*
X131565867Y-25314598D01*
X131540756Y-25326062D01*
X131540721Y-25326080D01*
X131503497Y-25347857D01*
X131465899Y-25375207D01*
X131448683Y-25390233D01*
X131408405Y-25428936D01*
X131260554Y-25400159D01*
X131018660Y-25360949D01*
X130772269Y-25336207D01*
X130524483Y-25325943D01*
X130278405Y-25330168D01*
X130037136Y-25348891D01*
X129803779Y-25382123D01*
X129734370Y-25395205D01*
X129726330Y-25394706D01*
X129713967Y-25390109D01*
X129695989Y-25380542D01*
X129671104Y-25365137D01*
X129638021Y-25343022D01*
X129595447Y-25313328D01*
X129542093Y-25275185D01*
X129476665Y-25227721D01*
X129397872Y-25170068D01*
X129372185Y-25151206D01*
X129302135Y-25099804D01*
X129236901Y-25052067D01*
X129178011Y-25009103D01*
X129126991Y-24972020D01*
X129085369Y-24941926D01*
X129054674Y-24919930D01*
X129036432Y-24907140D01*
X129031836Y-24904260D01*
X129032122Y-24913704D01*
G36*
X133314113Y-26391078D02*
G01*
X133241522Y-26406516D01*
X133173055Y-26436254D01*
X133111199Y-26479778D01*
X133058442Y-26536571D01*
X133018975Y-26602427D01*
X133007434Y-26629248D01*
X133000113Y-26653942D01*
X132996087Y-26682172D01*
X132994430Y-26719598D01*
X132994185Y-26754074D01*
X132994739Y-26801241D01*
X132997018Y-26835272D01*
X133001948Y-26861828D01*
X133010454Y-26886570D01*
X133018975Y-26905722D01*
X133061631Y-26975878D01*
X133116614Y-27033384D01*
X133181507Y-27077124D01*
X133253891Y-27105985D01*
X133331350Y-27118852D01*
X133411467Y-27114612D01*
X133452435Y-27105540D01*
X133481815Y-27097973D01*
X133502869Y-27093822D01*
X133510312Y-27093781D01*
X133531829Y-27122622D01*
X133560730Y-27163866D01*
X133594596Y-27213857D01*
X133631005Y-27268940D01*
X133667539Y-27325458D01*
X133701776Y-27379757D01*
X133727603Y-27422000D01*
X133841111Y-27626495D01*
X133942570Y-27840554D01*
X134030885Y-28061123D01*
X134104958Y-28285144D01*
X134163694Y-28509562D01*
X134205995Y-28731319D01*
X134211954Y-28771963D01*
X134217508Y-28810368D01*
X134222687Y-28843745D01*
X134226522Y-28865893D01*
X134227034Y-28868389D01*
X134231617Y-28889556D01*
X133922181Y-28889556D01*
X134142343Y-29258796D01*
X134362505Y-29628037D01*
X134122845Y-29630548D01*
X133883185Y-29633058D01*
X133883185Y-29783259D01*
X134057222Y-29783259D01*
X134112095Y-29783621D01*
X134159851Y-29784626D01*
X134197564Y-29786157D01*
X134222309Y-29788094D01*
X134231159Y-29790315D01*
X134229362Y-29808614D01*
X134224676Y-29841618D01*
X134217748Y-29885552D01*
X134209223Y-29936643D01*
X134199750Y-29991116D01*
X134189974Y-30045196D01*
X134180542Y-30095110D01*
X134172100Y-30137082D01*
X134170319Y-30145439D01*
X134105482Y-30401263D01*
X134023349Y-30650426D01*
X133924488Y-30892163D01*
X133809472Y-31125704D01*
X133678872Y-31350281D01*
X133533258Y-31565128D01*
X133373201Y-31769476D01*
X133199273Y-31962557D01*
X133012044Y-32143603D01*
X132812085Y-32311848D01*
X132599967Y-32466522D01*
X132376262Y-32606859D01*
X132313394Y-32642500D01*
X132225270Y-32691351D01*
X132205181Y-32672478D01*
X132186034Y-32658548D01*
X132156536Y-32641384D01*
X132128676Y-32627386D01*
X132066794Y-32606789D01*
X131997150Y-32596912D01*
X131927267Y-32598252D01*
X131868209Y-32610144D01*
X131794128Y-32643087D01*
X131731003Y-32689787D01*
X131680071Y-32747892D01*
X131642569Y-32815047D01*
X131619735Y-32888900D01*
X131612806Y-32967097D01*
X131623019Y-33047285D01*
X131628178Y-33066629D01*
X131658953Y-33139484D01*
X131704001Y-33202302D01*
X131760856Y-33253644D01*
X131827055Y-33292071D01*
X131900133Y-33316144D01*
X131977626Y-33324424D01*
X132055011Y-33315932D01*
X132095714Y-33305849D01*
X132127474Y-33294348D01*
X132157907Y-33277966D01*
X132194631Y-33253241D01*
X132197688Y-33251070D01*
X132250592Y-33202576D01*
X132293347Y-33141589D01*
X132323584Y-33072745D01*
X132338931Y-33000682D01*
X132340370Y-32971921D01*
X132340370Y-32917973D01*
X132455538Y-32853450D01*
X132661389Y-32728992D01*
X132863442Y-32588939D01*
X133058897Y-32435657D01*
X133244951Y-32271515D01*
X133418803Y-32098880D01*
X133577650Y-31920121D01*
X133617130Y-31871704D01*
X133784417Y-31647842D01*
X133934895Y-31415587D01*
X134068417Y-31175292D01*
X134184831Y-30927312D01*
X134283989Y-30671999D01*
X134365739Y-30409708D01*
X134429934Y-30140792D01*
X134476421Y-29865605D01*
X134480743Y-29832648D01*
X134487024Y-29783259D01*
X134814518Y-29783259D01*
X134814518Y-29633139D01*
X134631772Y-29630588D01*
X134449025Y-29628037D01*
X134626132Y-29261148D01*
X134803238Y-28894259D01*
X134644633Y-28891687D01*
X134486029Y-28889115D01*
X134481153Y-28858761D01*
X134477699Y-28836679D01*
X134472307Y-28801546D01*
X134465827Y-28758919D01*
X134461404Y-28729630D01*
X134414050Y-28475652D01*
X134348990Y-28222729D01*
X134267090Y-27972998D01*
X134169218Y-27728597D01*
X134056239Y-27491663D01*
X133929019Y-27264333D01*
X133788424Y-27048746D01*
X133769612Y-27022256D01*
X133737569Y-26977223D01*
X133715261Y-26944559D01*
X133701259Y-26921491D01*
X133694134Y-26905241D01*
X133692457Y-26893037D01*
X133694800Y-26882102D01*
X133695897Y-26879109D01*
X133714486Y-26805484D01*
X133716140Y-26729014D01*
X133701698Y-26653027D01*
X133671997Y-26580849D01*
X133627877Y-26515810D01*
X133596001Y-26482660D01*
X133531774Y-26435733D01*
X133461726Y-26405170D01*
X133388344Y-26390458D01*
X133314113Y-26391078D01*
G37*
X133314113Y-26391078D02*
X133241522Y-26406516D01*
X133173055Y-26436254D01*
X133111199Y-26479778D01*
X133058442Y-26536571D01*
X133018975Y-26602427D01*
X133007434Y-26629248D01*
X133000113Y-26653942D01*
X132996087Y-26682172D01*
X132994430Y-26719598D01*
X132994185Y-26754074D01*
X132994739Y-26801241D01*
X132997018Y-26835272D01*
X133001948Y-26861828D01*
X133010454Y-26886570D01*
X133018975Y-26905722D01*
X133061631Y-26975878D01*
X133116614Y-27033384D01*
X133181507Y-27077124D01*
X133253891Y-27105985D01*
X133331350Y-27118852D01*
X133411467Y-27114612D01*
X133452435Y-27105540D01*
X133481815Y-27097973D01*
X133502869Y-27093822D01*
X133510312Y-27093781D01*
X133531829Y-27122622D01*
X133560730Y-27163866D01*
X133594596Y-27213857D01*
X133631005Y-27268940D01*
X133667539Y-27325458D01*
X133701776Y-27379757D01*
X133727603Y-27422000D01*
X133841111Y-27626495D01*
X133942570Y-27840554D01*
X134030885Y-28061123D01*
X134104958Y-28285144D01*
X134163694Y-28509562D01*
X134205995Y-28731319D01*
X134211954Y-28771963D01*
X134217508Y-28810368D01*
X134222687Y-28843745D01*
X134226522Y-28865893D01*
X134227034Y-28868389D01*
X134231617Y-28889556D01*
X133922181Y-28889556D01*
X134142343Y-29258796D01*
X134362505Y-29628037D01*
X134122845Y-29630548D01*
X133883185Y-29633058D01*
X133883185Y-29783259D01*
X134057222Y-29783259D01*
X134112095Y-29783621D01*
X134159851Y-29784626D01*
X134197564Y-29786157D01*
X134222309Y-29788094D01*
X134231159Y-29790315D01*
X134229362Y-29808614D01*
X134224676Y-29841618D01*
X134217748Y-29885552D01*
X134209223Y-29936643D01*
X134199750Y-29991116D01*
X134189974Y-30045196D01*
X134180542Y-30095110D01*
X134172100Y-30137082D01*
X134170319Y-30145439D01*
X134105482Y-30401263D01*
X134023349Y-30650426D01*
X133924488Y-30892163D01*
X133809472Y-31125704D01*
X133678872Y-31350281D01*
X133533258Y-31565128D01*
X133373201Y-31769476D01*
X133199273Y-31962557D01*
X133012044Y-32143603D01*
X132812085Y-32311848D01*
X132599967Y-32466522D01*
X132376262Y-32606859D01*
X132313394Y-32642500D01*
X132225270Y-32691351D01*
X132205181Y-32672478D01*
X132186034Y-32658548D01*
X132156536Y-32641384D01*
X132128676Y-32627386D01*
X132066794Y-32606789D01*
X131997150Y-32596912D01*
X131927267Y-32598252D01*
X131868209Y-32610144D01*
X131794128Y-32643087D01*
X131731003Y-32689787D01*
X131680071Y-32747892D01*
X131642569Y-32815047D01*
X131619735Y-32888900D01*
X131612806Y-32967097D01*
X131623019Y-33047285D01*
X131628178Y-33066629D01*
X131658953Y-33139484D01*
X131704001Y-33202302D01*
X131760856Y-33253644D01*
X131827055Y-33292071D01*
X131900133Y-33316144D01*
X131977626Y-33324424D01*
X132055011Y-33315932D01*
X132095714Y-33305849D01*
X132127474Y-33294348D01*
X132157907Y-33277966D01*
X132194631Y-33253241D01*
X132197688Y-33251070D01*
X132250592Y-33202576D01*
X132293347Y-33141589D01*
X132323584Y-33072745D01*
X132338931Y-33000682D01*
X132340370Y-32971921D01*
X132340370Y-32917973D01*
X132455538Y-32853450D01*
X132661389Y-32728992D01*
X132863442Y-32588939D01*
X133058897Y-32435657D01*
X133244951Y-32271515D01*
X133418803Y-32098880D01*
X133577650Y-31920121D01*
X133617130Y-31871704D01*
X133784417Y-31647842D01*
X133934895Y-31415587D01*
X134068417Y-31175292D01*
X134184831Y-30927312D01*
X134283989Y-30671999D01*
X134365739Y-30409708D01*
X134429934Y-30140792D01*
X134476421Y-29865605D01*
X134480743Y-29832648D01*
X134487024Y-29783259D01*
X134814518Y-29783259D01*
X134814518Y-29633139D01*
X134631772Y-29630588D01*
X134449025Y-29628037D01*
X134626132Y-29261148D01*
X134803238Y-28894259D01*
X134644633Y-28891687D01*
X134486029Y-28889115D01*
X134481153Y-28858761D01*
X134477699Y-28836679D01*
X134472307Y-28801546D01*
X134465827Y-28758919D01*
X134461404Y-28729630D01*
X134414050Y-28475652D01*
X134348990Y-28222729D01*
X134267090Y-27972998D01*
X134169218Y-27728597D01*
X134056239Y-27491663D01*
X133929019Y-27264333D01*
X133788424Y-27048746D01*
X133769612Y-27022256D01*
X133737569Y-26977223D01*
X133715261Y-26944559D01*
X133701259Y-26921491D01*
X133694134Y-26905241D01*
X133692457Y-26893037D01*
X133694800Y-26882102D01*
X133695897Y-26879109D01*
X133714486Y-26805484D01*
X133716140Y-26729014D01*
X133701698Y-26653027D01*
X133671997Y-26580849D01*
X133627877Y-26515810D01*
X133596001Y-26482660D01*
X133531774Y-26435733D01*
X133461726Y-26405170D01*
X133388344Y-26390458D01*
X133314113Y-26391078D01*
G36*
X129920788Y-30655428D02*
G01*
X129881306Y-30695127D01*
X129853608Y-30723877D01*
X129836056Y-30743918D01*
X129827013Y-30757487D01*
X129824842Y-30766823D01*
X129827906Y-30774163D01*
X129831113Y-30778032D01*
X129834289Y-30782699D01*
X129834959Y-30788518D01*
X129832035Y-30796704D01*
X129824432Y-30808471D01*
X129811062Y-30825031D01*
X129790840Y-30847599D01*
X129762679Y-30877387D01*
X129725492Y-30915609D01*
X129678193Y-30963480D01*
X129619696Y-31022212D01*
X129550662Y-31091270D01*
X129470591Y-31171727D01*
X129403068Y-31240483D01*
X129348289Y-31297327D01*
X129306454Y-31342050D01*
X129277760Y-31374439D01*
X129262406Y-31394284D01*
X129259755Y-31400787D01*
X129266182Y-31412673D01*
X129281028Y-31437784D01*
X129302664Y-31473441D01*
X129329462Y-31516962D01*
X129359793Y-31565665D01*
X129363323Y-31571301D01*
X129461703Y-31728250D01*
X129461703Y-31978399D01*
X129461563Y-32055634D01*
X129461055Y-32116414D01*
X129460046Y-32163098D01*
X129458404Y-32198043D01*
X129455998Y-32223610D01*
X129452694Y-32242155D01*
X129448361Y-32256037D01*
X129445813Y-32261869D01*
X129436205Y-32284429D01*
X129435765Y-32299277D01*
X129444992Y-32315396D01*
X129449095Y-32320985D01*
X129473056Y-32341837D01*
X129501035Y-32350030D01*
X129527064Y-32344597D01*
X129538365Y-32335475D01*
X129556233Y-32307407D01*
X129557619Y-32280879D01*
X129550329Y-32262206D01*
X129546216Y-32250589D01*
X129542990Y-32232090D01*
X129540561Y-32204703D01*
X129538835Y-32166422D01*
X129537722Y-32115241D01*
X129537129Y-32049155D01*
X129536963Y-31970977D01*
X129536963Y-31705512D01*
X129452575Y-31572141D01*
X129423660Y-31526262D01*
X129397681Y-31484708D01*
X129376583Y-31450614D01*
X129362311Y-31427117D01*
X129357486Y-31418774D01*
X129355697Y-31412986D01*
X129356867Y-31405588D01*
X129362132Y-31395315D01*
X129372625Y-31380902D01*
X129389478Y-31361083D01*
X129413826Y-31334594D01*
X129446801Y-31300168D01*
X129489537Y-31256542D01*
X129543168Y-31202450D01*
X129608826Y-31136626D01*
X129622583Y-31122861D01*
X129690447Y-31055034D01*
X129746315Y-30999435D01*
X129791450Y-30954945D01*
X129827112Y-30920442D01*
X129854566Y-30894804D01*
X129875072Y-30876912D01*
X129889893Y-30865644D01*
X129900291Y-30859880D01*
X129907529Y-30858498D01*
X129912869Y-30860377D01*
X129915669Y-30862589D01*
X129922861Y-30867775D01*
X129930855Y-30868599D01*
X129941888Y-30863424D01*
X129958199Y-30850613D01*
X129982027Y-30828529D01*
X130015609Y-30795534D01*
X130038276Y-30772916D01*
X130143594Y-30667597D01*
X130026106Y-30550109D01*
X129920788Y-30655428D01*
G37*
X129920788Y-30655428D02*
X129881306Y-30695127D01*
X129853608Y-30723877D01*
X129836056Y-30743918D01*
X129827013Y-30757487D01*
X129824842Y-30766823D01*
X129827906Y-30774163D01*
X129831113Y-30778032D01*
X129834289Y-30782699D01*
X129834959Y-30788518D01*
X129832035Y-30796704D01*
X129824432Y-30808471D01*
X129811062Y-30825031D01*
X129790840Y-30847599D01*
X129762679Y-30877387D01*
X129725492Y-30915609D01*
X129678193Y-30963480D01*
X129619696Y-31022212D01*
X129550662Y-31091270D01*
X129470591Y-31171727D01*
X129403068Y-31240483D01*
X129348289Y-31297327D01*
X129306454Y-31342050D01*
X129277760Y-31374439D01*
X129262406Y-31394284D01*
X129259755Y-31400787D01*
X129266182Y-31412673D01*
X129281028Y-31437784D01*
X129302664Y-31473441D01*
X129329462Y-31516962D01*
X129359793Y-31565665D01*
X129363323Y-31571301D01*
X129461703Y-31728250D01*
X129461703Y-31978399D01*
X129461563Y-32055634D01*
X129461055Y-32116414D01*
X129460046Y-32163098D01*
X129458404Y-32198043D01*
X129455998Y-32223610D01*
X129452694Y-32242155D01*
X129448361Y-32256037D01*
X129445813Y-32261869D01*
X129436205Y-32284429D01*
X129435765Y-32299277D01*
X129444992Y-32315396D01*
X129449095Y-32320985D01*
X129473056Y-32341837D01*
X129501035Y-32350030D01*
X129527064Y-32344597D01*
X129538365Y-32335475D01*
X129556233Y-32307407D01*
X129557619Y-32280879D01*
X129550329Y-32262206D01*
X129546216Y-32250589D01*
X129542990Y-32232090D01*
X129540561Y-32204703D01*
X129538835Y-32166422D01*
X129537722Y-32115241D01*
X129537129Y-32049155D01*
X129536963Y-31970977D01*
X129536963Y-31705512D01*
X129452575Y-31572141D01*
X129423660Y-31526262D01*
X129397681Y-31484708D01*
X129376583Y-31450614D01*
X129362311Y-31427117D01*
X129357486Y-31418774D01*
X129355697Y-31412986D01*
X129356867Y-31405588D01*
X129362132Y-31395315D01*
X129372625Y-31380902D01*
X129389478Y-31361083D01*
X129413826Y-31334594D01*
X129446801Y-31300168D01*
X129489537Y-31256542D01*
X129543168Y-31202450D01*
X129608826Y-31136626D01*
X129622583Y-31122861D01*
X129690447Y-31055034D01*
X129746315Y-30999435D01*
X129791450Y-30954945D01*
X129827112Y-30920442D01*
X129854566Y-30894804D01*
X129875072Y-30876912D01*
X129889893Y-30865644D01*
X129900291Y-30859880D01*
X129907529Y-30858498D01*
X129912869Y-30860377D01*
X129915669Y-30862589D01*
X129922861Y-30867775D01*
X129930855Y-30868599D01*
X129941888Y-30863424D01*
X129958199Y-30850613D01*
X129982027Y-30828529D01*
X130015609Y-30795534D01*
X130038276Y-30772916D01*
X130143594Y-30667597D01*
X130026106Y-30550109D01*
X129920788Y-30655428D01*
G36*
X130080714Y-30815354D02*
G01*
X130041232Y-30855052D01*
X130013534Y-30883802D01*
X129995982Y-30903841D01*
X129986939Y-30917410D01*
X129984767Y-30926745D01*
X129987831Y-30934087D01*
X129991046Y-30937966D01*
X129994648Y-30943159D01*
X129995413Y-30949468D01*
X129992128Y-30958292D01*
X129983580Y-30971029D01*
X129968558Y-30989077D01*
X129945847Y-31013835D01*
X129914236Y-31046701D01*
X129872511Y-31089072D01*
X129819460Y-31142348D01*
X129776534Y-31185281D01*
X129722608Y-31239356D01*
X129673170Y-31289282D01*
X129629743Y-31333496D01*
X129593849Y-31370431D01*
X129567009Y-31398524D01*
X129550746Y-31416211D01*
X129546370Y-31421857D01*
X129550571Y-31431761D01*
X129562320Y-31455762D01*
X129580338Y-31491341D01*
X129603344Y-31535981D01*
X129630057Y-31587162D01*
X129640444Y-31606910D01*
X129734518Y-31785408D01*
X129734518Y-31977629D01*
X129734237Y-32046866D01*
X129733284Y-32099838D01*
X129731495Y-32139091D01*
X129728705Y-32167167D01*
X129724751Y-32186610D01*
X129720241Y-32198469D01*
X129712202Y-32229139D01*
X129717047Y-32257225D01*
X129733369Y-32276734D01*
X129739271Y-32279643D01*
X129766201Y-32285179D01*
X129793896Y-32283961D01*
X129814005Y-32276610D01*
X129816882Y-32273870D01*
X129832453Y-32242349D01*
X129831434Y-32210437D01*
X129824669Y-32196130D01*
X129819601Y-32185616D01*
X129815790Y-32169966D01*
X129813072Y-32146685D01*
X129811281Y-32113273D01*
X129810252Y-32067237D01*
X129809821Y-32006078D01*
X129809777Y-31970799D01*
X129809777Y-31768195D01*
X129725111Y-31606228D01*
X129698939Y-31555857D01*
X129676053Y-31511229D01*
X129657793Y-31475002D01*
X129645493Y-31449831D01*
X129640491Y-31438370D01*
X129640444Y-31438072D01*
X129646777Y-31430075D01*
X129664730Y-31410317D01*
X129692730Y-31380454D01*
X129729206Y-31342140D01*
X129772586Y-31297032D01*
X129821300Y-31246785D01*
X129848657Y-31218725D01*
X129906467Y-31159618D01*
X129952633Y-31112736D01*
X129988618Y-31076806D01*
X130015883Y-31050555D01*
X130035891Y-31032710D01*
X130050106Y-31021997D01*
X130059991Y-31017145D01*
X130067007Y-31016880D01*
X130072618Y-31019930D01*
X130074876Y-31021864D01*
X130082212Y-31027410D01*
X130090035Y-31028762D01*
X130100601Y-31024292D01*
X130116166Y-31012370D01*
X130138989Y-30991368D01*
X130171325Y-30959656D01*
X130198202Y-30932842D01*
X130303520Y-30827523D01*
X130186032Y-30710035D01*
X130080714Y-30815354D01*
G37*
X130080714Y-30815354D02*
X130041232Y-30855052D01*
X130013534Y-30883802D01*
X129995982Y-30903841D01*
X129986939Y-30917410D01*
X129984767Y-30926745D01*
X129987831Y-30934087D01*
X129991046Y-30937966D01*
X129994648Y-30943159D01*
X129995413Y-30949468D01*
X129992128Y-30958292D01*
X129983580Y-30971029D01*
X129968558Y-30989077D01*
X129945847Y-31013835D01*
X129914236Y-31046701D01*
X129872511Y-31089072D01*
X129819460Y-31142348D01*
X129776534Y-31185281D01*
X129722608Y-31239356D01*
X129673170Y-31289282D01*
X129629743Y-31333496D01*
X129593849Y-31370431D01*
X129567009Y-31398524D01*
X129550746Y-31416211D01*
X129546370Y-31421857D01*
X129550571Y-31431761D01*
X129562320Y-31455762D01*
X129580338Y-31491341D01*
X129603344Y-31535981D01*
X129630057Y-31587162D01*
X129640444Y-31606910D01*
X129734518Y-31785408D01*
X129734518Y-31977629D01*
X129734237Y-32046866D01*
X129733284Y-32099838D01*
X129731495Y-32139091D01*
X129728705Y-32167167D01*
X129724751Y-32186610D01*
X129720241Y-32198469D01*
X129712202Y-32229139D01*
X129717047Y-32257225D01*
X129733369Y-32276734D01*
X129739271Y-32279643D01*
X129766201Y-32285179D01*
X129793896Y-32283961D01*
X129814005Y-32276610D01*
X129816882Y-32273870D01*
X129832453Y-32242349D01*
X129831434Y-32210437D01*
X129824669Y-32196130D01*
X129819601Y-32185616D01*
X129815790Y-32169966D01*
X129813072Y-32146685D01*
X129811281Y-32113273D01*
X129810252Y-32067237D01*
X129809821Y-32006078D01*
X129809777Y-31970799D01*
X129809777Y-31768195D01*
X129725111Y-31606228D01*
X129698939Y-31555857D01*
X129676053Y-31511229D01*
X129657793Y-31475002D01*
X129645493Y-31449831D01*
X129640491Y-31438370D01*
X129640444Y-31438072D01*
X129646777Y-31430075D01*
X129664730Y-31410317D01*
X129692730Y-31380454D01*
X129729206Y-31342140D01*
X129772586Y-31297032D01*
X129821300Y-31246785D01*
X129848657Y-31218725D01*
X129906467Y-31159618D01*
X129952633Y-31112736D01*
X129988618Y-31076806D01*
X130015883Y-31050555D01*
X130035891Y-31032710D01*
X130050106Y-31021997D01*
X130059991Y-31017145D01*
X130067007Y-31016880D01*
X130072618Y-31019930D01*
X130074876Y-31021864D01*
X130082212Y-31027410D01*
X130090035Y-31028762D01*
X130100601Y-31024292D01*
X130116166Y-31012370D01*
X130138989Y-30991368D01*
X130171325Y-30959656D01*
X130198202Y-30932842D01*
X130303520Y-30827523D01*
X130186032Y-30710035D01*
X130080714Y-30815354D01*
G36*
X130239874Y-30976045D02*
G01*
X130200374Y-31015814D01*
X130172721Y-31044644D01*
X130155285Y-31064719D01*
X130146434Y-31078226D01*
X130144536Y-31087350D01*
X130147960Y-31094280D01*
X130149995Y-31096472D01*
X130153815Y-31102011D01*
X130153724Y-31109093D01*
X130148286Y-31119311D01*
X130136070Y-31134257D01*
X130115642Y-31155524D01*
X130085567Y-31184704D01*
X130044414Y-31223391D01*
X129991923Y-31272089D01*
X129944686Y-31316108D01*
X129902559Y-31355989D01*
X129867365Y-31389955D01*
X129840928Y-31416230D01*
X129825068Y-31433037D01*
X129821232Y-31438498D01*
X129826209Y-31448141D01*
X129838816Y-31472081D01*
X129857829Y-31508012D01*
X129882027Y-31553627D01*
X129910189Y-31606622D01*
X129934763Y-31652801D01*
X129970453Y-31720375D01*
X129997752Y-31773470D01*
X130017518Y-31813991D01*
X130030609Y-31843843D01*
X130037886Y-31864930D01*
X130040205Y-31879156D01*
X130039559Y-31885254D01*
X130040173Y-31914788D01*
X130054200Y-31940072D01*
X130077223Y-31956577D01*
X130104822Y-31959769D01*
X130110814Y-31958316D01*
X130139637Y-31941071D01*
X130155079Y-31914700D01*
X130155935Y-31884401D01*
X130140999Y-31855373D01*
X130135915Y-31850088D01*
X130125229Y-31835931D01*
X130107467Y-31807770D01*
X130084203Y-31768308D01*
X130057015Y-31720248D01*
X130027478Y-31666293D01*
X130013358Y-31639903D01*
X129912737Y-31450436D01*
X129971794Y-31394400D01*
X130002526Y-31365478D01*
X130041972Y-31328699D01*
X130084945Y-31288884D01*
X130124458Y-31252503D01*
X130162223Y-31218115D01*
X130188829Y-31194958D01*
X130206849Y-31181406D01*
X130218860Y-31175832D01*
X130227434Y-31176607D01*
X130235148Y-31182104D01*
X130235436Y-31182364D01*
X130242717Y-31187651D01*
X130250733Y-31188525D01*
X130261756Y-31183332D01*
X130278059Y-31170416D01*
X130301912Y-31148122D01*
X130335588Y-31114796D01*
X130355207Y-31095099D01*
X130457605Y-30992111D01*
X130401316Y-30931502D01*
X130345027Y-30870892D01*
X130239874Y-30976045D01*
G37*
X130239874Y-30976045D02*
X130200374Y-31015814D01*
X130172721Y-31044644D01*
X130155285Y-31064719D01*
X130146434Y-31078226D01*
X130144536Y-31087350D01*
X130147960Y-31094280D01*
X130149995Y-31096472D01*
X130153815Y-31102011D01*
X130153724Y-31109093D01*
X130148286Y-31119311D01*
X130136070Y-31134257D01*
X130115642Y-31155524D01*
X130085567Y-31184704D01*
X130044414Y-31223391D01*
X129991923Y-31272089D01*
X129944686Y-31316108D01*
X129902559Y-31355989D01*
X129867365Y-31389955D01*
X129840928Y-31416230D01*
X129825068Y-31433037D01*
X129821232Y-31438498D01*
X129826209Y-31448141D01*
X129838816Y-31472081D01*
X129857829Y-31508012D01*
X129882027Y-31553627D01*
X129910189Y-31606622D01*
X129934763Y-31652801D01*
X129970453Y-31720375D01*
X129997752Y-31773470D01*
X130017518Y-31813991D01*
X130030609Y-31843843D01*
X130037886Y-31864930D01*
X130040205Y-31879156D01*
X130039559Y-31885254D01*
X130040173Y-31914788D01*
X130054200Y-31940072D01*
X130077223Y-31956577D01*
X130104822Y-31959769D01*
X130110814Y-31958316D01*
X130139637Y-31941071D01*
X130155079Y-31914700D01*
X130155935Y-31884401D01*
X130140999Y-31855373D01*
X130135915Y-31850088D01*
X130125229Y-31835931D01*
X130107467Y-31807770D01*
X130084203Y-31768308D01*
X130057015Y-31720248D01*
X130027478Y-31666293D01*
X130013358Y-31639903D01*
X129912737Y-31450436D01*
X129971794Y-31394400D01*
X130002526Y-31365478D01*
X130041972Y-31328699D01*
X130084945Y-31288884D01*
X130124458Y-31252503D01*
X130162223Y-31218115D01*
X130188829Y-31194958D01*
X130206849Y-31181406D01*
X130218860Y-31175832D01*
X130227434Y-31176607D01*
X130235148Y-31182104D01*
X130235436Y-31182364D01*
X130242717Y-31187651D01*
X130250733Y-31188525D01*
X130261756Y-31183332D01*
X130278059Y-31170416D01*
X130301912Y-31148122D01*
X130335588Y-31114796D01*
X130355207Y-31095099D01*
X130457605Y-30992111D01*
X130401316Y-30931502D01*
X130345027Y-30870892D01*
X130239874Y-30976045D01*
G36*
X130336518Y-26830925D02*
G01*
X130124380Y-26858111D01*
X129915475Y-26902662D01*
X129711042Y-26964376D01*
X129512317Y-27043045D01*
X129320536Y-27138466D01*
X129155963Y-27237794D01*
X128976054Y-27367092D01*
X128809784Y-27509125D01*
X128657555Y-27663254D01*
X128519768Y-27828843D01*
X128396825Y-28005255D01*
X128289128Y-28191853D01*
X128197079Y-28388002D01*
X128121078Y-28593063D01*
X128061528Y-28806400D01*
X128018830Y-29027376D01*
X128016240Y-29044778D01*
X128007572Y-29122909D01*
X128001841Y-29214743D01*
X127999015Y-29315404D01*
X127999060Y-29420017D01*
X128001940Y-29523704D01*
X128007622Y-29621591D01*
X128016072Y-29708802D01*
X128021131Y-29745630D01*
X128065035Y-29974130D01*
X128124717Y-30192540D01*
X128200319Y-30401239D01*
X128291984Y-30600604D01*
X128399853Y-30791010D01*
X128439382Y-30852473D01*
X128463041Y-30887532D01*
X128483002Y-30915939D01*
X128496978Y-30934516D01*
X128502495Y-30940211D01*
X128509953Y-30933835D01*
X128529590Y-30915437D01*
X128560184Y-30886200D01*
X128600512Y-30847308D01*
X128649354Y-30799946D01*
X128705487Y-30745297D01*
X128767690Y-30684546D01*
X128834739Y-30618876D01*
X128881834Y-30572648D01*
X128962142Y-30493779D01*
X129030132Y-30427139D01*
X129086892Y-30371755D01*
X129133511Y-30326656D01*
X129171075Y-30290869D01*
X129200675Y-30263422D01*
X129223397Y-30243344D01*
X129240330Y-30229662D01*
X129252563Y-30221404D01*
X129261184Y-30217597D01*
X129267281Y-30217271D01*
X129271941Y-30219452D01*
X129274687Y-30221728D01*
X129282150Y-30227546D01*
X129289876Y-30229278D01*
X129300134Y-30225301D01*
X129315196Y-30213994D01*
X129337332Y-30193735D01*
X129368812Y-30162902D01*
X129398471Y-30133313D01*
X129503689Y-30028095D01*
X129447640Y-29971455D01*
X129391590Y-29914815D01*
X129285904Y-30020202D01*
X129245444Y-30061036D01*
X129217150Y-30090997D01*
X129199450Y-30112065D01*
X129190772Y-30126225D01*
X129189546Y-30135459D01*
X129191556Y-30139251D01*
X129192256Y-30144227D01*
X129188099Y-30153064D01*
X129178124Y-30166776D01*
X129161371Y-30186375D01*
X129136879Y-30212875D01*
X129103687Y-30247289D01*
X129060834Y-30290631D01*
X129007360Y-30343914D01*
X128942303Y-30408151D01*
X128864704Y-30484355D01*
X128859627Y-30489331D01*
X128792965Y-30554445D01*
X128730297Y-30615237D01*
X128672910Y-30670489D01*
X128622090Y-30718982D01*
X128579123Y-30759496D01*
X128545297Y-30790814D01*
X128521899Y-30811715D01*
X128510213Y-30820983D01*
X128509182Y-30821311D01*
X128502015Y-30811994D01*
X128487322Y-30789506D01*
X128467050Y-30756933D01*
X128443146Y-30717361D01*
X128435630Y-30704709D01*
X128332604Y-30512957D01*
X128246579Y-30315342D01*
X128177615Y-30113017D01*
X128125769Y-29907135D01*
X128091101Y-29698846D01*
X128073668Y-29489304D01*
X128073530Y-29279661D01*
X128090744Y-29071068D01*
X128125369Y-28864677D01*
X128177464Y-28661641D01*
X128247088Y-28463113D01*
X128314144Y-28311000D01*
X128398154Y-28150774D01*
X128490552Y-28002014D01*
X128594103Y-27860855D01*
X128711575Y-27723433D01*
X128802732Y-27628228D01*
X128962925Y-27479951D01*
X129130767Y-27348630D01*
X129306763Y-27234012D01*
X129491418Y-27135842D01*
X129685237Y-27053869D01*
X129888726Y-26987838D01*
X130102390Y-26937495D01*
X130220832Y-26916950D01*
X130280595Y-26910043D01*
X130354787Y-26904962D01*
X130439110Y-26901708D01*
X130529267Y-26900278D01*
X130620960Y-26900673D01*
X130709894Y-26902893D01*
X130791769Y-26906935D01*
X130862290Y-26912801D01*
X130896333Y-26917043D01*
X131106827Y-26956834D01*
X131312453Y-27013655D01*
X131511689Y-27086836D01*
X131703013Y-27175703D01*
X131884903Y-27279586D01*
X132055837Y-27397812D01*
X132142814Y-27467185D01*
X132198251Y-27515897D01*
X132260073Y-27573987D01*
X132324378Y-27637482D01*
X132387263Y-27702409D01*
X132444827Y-27764797D01*
X132493166Y-27820674D01*
X132507720Y-27838634D01*
X132633778Y-28012763D01*
X132743599Y-28195754D01*
X132836893Y-28386484D01*
X132913372Y-28583829D01*
X132972745Y-28786665D01*
X133014722Y-28993870D01*
X133039013Y-29204319D01*
X133045328Y-29416890D01*
X133033378Y-29630458D01*
X133011915Y-29792667D01*
X132972139Y-29980700D01*
X132915475Y-30169962D01*
X132843269Y-30357048D01*
X132756871Y-30538552D01*
X132657626Y-30711068D01*
X132634175Y-30747519D01*
X132509562Y-30920522D01*
X132370591Y-31082335D01*
X132218571Y-31231789D01*
X132054811Y-31367716D01*
X131880619Y-31488946D01*
X131697305Y-31594311D01*
X131671067Y-31607689D01*
X131536037Y-31675487D01*
X131505381Y-31659977D01*
X131467669Y-31649603D01*
X131433363Y-31655585D01*
X131406222Y-31675650D01*
X131390007Y-31707529D01*
X131387086Y-31731411D01*
X131395047Y-31764496D01*
X131415785Y-31788980D01*
X131444584Y-31803186D01*
X131476727Y-31805437D01*
X131507498Y-31794057D01*
X131523441Y-31779871D01*
X131539934Y-31766334D01*
X131570660Y-31746708D01*
X131612723Y-31722684D01*
X131663226Y-31695952D01*
X131692783Y-31681086D01*
X131789634Y-31629936D01*
X131892127Y-31569965D01*
X131994422Y-31504890D01*
X132090682Y-31438428D01*
X132175069Y-31374294D01*
X132176204Y-31373377D01*
X132224497Y-31332078D01*
X132280872Y-31280232D01*
X132341557Y-31221630D01*
X132402781Y-31160063D01*
X132460771Y-31099321D01*
X132511757Y-31043193D01*
X132550897Y-30996815D01*
X132681424Y-30819081D01*
X132795013Y-30634077D01*
X132891947Y-30441149D01*
X132972508Y-30239642D01*
X133036979Y-30028904D01*
X133085641Y-29808280D01*
X133099266Y-29726815D01*
X133105571Y-29672681D01*
X133110485Y-29603968D01*
X133113979Y-29524862D01*
X133116025Y-29439548D01*
X133116594Y-29352213D01*
X133115657Y-29267042D01*
X133113185Y-29188221D01*
X133109150Y-29119937D01*
X133103795Y-29068296D01*
X133063596Y-28843761D01*
X133006895Y-28628234D01*
X132933617Y-28421558D01*
X132843692Y-28223576D01*
X132737047Y-28034130D01*
X132613610Y-27853062D01*
X132473308Y-27680216D01*
X132460732Y-27666043D01*
X132316363Y-27518205D01*
X132158048Y-27381612D01*
X131987732Y-27257440D01*
X131807362Y-27146866D01*
X131618884Y-27051065D01*
X131424246Y-26971214D01*
X131225393Y-26908487D01*
X131192666Y-26899955D01*
X130979964Y-26855621D01*
X130765547Y-26829475D01*
X130550652Y-26821312D01*
X130336518Y-26830925D01*
G37*
X130336518Y-26830925D02*
X130124380Y-26858111D01*
X129915475Y-26902662D01*
X129711042Y-26964376D01*
X129512317Y-27043045D01*
X129320536Y-27138466D01*
X129155963Y-27237794D01*
X128976054Y-27367092D01*
X128809784Y-27509125D01*
X128657555Y-27663254D01*
X128519768Y-27828843D01*
X128396825Y-28005255D01*
X128289128Y-28191853D01*
X128197079Y-28388002D01*
X128121078Y-28593063D01*
X128061528Y-28806400D01*
X128018830Y-29027376D01*
X128016240Y-29044778D01*
X128007572Y-29122909D01*
X128001841Y-29214743D01*
X127999015Y-29315404D01*
X127999060Y-29420017D01*
X128001940Y-29523704D01*
X128007622Y-29621591D01*
X128016072Y-29708802D01*
X128021131Y-29745630D01*
X128065035Y-29974130D01*
X128124717Y-30192540D01*
X128200319Y-30401239D01*
X128291984Y-30600604D01*
X128399853Y-30791010D01*
X128439382Y-30852473D01*
X128463041Y-30887532D01*
X128483002Y-30915939D01*
X128496978Y-30934516D01*
X128502495Y-30940211D01*
X128509953Y-30933835D01*
X128529590Y-30915437D01*
X128560184Y-30886200D01*
X128600512Y-30847308D01*
X128649354Y-30799946D01*
X128705487Y-30745297D01*
X128767690Y-30684546D01*
X128834739Y-30618876D01*
X128881834Y-30572648D01*
X128962142Y-30493779D01*
X129030132Y-30427139D01*
X129086892Y-30371755D01*
X129133511Y-30326656D01*
X129171075Y-30290869D01*
X129200675Y-30263422D01*
X129223397Y-30243344D01*
X129240330Y-30229662D01*
X129252563Y-30221404D01*
X129261184Y-30217597D01*
X129267281Y-30217271D01*
X129271941Y-30219452D01*
X129274687Y-30221728D01*
X129282150Y-30227546D01*
X129289876Y-30229278D01*
X129300134Y-30225301D01*
X129315196Y-30213994D01*
X129337332Y-30193735D01*
X129368812Y-30162902D01*
X129398471Y-30133313D01*
X129503689Y-30028095D01*
X129447640Y-29971455D01*
X129391590Y-29914815D01*
X129285904Y-30020202D01*
X129245444Y-30061036D01*
X129217150Y-30090997D01*
X129199450Y-30112065D01*
X129190772Y-30126225D01*
X129189546Y-30135459D01*
X129191556Y-30139251D01*
X129192256Y-30144227D01*
X129188099Y-30153064D01*
X129178124Y-30166776D01*
X129161371Y-30186375D01*
X129136879Y-30212875D01*
X129103687Y-30247289D01*
X129060834Y-30290631D01*
X129007360Y-30343914D01*
X128942303Y-30408151D01*
X128864704Y-30484355D01*
X128859627Y-30489331D01*
X128792965Y-30554445D01*
X128730297Y-30615237D01*
X128672910Y-30670489D01*
X128622090Y-30718982D01*
X128579123Y-30759496D01*
X128545297Y-30790814D01*
X128521899Y-30811715D01*
X128510213Y-30820983D01*
X128509182Y-30821311D01*
X128502015Y-30811994D01*
X128487322Y-30789506D01*
X128467050Y-30756933D01*
X128443146Y-30717361D01*
X128435630Y-30704709D01*
X128332604Y-30512957D01*
X128246579Y-30315342D01*
X128177615Y-30113017D01*
X128125769Y-29907135D01*
X128091101Y-29698846D01*
X128073668Y-29489304D01*
X128073530Y-29279661D01*
X128090744Y-29071068D01*
X128125369Y-28864677D01*
X128177464Y-28661641D01*
X128247088Y-28463113D01*
X128314144Y-28311000D01*
X128398154Y-28150774D01*
X128490552Y-28002014D01*
X128594103Y-27860855D01*
X128711575Y-27723433D01*
X128802732Y-27628228D01*
X128962925Y-27479951D01*
X129130767Y-27348630D01*
X129306763Y-27234012D01*
X129491418Y-27135842D01*
X129685237Y-27053869D01*
X129888726Y-26987838D01*
X130102390Y-26937495D01*
X130220832Y-26916950D01*
X130280595Y-26910043D01*
X130354787Y-26904962D01*
X130439110Y-26901708D01*
X130529267Y-26900278D01*
X130620960Y-26900673D01*
X130709894Y-26902893D01*
X130791769Y-26906935D01*
X130862290Y-26912801D01*
X130896333Y-26917043D01*
X131106827Y-26956834D01*
X131312453Y-27013655D01*
X131511689Y-27086836D01*
X131703013Y-27175703D01*
X131884903Y-27279586D01*
X132055837Y-27397812D01*
X132142814Y-27467185D01*
X132198251Y-27515897D01*
X132260073Y-27573987D01*
X132324378Y-27637482D01*
X132387263Y-27702409D01*
X132444827Y-27764797D01*
X132493166Y-27820674D01*
X132507720Y-27838634D01*
X132633778Y-28012763D01*
X132743599Y-28195754D01*
X132836893Y-28386484D01*
X132913372Y-28583829D01*
X132972745Y-28786665D01*
X133014722Y-28993870D01*
X133039013Y-29204319D01*
X133045328Y-29416890D01*
X133033378Y-29630458D01*
X133011915Y-29792667D01*
X132972139Y-29980700D01*
X132915475Y-30169962D01*
X132843269Y-30357048D01*
X132756871Y-30538552D01*
X132657626Y-30711068D01*
X132634175Y-30747519D01*
X132509562Y-30920522D01*
X132370591Y-31082335D01*
X132218571Y-31231789D01*
X132054811Y-31367716D01*
X131880619Y-31488946D01*
X131697305Y-31594311D01*
X131671067Y-31607689D01*
X131536037Y-31675487D01*
X131505381Y-31659977D01*
X131467669Y-31649603D01*
X131433363Y-31655585D01*
X131406222Y-31675650D01*
X131390007Y-31707529D01*
X131387086Y-31731411D01*
X131395047Y-31764496D01*
X131415785Y-31788980D01*
X131444584Y-31803186D01*
X131476727Y-31805437D01*
X131507498Y-31794057D01*
X131523441Y-31779871D01*
X131539934Y-31766334D01*
X131570660Y-31746708D01*
X131612723Y-31722684D01*
X131663226Y-31695952D01*
X131692783Y-31681086D01*
X131789634Y-31629936D01*
X131892127Y-31569965D01*
X131994422Y-31504890D01*
X132090682Y-31438428D01*
X132175069Y-31374294D01*
X132176204Y-31373377D01*
X132224497Y-31332078D01*
X132280872Y-31280232D01*
X132341557Y-31221630D01*
X132402781Y-31160063D01*
X132460771Y-31099321D01*
X132511757Y-31043193D01*
X132550897Y-30996815D01*
X132681424Y-30819081D01*
X132795013Y-30634077D01*
X132891947Y-30441149D01*
X132972508Y-30239642D01*
X133036979Y-30028904D01*
X133085641Y-29808280D01*
X133099266Y-29726815D01*
X133105571Y-29672681D01*
X133110485Y-29603968D01*
X133113979Y-29524862D01*
X133116025Y-29439548D01*
X133116594Y-29352213D01*
X133115657Y-29267042D01*
X133113185Y-29188221D01*
X133109150Y-29119937D01*
X133103795Y-29068296D01*
X133063596Y-28843761D01*
X133006895Y-28628234D01*
X132933617Y-28421558D01*
X132843692Y-28223576D01*
X132737047Y-28034130D01*
X132613610Y-27853062D01*
X132473308Y-27680216D01*
X132460732Y-27666043D01*
X132316363Y-27518205D01*
X132158048Y-27381612D01*
X131987732Y-27257440D01*
X131807362Y-27146866D01*
X131618884Y-27051065D01*
X131424246Y-26971214D01*
X131225393Y-26908487D01*
X131192666Y-26899955D01*
X130979964Y-26855621D01*
X130765547Y-26829475D01*
X130550652Y-26821312D01*
X130336518Y-26830925D01*
G36*
X130443815Y-27202420D02*
G01*
X130356329Y-27206642D01*
X130279757Y-27213325D01*
X130242854Y-27218240D01*
X130039136Y-27259191D01*
X129843450Y-27317041D01*
X129656152Y-27391615D01*
X129477598Y-27482737D01*
X129308147Y-27590229D01*
X129148153Y-27713916D01*
X129039541Y-27812391D01*
X128907619Y-27951598D01*
X128788178Y-28101414D01*
X128682794Y-28259478D01*
X128593039Y-28423427D01*
X128520501Y-28590870D01*
X128505840Y-28626666D01*
X128492151Y-28654594D01*
X128481468Y-28670742D01*
X128477695Y-28673185D01*
X128464234Y-28679990D01*
X128447552Y-28696516D01*
X128446386Y-28697972D01*
X128429968Y-28730640D01*
X128429176Y-28762582D01*
X128440963Y-28790998D01*
X128462282Y-28813090D01*
X128490086Y-28826058D01*
X128521327Y-28827103D01*
X128552957Y-28813425D01*
X128563039Y-28805131D01*
X128582036Y-28777789D01*
X128585667Y-28744170D01*
X128576375Y-28706779D01*
X128572128Y-28690161D01*
X128572612Y-28672071D01*
X128578708Y-28647701D01*
X128591298Y-28612242D01*
X128595960Y-28600054D01*
X128664805Y-28444686D01*
X128750286Y-28290848D01*
X128850291Y-28141675D01*
X128962709Y-28000301D01*
X129085429Y-27869861D01*
X129092066Y-27863423D01*
X129242455Y-27730959D01*
X129402366Y-27614696D01*
X129571533Y-27514763D01*
X129749692Y-27431292D01*
X129936578Y-27364415D01*
X130131926Y-27314261D01*
X130245692Y-27293406D01*
X130311184Y-27285541D01*
X130390147Y-27280003D01*
X130477830Y-27276790D01*
X130569479Y-27275905D01*
X130660342Y-27277345D01*
X130745668Y-27281111D01*
X130820703Y-27287203D01*
X130868111Y-27293419D01*
X131068227Y-27335130D01*
X131260436Y-27393529D01*
X131444017Y-27468122D01*
X131618249Y-27558414D01*
X131782411Y-27663911D01*
X131935781Y-27784117D01*
X132077640Y-27918539D01*
X132207266Y-28066682D01*
X132323939Y-28228051D01*
X132391788Y-28338581D01*
X132481023Y-28512518D01*
X132552994Y-28692590D01*
X132607717Y-28877481D01*
X132645206Y-29065879D01*
X132665477Y-29256468D01*
X132668544Y-29447936D01*
X132654423Y-29638968D01*
X132623127Y-29828251D01*
X132574672Y-30014469D01*
X132509072Y-30196311D01*
X132426343Y-30372461D01*
X132367655Y-30476256D01*
X132273652Y-30616612D01*
X132164118Y-30753490D01*
X132042336Y-30883478D01*
X131911589Y-31003162D01*
X131775161Y-31109131D01*
X131726957Y-31142163D01*
X131673284Y-31177662D01*
X131457276Y-30988461D01*
X131403220Y-30941346D01*
X131353565Y-30898513D01*
X131310105Y-30861474D01*
X131274637Y-30831743D01*
X131248954Y-30810833D01*
X131234852Y-30800257D01*
X131232847Y-30799259D01*
X131222083Y-30806126D01*
X131206986Y-30822896D01*
X131205206Y-30825257D01*
X131185985Y-30851254D01*
X131411004Y-31048683D01*
X131466694Y-31097463D01*
X131518393Y-31142592D01*
X131564262Y-31182475D01*
X131602459Y-31215519D01*
X131631143Y-31240128D01*
X131648475Y-31254708D01*
X131652332Y-31257755D01*
X131661839Y-31261648D01*
X131674808Y-31259780D01*
X131694444Y-31250784D01*
X131723957Y-31233288D01*
X131752857Y-31214831D01*
X131904904Y-31105707D01*
X132049227Y-30981046D01*
X132183744Y-30843207D01*
X132306370Y-30694546D01*
X132415021Y-30537420D01*
X132507615Y-30374186D01*
X132522502Y-30344159D01*
X132602250Y-30158461D01*
X132664417Y-29967269D01*
X132708846Y-29771916D01*
X132735378Y-29573737D01*
X132743857Y-29374064D01*
X132734123Y-29174232D01*
X132706019Y-28975575D01*
X132692486Y-28909601D01*
X132639636Y-28713484D01*
X132569775Y-28525326D01*
X132483138Y-28345558D01*
X132379957Y-28174611D01*
X132260466Y-28012915D01*
X132124896Y-27860899D01*
X132124755Y-27860755D01*
X132045904Y-27782672D01*
X131971549Y-27715315D01*
X131895751Y-27653754D01*
X131812572Y-27593058D01*
X131755730Y-27554393D01*
X131592783Y-27456888D01*
X131418406Y-27373401D01*
X131234474Y-27304644D01*
X131042863Y-27251331D01*
X130872479Y-27218240D01*
X130804341Y-27210153D01*
X130722478Y-27204527D01*
X130631817Y-27201363D01*
X130537287Y-27200661D01*
X130443815Y-27202420D01*
G37*
X130443815Y-27202420D02*
X130356329Y-27206642D01*
X130279757Y-27213325D01*
X130242854Y-27218240D01*
X130039136Y-27259191D01*
X129843450Y-27317041D01*
X129656152Y-27391615D01*
X129477598Y-27482737D01*
X129308147Y-27590229D01*
X129148153Y-27713916D01*
X129039541Y-27812391D01*
X128907619Y-27951598D01*
X128788178Y-28101414D01*
X128682794Y-28259478D01*
X128593039Y-28423427D01*
X128520501Y-28590870D01*
X128505840Y-28626666D01*
X128492151Y-28654594D01*
X128481468Y-28670742D01*
X128477695Y-28673185D01*
X128464234Y-28679990D01*
X128447552Y-28696516D01*
X128446386Y-28697972D01*
X128429968Y-28730640D01*
X128429176Y-28762582D01*
X128440963Y-28790998D01*
X128462282Y-28813090D01*
X128490086Y-28826058D01*
X128521327Y-28827103D01*
X128552957Y-28813425D01*
X128563039Y-28805131D01*
X128582036Y-28777789D01*
X128585667Y-28744170D01*
X128576375Y-28706779D01*
X128572128Y-28690161D01*
X128572612Y-28672071D01*
X128578708Y-28647701D01*
X128591298Y-28612242D01*
X128595960Y-28600054D01*
X128664805Y-28444686D01*
X128750286Y-28290848D01*
X128850291Y-28141675D01*
X128962709Y-28000301D01*
X129085429Y-27869861D01*
X129092066Y-27863423D01*
X129242455Y-27730959D01*
X129402366Y-27614696D01*
X129571533Y-27514763D01*
X129749692Y-27431292D01*
X129936578Y-27364415D01*
X130131926Y-27314261D01*
X130245692Y-27293406D01*
X130311184Y-27285541D01*
X130390147Y-27280003D01*
X130477830Y-27276790D01*
X130569479Y-27275905D01*
X130660342Y-27277345D01*
X130745668Y-27281111D01*
X130820703Y-27287203D01*
X130868111Y-27293419D01*
X131068227Y-27335130D01*
X131260436Y-27393529D01*
X131444017Y-27468122D01*
X131618249Y-27558414D01*
X131782411Y-27663911D01*
X131935781Y-27784117D01*
X132077640Y-27918539D01*
X132207266Y-28066682D01*
X132323939Y-28228051D01*
X132391788Y-28338581D01*
X132481023Y-28512518D01*
X132552994Y-28692590D01*
X132607717Y-28877481D01*
X132645206Y-29065879D01*
X132665477Y-29256468D01*
X132668544Y-29447936D01*
X132654423Y-29638968D01*
X132623127Y-29828251D01*
X132574672Y-30014469D01*
X132509072Y-30196311D01*
X132426343Y-30372461D01*
X132367655Y-30476256D01*
X132273652Y-30616612D01*
X132164118Y-30753490D01*
X132042336Y-30883478D01*
X131911589Y-31003162D01*
X131775161Y-31109131D01*
X131726957Y-31142163D01*
X131673284Y-31177662D01*
X131457276Y-30988461D01*
X131403220Y-30941346D01*
X131353565Y-30898513D01*
X131310105Y-30861474D01*
X131274637Y-30831743D01*
X131248954Y-30810833D01*
X131234852Y-30800257D01*
X131232847Y-30799259D01*
X131222083Y-30806126D01*
X131206986Y-30822896D01*
X131205206Y-30825257D01*
X131185985Y-30851254D01*
X131411004Y-31048683D01*
X131466694Y-31097463D01*
X131518393Y-31142592D01*
X131564262Y-31182475D01*
X131602459Y-31215519D01*
X131631143Y-31240128D01*
X131648475Y-31254708D01*
X131652332Y-31257755D01*
X131661839Y-31261648D01*
X131674808Y-31259780D01*
X131694444Y-31250784D01*
X131723957Y-31233288D01*
X131752857Y-31214831D01*
X131904904Y-31105707D01*
X132049227Y-30981046D01*
X132183744Y-30843207D01*
X132306370Y-30694546D01*
X132415021Y-30537420D01*
X132507615Y-30374186D01*
X132522502Y-30344159D01*
X132602250Y-30158461D01*
X132664417Y-29967269D01*
X132708846Y-29771916D01*
X132735378Y-29573737D01*
X132743857Y-29374064D01*
X132734123Y-29174232D01*
X132706019Y-28975575D01*
X132692486Y-28909601D01*
X132639636Y-28713484D01*
X132569775Y-28525326D01*
X132483138Y-28345558D01*
X132379957Y-28174611D01*
X132260466Y-28012915D01*
X132124896Y-27860899D01*
X132124755Y-27860755D01*
X132045904Y-27782672D01*
X131971549Y-27715315D01*
X131895751Y-27653754D01*
X131812572Y-27593058D01*
X131755730Y-27554393D01*
X131592783Y-27456888D01*
X131418406Y-27373401D01*
X131234474Y-27304644D01*
X131042863Y-27251331D01*
X130872479Y-27218240D01*
X130804341Y-27210153D01*
X130722478Y-27204527D01*
X130631817Y-27201363D01*
X130537287Y-27200661D01*
X130443815Y-27202420D01*
G36*
X130557921Y-30987341D02*
G01*
X130661115Y-31090856D01*
X130696847Y-31126384D01*
X130727891Y-31156652D01*
X130751857Y-31179380D01*
X130766358Y-31192284D01*
X130769467Y-31194370D01*
X130777983Y-31188136D01*
X130796217Y-31171518D01*
X130820791Y-31147639D01*
X130830602Y-31137804D01*
X130886578Y-31081238D01*
X130780939Y-30975600D01*
X130675301Y-30869961D01*
X130557921Y-30987341D01*
G37*
X130557921Y-30987341D02*
X130661115Y-31090856D01*
X130696847Y-31126384D01*
X130727891Y-31156652D01*
X130751857Y-31179380D01*
X130766358Y-31192284D01*
X130769467Y-31194370D01*
X130777983Y-31188136D01*
X130796217Y-31171518D01*
X130820791Y-31147639D01*
X130830602Y-31137804D01*
X130886578Y-31081238D01*
X130780939Y-30975600D01*
X130675301Y-30869961D01*
X130557921Y-30987341D01*
G36*
X130718048Y-30827617D02*
G01*
X130821141Y-30931031D01*
X130856856Y-30966540D01*
X130887881Y-30996789D01*
X130911826Y-31019495D01*
X130926303Y-31032375D01*
X130929393Y-31034445D01*
X130937945Y-31028219D01*
X130956125Y-31011669D01*
X130980471Y-30987987D01*
X130988290Y-30980139D01*
X131042029Y-30925834D01*
X130936034Y-30820139D01*
X130830038Y-30714445D01*
X130718048Y-30827617D01*
G37*
X130718048Y-30827617D02*
X130821141Y-30931031D01*
X130856856Y-30966540D01*
X130887881Y-30996789D01*
X130911826Y-31019495D01*
X130926303Y-31032375D01*
X130929393Y-31034445D01*
X130937945Y-31028219D01*
X130956125Y-31011669D01*
X130980471Y-30987987D01*
X130988290Y-30980139D01*
X131042029Y-30925834D01*
X130936034Y-30820139D01*
X130830038Y-30714445D01*
X130718048Y-30827617D01*
G36*
X129445741Y-30180216D02*
G01*
X129406001Y-30220145D01*
X129378149Y-30249173D01*
X129360542Y-30269473D01*
X129351533Y-30283216D01*
X129349480Y-30292572D01*
X129352737Y-30299713D01*
X129354053Y-30301257D01*
X129356526Y-30305941D01*
X129355748Y-30312546D01*
X129350612Y-30322266D01*
X129340008Y-30336296D01*
X129322828Y-30355829D01*
X129297964Y-30382059D01*
X129264307Y-30416178D01*
X129220748Y-30459382D01*
X129166180Y-30512863D01*
X129099493Y-30577816D01*
X129076281Y-30600375D01*
X129009644Y-30664731D01*
X128948552Y-30722978D01*
X128894233Y-30773989D01*
X128847917Y-30816636D01*
X128810832Y-30849793D01*
X128784207Y-30872333D01*
X128769271Y-30883130D01*
X128767040Y-30883926D01*
X128742557Y-30891897D01*
X128725696Y-30912038D01*
X128718059Y-30938693D01*
X128721251Y-30966208D01*
X128736874Y-30988925D01*
X128737199Y-30989191D01*
X128765952Y-31004317D01*
X128793451Y-31001021D01*
X128817724Y-30983131D01*
X128833433Y-30963927D01*
X128840747Y-30948099D01*
X128840814Y-30947036D01*
X128847365Y-30937802D01*
X128866040Y-30917050D01*
X128895372Y-30886273D01*
X128933894Y-30846965D01*
X128980140Y-30800620D01*
X129032643Y-30748730D01*
X129089936Y-30692789D01*
X129102250Y-30680849D01*
X129176341Y-30609069D01*
X129238059Y-30549291D01*
X129288586Y-30500474D01*
X129329109Y-30461578D01*
X129360813Y-30431560D01*
X129384884Y-30409380D01*
X129402506Y-30393998D01*
X129414865Y-30384372D01*
X129423146Y-30379461D01*
X129428535Y-30378225D01*
X129432217Y-30379621D01*
X129435376Y-30382610D01*
X129438472Y-30385572D01*
X129445651Y-30388890D01*
X129455312Y-30386716D01*
X129469582Y-30377408D01*
X129490594Y-30359326D01*
X129520475Y-30330830D01*
X129558582Y-30293054D01*
X129663615Y-30188021D01*
X129607565Y-30131381D01*
X129551516Y-30074741D01*
X129445741Y-30180216D01*
G37*
X129445741Y-30180216D02*
X129406001Y-30220145D01*
X129378149Y-30249173D01*
X129360542Y-30269473D01*
X129351533Y-30283216D01*
X129349480Y-30292572D01*
X129352737Y-30299713D01*
X129354053Y-30301257D01*
X129356526Y-30305941D01*
X129355748Y-30312546D01*
X129350612Y-30322266D01*
X129340008Y-30336296D01*
X129322828Y-30355829D01*
X129297964Y-30382059D01*
X129264307Y-30416178D01*
X129220748Y-30459382D01*
X129166180Y-30512863D01*
X129099493Y-30577816D01*
X129076281Y-30600375D01*
X129009644Y-30664731D01*
X128948552Y-30722978D01*
X128894233Y-30773989D01*
X128847917Y-30816636D01*
X128810832Y-30849793D01*
X128784207Y-30872333D01*
X128769271Y-30883130D01*
X128767040Y-30883926D01*
X128742557Y-30891897D01*
X128725696Y-30912038D01*
X128718059Y-30938693D01*
X128721251Y-30966208D01*
X128736874Y-30988925D01*
X128737199Y-30989191D01*
X128765952Y-31004317D01*
X128793451Y-31001021D01*
X128817724Y-30983131D01*
X128833433Y-30963927D01*
X128840747Y-30948099D01*
X128840814Y-30947036D01*
X128847365Y-30937802D01*
X128866040Y-30917050D01*
X128895372Y-30886273D01*
X128933894Y-30846965D01*
X128980140Y-30800620D01*
X129032643Y-30748730D01*
X129089936Y-30692789D01*
X129102250Y-30680849D01*
X129176341Y-30609069D01*
X129238059Y-30549291D01*
X129288586Y-30500474D01*
X129329109Y-30461578D01*
X129360813Y-30431560D01*
X129384884Y-30409380D01*
X129402506Y-30393998D01*
X129414865Y-30384372D01*
X129423146Y-30379461D01*
X129428535Y-30378225D01*
X129432217Y-30379621D01*
X129435376Y-30382610D01*
X129438472Y-30385572D01*
X129445651Y-30388890D01*
X129455312Y-30386716D01*
X129469582Y-30377408D01*
X129490594Y-30359326D01*
X129520475Y-30330830D01*
X129558582Y-30293054D01*
X129663615Y-30188021D01*
X129607565Y-30131381D01*
X129551516Y-30074741D01*
X129445741Y-30180216D01*
G36*
X130502879Y-27851857D02*
G01*
X130482682Y-27870874D01*
X130450878Y-27901556D01*
X130408304Y-27943074D01*
X130355800Y-27994600D01*
X130294205Y-28055305D01*
X130224357Y-28124361D01*
X130147095Y-28200937D01*
X130063259Y-28284207D01*
X129973686Y-28373340D01*
X129879217Y-28467509D01*
X129780689Y-28565884D01*
X129729814Y-28616741D01*
X128958450Y-29388148D01*
X129729814Y-30159556D01*
X129830068Y-30259735D01*
X129926686Y-30356125D01*
X130018828Y-30447897D01*
X130105657Y-30534222D01*
X130186334Y-30614272D01*
X130260019Y-30687217D01*
X130325874Y-30752230D01*
X130383060Y-30808481D01*
X130430738Y-30855141D01*
X130468069Y-30891382D01*
X130494214Y-30916376D01*
X130508336Y-30929292D01*
X130510629Y-30930963D01*
X130518379Y-30924440D01*
X130538576Y-30905423D01*
X130570381Y-30874741D01*
X130612955Y-30833222D01*
X130665459Y-30781696D01*
X130727054Y-30720991D01*
X130796902Y-30651936D01*
X130874163Y-30575359D01*
X130958000Y-30492090D01*
X131047572Y-30402956D01*
X131142042Y-30308788D01*
X131240570Y-30210412D01*
X131291444Y-30159556D01*
X132062808Y-29388148D01*
X132062794Y-29388133D01*
X131996970Y-29388133D01*
X131253814Y-30131333D01*
X130510659Y-30874534D01*
X129767474Y-30131348D01*
X129024289Y-29388163D01*
X129767444Y-28644963D01*
X130510600Y-27901763D01*
X131996970Y-29388133D01*
X132062794Y-29388133D01*
X131291444Y-28616741D01*
X131191190Y-28516562D01*
X131094573Y-28420172D01*
X131002430Y-28328400D01*
X130915601Y-28242074D01*
X130834925Y-28162025D01*
X130761239Y-28089079D01*
X130695385Y-28024067D01*
X130638199Y-27967816D01*
X130590521Y-27921155D01*
X130553190Y-27884914D01*
X130527044Y-27859921D01*
X130512923Y-27847004D01*
X130510629Y-27845333D01*
X130502879Y-27851857D01*
G37*
X130502879Y-27851857D02*
X130482682Y-27870874D01*
X130450878Y-27901556D01*
X130408304Y-27943074D01*
X130355800Y-27994600D01*
X130294205Y-28055305D01*
X130224357Y-28124361D01*
X130147095Y-28200937D01*
X130063259Y-28284207D01*
X129973686Y-28373340D01*
X129879217Y-28467509D01*
X129780689Y-28565884D01*
X129729814Y-28616741D01*
X128958450Y-29388148D01*
X129729814Y-30159556D01*
X129830068Y-30259735D01*
X129926686Y-30356125D01*
X130018828Y-30447897D01*
X130105657Y-30534222D01*
X130186334Y-30614272D01*
X130260019Y-30687217D01*
X130325874Y-30752230D01*
X130383060Y-30808481D01*
X130430738Y-30855141D01*
X130468069Y-30891382D01*
X130494214Y-30916376D01*
X130508336Y-30929292D01*
X130510629Y-30930963D01*
X130518379Y-30924440D01*
X130538576Y-30905423D01*
X130570381Y-30874741D01*
X130612955Y-30833222D01*
X130665459Y-30781696D01*
X130727054Y-30720991D01*
X130796902Y-30651936D01*
X130874163Y-30575359D01*
X130958000Y-30492090D01*
X131047572Y-30402956D01*
X131142042Y-30308788D01*
X131240570Y-30210412D01*
X131291444Y-30159556D01*
X132062808Y-29388148D01*
X132062794Y-29388133D01*
X131996970Y-29388133D01*
X131253814Y-30131333D01*
X130510659Y-30874534D01*
X129767474Y-30131348D01*
X129024289Y-29388163D01*
X129767444Y-28644963D01*
X130510600Y-27901763D01*
X131996970Y-29388133D01*
X132062794Y-29388133D01*
X131291444Y-28616741D01*
X131191190Y-28516562D01*
X131094573Y-28420172D01*
X131002430Y-28328400D01*
X130915601Y-28242074D01*
X130834925Y-28162025D01*
X130761239Y-28089079D01*
X130695385Y-28024067D01*
X130638199Y-27967816D01*
X130590521Y-27921155D01*
X130553190Y-27884914D01*
X130527044Y-27859921D01*
X130512923Y-27847004D01*
X130510629Y-27845333D01*
X130502879Y-27851857D01*
G36*
X130877974Y-30667691D02*
G01*
X130981067Y-30771105D01*
X131016782Y-30806614D01*
X131047807Y-30836863D01*
X131071752Y-30859569D01*
X131086229Y-30872449D01*
X131089319Y-30874519D01*
X131097871Y-30868293D01*
X131116051Y-30851743D01*
X131140397Y-30828061D01*
X131148216Y-30820213D01*
X131201955Y-30765908D01*
X131095960Y-30660213D01*
X130989964Y-30554519D01*
X130877974Y-30667691D01*
G37*
X130877974Y-30667691D02*
X130981067Y-30771105D01*
X131016782Y-30806614D01*
X131047807Y-30836863D01*
X131071752Y-30859569D01*
X131086229Y-30872449D01*
X131089319Y-30874519D01*
X131097871Y-30868293D01*
X131116051Y-30851743D01*
X131140397Y-30828061D01*
X131148216Y-30820213D01*
X131201955Y-30765908D01*
X131095960Y-30660213D01*
X130989964Y-30554519D01*
X130877974Y-30667691D01*
G36*
X131037900Y-30507765D02*
G01*
X131140993Y-30611179D01*
X131176707Y-30646688D01*
X131207732Y-30676937D01*
X131231678Y-30699643D01*
X131246155Y-30712523D01*
X131249245Y-30714593D01*
X131257797Y-30708367D01*
X131275976Y-30691817D01*
X131300322Y-30668135D01*
X131308142Y-30660287D01*
X131361881Y-30605982D01*
X131255886Y-30500288D01*
X131149890Y-30394593D01*
X131037900Y-30507765D01*
G37*
X131037900Y-30507765D02*
X131140993Y-30611179D01*
X131176707Y-30646688D01*
X131207732Y-30676937D01*
X131231678Y-30699643D01*
X131246155Y-30712523D01*
X131249245Y-30714593D01*
X131257797Y-30708367D01*
X131275976Y-30691817D01*
X131300322Y-30668135D01*
X131308142Y-30660287D01*
X131361881Y-30605982D01*
X131255886Y-30500288D01*
X131149890Y-30394593D01*
X131037900Y-30507765D01*
G36*
X134736938Y-30111044D02*
G01*
X134722914Y-30119936D01*
X134720444Y-30125621D01*
X134723808Y-30137338D01*
X134733192Y-30163670D01*
X134747535Y-30201805D01*
X134765773Y-30248926D01*
X134786845Y-30302219D01*
X134791000Y-30312606D01*
X134812467Y-30366635D01*
X134831304Y-30414911D01*
X134846449Y-30454647D01*
X134856844Y-30483053D01*
X134861428Y-30497343D01*
X134861555Y-30498233D01*
X134853624Y-30507251D01*
X134833687Y-30518603D01*
X134823883Y-30522856D01*
X134786210Y-30537929D01*
X134873271Y-30606987D01*
X134912654Y-30638005D01*
X134939946Y-30658677D01*
X134957661Y-30670519D01*
X134968312Y-30675047D01*
X134974412Y-30673778D01*
X134977528Y-30669908D01*
X134979982Y-30657994D01*
X134983117Y-30631818D01*
X134986433Y-30595891D01*
X134988164Y-30573482D01*
X134991463Y-30532674D01*
X134994942Y-30497718D01*
X134998059Y-30473764D01*
X134999334Y-30467445D01*
X135000971Y-30457713D01*
X134995443Y-30455614D01*
X134978666Y-30461020D01*
X134965121Y-30466360D01*
X134939300Y-30474346D01*
X134921884Y-30475274D01*
X134918787Y-30473619D01*
X134913202Y-30462653D01*
X134901962Y-30436958D01*
X134886238Y-30399339D01*
X134867199Y-30352600D01*
X134846015Y-30299548D01*
X134842740Y-30291259D01*
X134821437Y-30237644D01*
X134802235Y-30190041D01*
X134786274Y-30151223D01*
X134774695Y-30123960D01*
X134768641Y-30111021D01*
X134768269Y-30110475D01*
X134755214Y-30106890D01*
X134736938Y-30111044D01*
G37*
X134736938Y-30111044D02*
X134722914Y-30119936D01*
X134720444Y-30125621D01*
X134723808Y-30137338D01*
X134733192Y-30163670D01*
X134747535Y-30201805D01*
X134765773Y-30248926D01*
X134786845Y-30302219D01*
X134791000Y-30312606D01*
X134812467Y-30366635D01*
X134831304Y-30414911D01*
X134846449Y-30454647D01*
X134856844Y-30483053D01*
X134861428Y-30497343D01*
X134861555Y-30498233D01*
X134853624Y-30507251D01*
X134833687Y-30518603D01*
X134823883Y-30522856D01*
X134786210Y-30537929D01*
X134873271Y-30606987D01*
X134912654Y-30638005D01*
X134939946Y-30658677D01*
X134957661Y-30670519D01*
X134968312Y-30675047D01*
X134974412Y-30673778D01*
X134977528Y-30669908D01*
X134979982Y-30657994D01*
X134983117Y-30631818D01*
X134986433Y-30595891D01*
X134988164Y-30573482D01*
X134991463Y-30532674D01*
X134994942Y-30497718D01*
X134998059Y-30473764D01*
X134999334Y-30467445D01*
X135000971Y-30457713D01*
X134995443Y-30455614D01*
X134978666Y-30461020D01*
X134965121Y-30466360D01*
X134939300Y-30474346D01*
X134921884Y-30475274D01*
X134918787Y-30473619D01*
X134913202Y-30462653D01*
X134901962Y-30436958D01*
X134886238Y-30399339D01*
X134867199Y-30352600D01*
X134846015Y-30299548D01*
X134842740Y-30291259D01*
X134821437Y-30237644D01*
X134802235Y-30190041D01*
X134786274Y-30151223D01*
X134774695Y-30123960D01*
X134768641Y-30111021D01*
X134768269Y-30110475D01*
X134755214Y-30106890D01*
X134736938Y-30111044D01*
G36*
X134976577Y-30013131D02*
G01*
X134965173Y-30018371D01*
X134959811Y-30022524D01*
X134957316Y-30029466D01*
X134958359Y-30041474D01*
X134963604Y-30060829D01*
X134973721Y-30089809D01*
X134989377Y-30130693D01*
X135011240Y-30185760D01*
X135022236Y-30213176D01*
X135044322Y-30268497D01*
X135063808Y-30317953D01*
X135079661Y-30358875D01*
X135090852Y-30388592D01*
X135096351Y-30404437D01*
X135096740Y-30406177D01*
X135088828Y-30413900D01*
X135068881Y-30424559D01*
X135058188Y-30429134D01*
X135019635Y-30444559D01*
X135050869Y-30469039D01*
X135073439Y-30486722D01*
X135104726Y-30511228D01*
X135138633Y-30537781D01*
X135144721Y-30542549D01*
X135207339Y-30591579D01*
X135212713Y-30556660D01*
X135215970Y-30530824D01*
X135219845Y-30493251D01*
X135223627Y-30450968D01*
X135224538Y-30439683D01*
X135230990Y-30357625D01*
X135191986Y-30372946D01*
X135167970Y-30381380D01*
X135152594Y-30384897D01*
X135150109Y-30384448D01*
X135145967Y-30374944D01*
X135136014Y-30350536D01*
X135121298Y-30313842D01*
X135102867Y-30267478D01*
X135081769Y-30214061D01*
X135074204Y-30194833D01*
X135052165Y-30139830D01*
X135031918Y-30091291D01*
X135014596Y-30051775D01*
X135001332Y-30023842D01*
X134993260Y-30010050D01*
X134991893Y-30009037D01*
X134976577Y-30013131D01*
G37*
X134976577Y-30013131D02*
X134965173Y-30018371D01*
X134959811Y-30022524D01*
X134957316Y-30029466D01*
X134958359Y-30041474D01*
X134963604Y-30060829D01*
X134973721Y-30089809D01*
X134989377Y-30130693D01*
X135011240Y-30185760D01*
X135022236Y-30213176D01*
X135044322Y-30268497D01*
X135063808Y-30317953D01*
X135079661Y-30358875D01*
X135090852Y-30388592D01*
X135096351Y-30404437D01*
X135096740Y-30406177D01*
X135088828Y-30413900D01*
X135068881Y-30424559D01*
X135058188Y-30429134D01*
X135019635Y-30444559D01*
X135050869Y-30469039D01*
X135073439Y-30486722D01*
X135104726Y-30511228D01*
X135138633Y-30537781D01*
X135144721Y-30542549D01*
X135207339Y-30591579D01*
X135212713Y-30556660D01*
X135215970Y-30530824D01*
X135219845Y-30493251D01*
X135223627Y-30450968D01*
X135224538Y-30439683D01*
X135230990Y-30357625D01*
X135191986Y-30372946D01*
X135167970Y-30381380D01*
X135152594Y-30384897D01*
X135150109Y-30384448D01*
X135145967Y-30374944D01*
X135136014Y-30350536D01*
X135121298Y-30313842D01*
X135102867Y-30267478D01*
X135081769Y-30214061D01*
X135074204Y-30194833D01*
X135052165Y-30139830D01*
X135031918Y-30091291D01*
X135014596Y-30051775D01*
X135001332Y-30023842D01*
X134993260Y-30010050D01*
X134991893Y-30009037D01*
X134976577Y-30013131D01*
G36*
X131253821Y-30291253D02*
G01*
X131197825Y-30347839D01*
X131300919Y-30451253D01*
X131336633Y-30486762D01*
X131367658Y-30517011D01*
X131391604Y-30539717D01*
X131406081Y-30552597D01*
X131409171Y-30554667D01*
X131417723Y-30548441D01*
X131435902Y-30531891D01*
X131460248Y-30508209D01*
X131468068Y-30500361D01*
X131521807Y-30446056D01*
X131415811Y-30340362D01*
X131309816Y-30234667D01*
X131253821Y-30291253D01*
G37*
X131253821Y-30291253D02*
X131197825Y-30347839D01*
X131300919Y-30451253D01*
X131336633Y-30486762D01*
X131367658Y-30517011D01*
X131391604Y-30539717D01*
X131406081Y-30552597D01*
X131409171Y-30554667D01*
X131417723Y-30548441D01*
X131435902Y-30531891D01*
X131460248Y-30508209D01*
X131468068Y-30500361D01*
X131521807Y-30446056D01*
X131415811Y-30340362D01*
X131309816Y-30234667D01*
X131253821Y-30291253D01*
G36*
X131413747Y-30131327D02*
G01*
X131357751Y-30187913D01*
X131460845Y-30291327D01*
X131496559Y-30326836D01*
X131527584Y-30357085D01*
X131551530Y-30379791D01*
X131566007Y-30392671D01*
X131569097Y-30394741D01*
X131577649Y-30388515D01*
X131595828Y-30371965D01*
X131620174Y-30348283D01*
X131627994Y-30340436D01*
X131681733Y-30286130D01*
X131575737Y-30180436D01*
X131469742Y-30074741D01*
X131413747Y-30131327D01*
G37*
X131413747Y-30131327D02*
X131357751Y-30187913D01*
X131460845Y-30291327D01*
X131496559Y-30326836D01*
X131527584Y-30357085D01*
X131551530Y-30379791D01*
X131566007Y-30392671D01*
X131569097Y-30394741D01*
X131577649Y-30388515D01*
X131595828Y-30371965D01*
X131620174Y-30348283D01*
X131627994Y-30340436D01*
X131681733Y-30286130D01*
X131575737Y-30180436D01*
X131469742Y-30074741D01*
X131413747Y-30131327D01*
G36*
X131576234Y-29968817D02*
G01*
X131550961Y-29994930D01*
X131531953Y-30016670D01*
X131522445Y-30030269D01*
X131521926Y-30032101D01*
X131528311Y-30042221D01*
X131545522Y-30062264D01*
X131570639Y-30089303D01*
X131600741Y-30120417D01*
X131632909Y-30152679D01*
X131664224Y-30183168D01*
X131691766Y-30208957D01*
X131712615Y-30227125D01*
X131723852Y-30234745D01*
X131724338Y-30234815D01*
X131735337Y-30228538D01*
X131755211Y-30211976D01*
X131779925Y-30188527D01*
X131783302Y-30185130D01*
X131807082Y-30159922D01*
X131824514Y-30139289D01*
X131832251Y-30127233D01*
X131832370Y-30126488D01*
X131826048Y-30117033D01*
X131808627Y-30096914D01*
X131782421Y-30068659D01*
X131749745Y-30034796D01*
X131731457Y-30016302D01*
X131630543Y-29915075D01*
X131576234Y-29968817D01*
G37*
X131576234Y-29968817D02*
X131550961Y-29994930D01*
X131531953Y-30016670D01*
X131522445Y-30030269D01*
X131521926Y-30032101D01*
X131528311Y-30042221D01*
X131545522Y-30062264D01*
X131570639Y-30089303D01*
X131600741Y-30120417D01*
X131632909Y-30152679D01*
X131664224Y-30183168D01*
X131691766Y-30208957D01*
X131712615Y-30227125D01*
X131723852Y-30234745D01*
X131724338Y-30234815D01*
X131735337Y-30228538D01*
X131755211Y-30211976D01*
X131779925Y-30188527D01*
X131783302Y-30185130D01*
X131807082Y-30159922D01*
X131824514Y-30139289D01*
X131832251Y-30127233D01*
X131832370Y-30126488D01*
X131826048Y-30117033D01*
X131808627Y-30096914D01*
X131782421Y-30068659D01*
X131749745Y-30034796D01*
X131731457Y-30016302D01*
X131630543Y-29915075D01*
X131576234Y-29968817D01*
G36*
X131731074Y-29813981D02*
G01*
X131672536Y-29873043D01*
X131773774Y-29973966D01*
X131809566Y-30009049D01*
X131841095Y-30038831D01*
X131865816Y-30060996D01*
X131881185Y-30073224D01*
X131884586Y-30074889D01*
X131895423Y-30068617D01*
X131915172Y-30052065D01*
X131939824Y-30028629D01*
X131943228Y-30025204D01*
X131967015Y-29999948D01*
X131984449Y-29979207D01*
X131992179Y-29967008D01*
X131992296Y-29966248D01*
X131985953Y-29956703D01*
X131968470Y-29936540D01*
X131942172Y-29908287D01*
X131909378Y-29874470D01*
X131890953Y-29855947D01*
X131789611Y-29754919D01*
X131731074Y-29813981D01*
G37*
X131731074Y-29813981D02*
X131672536Y-29873043D01*
X131773774Y-29973966D01*
X131809566Y-30009049D01*
X131841095Y-30038831D01*
X131865816Y-30060996D01*
X131881185Y-30073224D01*
X131884586Y-30074889D01*
X131895423Y-30068617D01*
X131915172Y-30052065D01*
X131939824Y-30028629D01*
X131943228Y-30025204D01*
X131967015Y-29999948D01*
X131984449Y-29979207D01*
X131992179Y-29967008D01*
X131992296Y-29966248D01*
X131985953Y-29956703D01*
X131968470Y-29936540D01*
X131942172Y-29908287D01*
X131909378Y-29874470D01*
X131890953Y-29855947D01*
X131789611Y-29754919D01*
X131731074Y-29813981D01*
G36*
X129125669Y-29860584D02*
G01*
X129019674Y-29966278D01*
X129073413Y-30020584D01*
X129098912Y-30045754D01*
X129119262Y-30064730D01*
X129131001Y-30074319D01*
X129132310Y-30074889D01*
X129140381Y-30068570D01*
X129159270Y-30051135D01*
X129186589Y-30024867D01*
X129219948Y-29992049D01*
X129240562Y-29971475D01*
X129343655Y-29868061D01*
X129231665Y-29754889D01*
X129125669Y-29860584D01*
G37*
X129125669Y-29860584D02*
X129019674Y-29966278D01*
X129073413Y-30020584D01*
X129098912Y-30045754D01*
X129119262Y-30064730D01*
X129131001Y-30074319D01*
X129132310Y-30074889D01*
X129140381Y-30068570D01*
X129159270Y-30051135D01*
X129186589Y-30024867D01*
X129219948Y-29992049D01*
X129240562Y-29971475D01*
X129343655Y-29868061D01*
X129231665Y-29754889D01*
X129125669Y-29860584D01*
G36*
X131890999Y-29654055D02*
G01*
X131832462Y-29713117D01*
X131933699Y-29814040D01*
X131969492Y-29849123D01*
X132001021Y-29878905D01*
X132025742Y-29901070D01*
X132041110Y-29913298D01*
X132044512Y-29914963D01*
X132055349Y-29908691D01*
X132075098Y-29892139D01*
X132099750Y-29868703D01*
X132103154Y-29865278D01*
X132126941Y-29840022D01*
X132144375Y-29819281D01*
X132152105Y-29807082D01*
X132152222Y-29806322D01*
X132145878Y-29796777D01*
X132128396Y-29776614D01*
X132102098Y-29748361D01*
X132069304Y-29714544D01*
X132050879Y-29696021D01*
X131949537Y-29594993D01*
X131890999Y-29654055D01*
G37*
X131890999Y-29654055D02*
X131832462Y-29713117D01*
X131933699Y-29814040D01*
X131969492Y-29849123D01*
X132001021Y-29878905D01*
X132025742Y-29901070D01*
X132041110Y-29913298D01*
X132044512Y-29914963D01*
X132055349Y-29908691D01*
X132075098Y-29892139D01*
X132099750Y-29868703D01*
X132103154Y-29865278D01*
X132126941Y-29840022D01*
X132144375Y-29819281D01*
X132152105Y-29807082D01*
X132152222Y-29806322D01*
X132145878Y-29796777D01*
X132128396Y-29776614D01*
X132102098Y-29748361D01*
X132069304Y-29714544D01*
X132050879Y-29696021D01*
X131949537Y-29594993D01*
X131890999Y-29654055D01*
G36*
X128965743Y-29700658D02*
G01*
X128859748Y-29806352D01*
X128913487Y-29860658D01*
X128938986Y-29885829D01*
X128959336Y-29904804D01*
X128971075Y-29914394D01*
X128972384Y-29914963D01*
X128980455Y-29908644D01*
X128999344Y-29891209D01*
X129026663Y-29864941D01*
X129060022Y-29832123D01*
X129080636Y-29811549D01*
X129183729Y-29708135D01*
X129071739Y-29594963D01*
X128965743Y-29700658D01*
G37*
X128965743Y-29700658D02*
X128859748Y-29806352D01*
X128913487Y-29860658D01*
X128938986Y-29885829D01*
X128959336Y-29904804D01*
X128971075Y-29914394D01*
X128972384Y-29914963D01*
X128980455Y-29908644D01*
X128999344Y-29891209D01*
X129026663Y-29864941D01*
X129060022Y-29832123D01*
X129080636Y-29811549D01*
X129183729Y-29708135D01*
X129071739Y-29594963D01*
X128965743Y-29700658D01*
G36*
X131992388Y-29553191D02*
G01*
X132093625Y-29654114D01*
X132129418Y-29689197D01*
X132160947Y-29718979D01*
X132185668Y-29741144D01*
X132201036Y-29753373D01*
X132204438Y-29755037D01*
X132215274Y-29748765D01*
X132235023Y-29732213D01*
X132259676Y-29708777D01*
X132263080Y-29705352D01*
X132286867Y-29680097D01*
X132304301Y-29659355D01*
X132312031Y-29647156D01*
X132312148Y-29646396D01*
X132305804Y-29636851D01*
X132288322Y-29616688D01*
X132262024Y-29588435D01*
X132229230Y-29554618D01*
X132210805Y-29536095D01*
X132109462Y-29435067D01*
X131992388Y-29553191D01*
G37*
X131992388Y-29553191D02*
X132093625Y-29654114D01*
X132129418Y-29689197D01*
X132160947Y-29718979D01*
X132185668Y-29741144D01*
X132201036Y-29753373D01*
X132204438Y-29755037D01*
X132215274Y-29748765D01*
X132235023Y-29732213D01*
X132259676Y-29708777D01*
X132263080Y-29705352D01*
X132286867Y-29680097D01*
X132304301Y-29659355D01*
X132312031Y-29647156D01*
X132312148Y-29646396D01*
X132305804Y-29636851D01*
X132288322Y-29616688D01*
X132262024Y-29588435D01*
X132229230Y-29554618D01*
X132210805Y-29536095D01*
X132109462Y-29435067D01*
X131992388Y-29553191D01*
G36*
X128805817Y-29540732D02*
G01*
X128699822Y-29646426D01*
X128753561Y-29700732D01*
X128779060Y-29725903D01*
X128799410Y-29744878D01*
X128811149Y-29754468D01*
X128812458Y-29755037D01*
X128820529Y-29748718D01*
X128839419Y-29731283D01*
X128866738Y-29705016D01*
X128900096Y-29672198D01*
X128920710Y-29651623D01*
X129023803Y-29548209D01*
X128911813Y-29435037D01*
X128805817Y-29540732D01*
G37*
X128805817Y-29540732D02*
X128699822Y-29646426D01*
X128753561Y-29700732D01*
X128779060Y-29725903D01*
X128799410Y-29744878D01*
X128811149Y-29754468D01*
X128812458Y-29755037D01*
X128820529Y-29748718D01*
X128839419Y-29731283D01*
X128866738Y-29705016D01*
X128900096Y-29672198D01*
X128920710Y-29651623D01*
X129023803Y-29548209D01*
X128911813Y-29435037D01*
X128805817Y-29540732D01*
G36*
X132193962Y-29027603D02*
G01*
X132173799Y-29045085D01*
X132145545Y-29071384D01*
X132111729Y-29104177D01*
X132093206Y-29122602D01*
X131992177Y-29223945D01*
X132051239Y-29282482D01*
X132110302Y-29341019D01*
X132211225Y-29239782D01*
X132246308Y-29203989D01*
X132276090Y-29172461D01*
X132298254Y-29147739D01*
X132310483Y-29132371D01*
X132312148Y-29128970D01*
X132305728Y-29117750D01*
X132289256Y-29098371D01*
X132266914Y-29074981D01*
X132242883Y-29051725D01*
X132221346Y-29032748D01*
X132206484Y-29022197D01*
X132203506Y-29021259D01*
X132193962Y-29027603D01*
G37*
X132193962Y-29027603D02*
X132173799Y-29045085D01*
X132145545Y-29071384D01*
X132111729Y-29104177D01*
X132093206Y-29122602D01*
X131992177Y-29223945D01*
X132051239Y-29282482D01*
X132110302Y-29341019D01*
X132211225Y-29239782D01*
X132246308Y-29203989D01*
X132276090Y-29172461D01*
X132298254Y-29147739D01*
X132310483Y-29132371D01*
X132312148Y-29128970D01*
X132305728Y-29117750D01*
X132289256Y-29098371D01*
X132266914Y-29074981D01*
X132242883Y-29051725D01*
X132221346Y-29032748D01*
X132206484Y-29022197D01*
X132203506Y-29021259D01*
X132193962Y-29027603D01*
G36*
X128699644Y-29129692D02*
G01*
X128805728Y-29235476D01*
X128911813Y-29341259D01*
X129023911Y-29227979D01*
X128812634Y-29016702D01*
X128699644Y-29129692D01*
G37*
X128699644Y-29129692D02*
X128805728Y-29235476D01*
X128911813Y-29341259D01*
X129023911Y-29227979D01*
X128812634Y-29016702D01*
X128699644Y-29129692D01*
G36*
X132034036Y-28867677D02*
G01*
X132013873Y-28885159D01*
X131985619Y-28911458D01*
X131951803Y-28944251D01*
X131933280Y-28962676D01*
X131832252Y-29064019D01*
X131950376Y-29181093D01*
X132051299Y-29079856D01*
X132086382Y-29044064D01*
X132116164Y-29012535D01*
X132138328Y-28987814D01*
X132150557Y-28972445D01*
X132152222Y-28969044D01*
X132145802Y-28957824D01*
X132129330Y-28938445D01*
X132106988Y-28915055D01*
X132082957Y-28891799D01*
X132061420Y-28872822D01*
X132046558Y-28862271D01*
X132043580Y-28861333D01*
X132034036Y-28867677D01*
G37*
X132034036Y-28867677D02*
X132013873Y-28885159D01*
X131985619Y-28911458D01*
X131951803Y-28944251D01*
X131933280Y-28962676D01*
X131832252Y-29064019D01*
X131950376Y-29181093D01*
X132051299Y-29079856D01*
X132086382Y-29044064D01*
X132116164Y-29012535D01*
X132138328Y-28987814D01*
X132150557Y-28972445D01*
X132152222Y-28969044D01*
X132145802Y-28957824D01*
X132129330Y-28938445D01*
X132106988Y-28915055D01*
X132082957Y-28891799D01*
X132061420Y-28872822D01*
X132046558Y-28862271D01*
X132043580Y-28861333D01*
X132034036Y-28867677D01*
G36*
X128859570Y-28969766D02*
G01*
X128965654Y-29075550D01*
X129071739Y-29181333D01*
X129183837Y-29068053D01*
X128972560Y-28856776D01*
X128859570Y-28969766D01*
G37*
X128859570Y-28969766D02*
X128965654Y-29075550D01*
X129071739Y-29181333D01*
X129183837Y-29068053D01*
X128972560Y-28856776D01*
X128859570Y-28969766D01*
G36*
X131874110Y-28707751D02*
G01*
X131853947Y-28725233D01*
X131825693Y-28751532D01*
X131791877Y-28784325D01*
X131773354Y-28802750D01*
X131672326Y-28904093D01*
X131790450Y-29021167D01*
X131891373Y-28919930D01*
X131926456Y-28884138D01*
X131956238Y-28852609D01*
X131978402Y-28827888D01*
X131990631Y-28812519D01*
X131992296Y-28809118D01*
X131985876Y-28797898D01*
X131969404Y-28778520D01*
X131947062Y-28755129D01*
X131923031Y-28731873D01*
X131901494Y-28712896D01*
X131886632Y-28702346D01*
X131883655Y-28701408D01*
X131874110Y-28707751D01*
G37*
X131874110Y-28707751D02*
X131853947Y-28725233D01*
X131825693Y-28751532D01*
X131791877Y-28784325D01*
X131773354Y-28802750D01*
X131672326Y-28904093D01*
X131790450Y-29021167D01*
X131891373Y-28919930D01*
X131926456Y-28884138D01*
X131956238Y-28852609D01*
X131978402Y-28827888D01*
X131990631Y-28812519D01*
X131992296Y-28809118D01*
X131985876Y-28797898D01*
X131969404Y-28778520D01*
X131947062Y-28755129D01*
X131923031Y-28731873D01*
X131901494Y-28712896D01*
X131886632Y-28702346D01*
X131883655Y-28701408D01*
X131874110Y-28707751D01*
G36*
X129019496Y-28809840D02*
G01*
X129125580Y-28915624D01*
X129231665Y-29021407D01*
X129343763Y-28908127D01*
X129238124Y-28802489D01*
X129132486Y-28696850D01*
X129019496Y-28809840D01*
G37*
X129019496Y-28809840D02*
X129125580Y-28915624D01*
X129231665Y-29021407D01*
X129343763Y-28908127D01*
X129238124Y-28802489D01*
X129132486Y-28696850D01*
X129019496Y-28809840D01*
G36*
X131517368Y-28748403D02*
G01*
X131630358Y-28861393D01*
X131736142Y-28755308D01*
X131841925Y-28649224D01*
X131728645Y-28537126D01*
X131517368Y-28748403D01*
G37*
X131517368Y-28748403D02*
X131630358Y-28861393D01*
X131736142Y-28755308D01*
X131841925Y-28649224D01*
X131728645Y-28537126D01*
X131517368Y-28748403D01*
G36*
X129179422Y-28649914D02*
G01*
X129285506Y-28755698D01*
X129391590Y-28861481D01*
X129447640Y-28804841D01*
X129503689Y-28748201D01*
X129398050Y-28642563D01*
X129292412Y-28536924D01*
X129179422Y-28649914D01*
G37*
X129179422Y-28649914D02*
X129285506Y-28755698D01*
X129391590Y-28861481D01*
X129447640Y-28804841D01*
X129503689Y-28748201D01*
X129398050Y-28642563D01*
X129292412Y-28536924D01*
X129179422Y-28649914D01*
G36*
X131357442Y-28588477D02*
G01*
X131470432Y-28701467D01*
X131576216Y-28595383D01*
X131681999Y-28489298D01*
X131568719Y-28377200D01*
X131357442Y-28588477D01*
G37*
X131357442Y-28588477D02*
X131470432Y-28701467D01*
X131576216Y-28595383D01*
X131681999Y-28489298D01*
X131568719Y-28377200D01*
X131357442Y-28588477D01*
G36*
X129339348Y-28489988D02*
G01*
X129445432Y-28595772D01*
X129551516Y-28701555D01*
X129607565Y-28644915D01*
X129663615Y-28588275D01*
X129557976Y-28482637D01*
X129452338Y-28376998D01*
X129339348Y-28489988D01*
G37*
X129339348Y-28489988D02*
X129445432Y-28595772D01*
X129551516Y-28701555D01*
X129607565Y-28644915D01*
X129663615Y-28588275D01*
X129557976Y-28482637D01*
X129452338Y-28376998D01*
X129339348Y-28489988D01*
G36*
X131197516Y-28428551D02*
G01*
X131254011Y-28485046D01*
X131310507Y-28541541D01*
X131416290Y-28435457D01*
X131522073Y-28329372D01*
X131408793Y-28217274D01*
X131197516Y-28428551D01*
G37*
X131197516Y-28428551D02*
X131254011Y-28485046D01*
X131310507Y-28541541D01*
X131416290Y-28435457D01*
X131522073Y-28329372D01*
X131408793Y-28217274D01*
X131197516Y-28428551D01*
G36*
X129555769Y-28273567D02*
G01*
X129499274Y-28330063D01*
X129711442Y-28541629D01*
X129767491Y-28484989D01*
X129823541Y-28428349D01*
X129717902Y-28322711D01*
X129612264Y-28217072D01*
X129555769Y-28273567D01*
G37*
X129555769Y-28273567D02*
X129499274Y-28330063D01*
X129711442Y-28541629D01*
X129767491Y-28484989D01*
X129823541Y-28428349D01*
X129717902Y-28322711D01*
X129612264Y-28217072D01*
X129555769Y-28273567D01*
G36*
X131143229Y-28162987D02*
G01*
X131037590Y-28268625D01*
X131094086Y-28325120D01*
X131150581Y-28381615D01*
X131256364Y-28275531D01*
X131362147Y-28169446D01*
X131248867Y-28057348D01*
X131143229Y-28162987D01*
G37*
X131143229Y-28162987D02*
X131037590Y-28268625D01*
X131094086Y-28325120D01*
X131150581Y-28381615D01*
X131256364Y-28275531D01*
X131362147Y-28169446D01*
X131248867Y-28057348D01*
X131143229Y-28162987D01*
G36*
X129654810Y-28174526D02*
G01*
X129758004Y-28278041D01*
X129793736Y-28313569D01*
X129824780Y-28343837D01*
X129848746Y-28366565D01*
X129863247Y-28379470D01*
X129866356Y-28381556D01*
X129874872Y-28375322D01*
X129893106Y-28358703D01*
X129917679Y-28334825D01*
X129927490Y-28324989D01*
X129983466Y-28268423D01*
X129877828Y-28162785D01*
X129772190Y-28057146D01*
X129654810Y-28174526D01*
G37*
X129654810Y-28174526D02*
X129758004Y-28278041D01*
X129793736Y-28313569D01*
X129824780Y-28343837D01*
X129848746Y-28366565D01*
X129863247Y-28379470D01*
X129866356Y-28381556D01*
X129874872Y-28375322D01*
X129893106Y-28358703D01*
X129917679Y-28334825D01*
X129927490Y-28324989D01*
X129983466Y-28268423D01*
X129877828Y-28162785D01*
X129772190Y-28057146D01*
X129654810Y-28174526D01*
G36*
X130983303Y-28003061D02*
G01*
X130877665Y-28108699D01*
X130990655Y-28221689D01*
X131096438Y-28115605D01*
X131202222Y-28009520D01*
X131145581Y-27953471D01*
X131088941Y-27897422D01*
X130983303Y-28003061D01*
G37*
X130983303Y-28003061D02*
X130877665Y-28108699D01*
X130990655Y-28221689D01*
X131096438Y-28115605D01*
X131202222Y-28009520D01*
X131145581Y-27953471D01*
X131088941Y-27897422D01*
X130983303Y-28003061D01*
G36*
X129873426Y-27955910D02*
G01*
X129814736Y-28014600D01*
X129917929Y-28118115D01*
X129953662Y-28153643D01*
X129984706Y-28183911D01*
X130008672Y-28206639D01*
X130023173Y-28219544D01*
X130026282Y-28221630D01*
X130034798Y-28215396D01*
X130053032Y-28198777D01*
X130077605Y-28174899D01*
X130087416Y-28165064D01*
X130143392Y-28108497D01*
X129932116Y-27897221D01*
X129873426Y-27955910D01*
G37*
X129873426Y-27955910D02*
X129814736Y-28014600D01*
X129917929Y-28118115D01*
X129953662Y-28153643D01*
X129984706Y-28183911D01*
X130008672Y-28206639D01*
X130023173Y-28219544D01*
X130026282Y-28221630D01*
X130034798Y-28215396D01*
X130053032Y-28198777D01*
X130077605Y-28174899D01*
X130087416Y-28165064D01*
X130143392Y-28108497D01*
X129932116Y-27897221D01*
X129873426Y-27955910D01*
G36*
X130823377Y-27843135D02*
G01*
X130717739Y-27948773D01*
X130830729Y-28061763D01*
X130936512Y-27955679D01*
X131042296Y-27849594D01*
X130985656Y-27793545D01*
X130929015Y-27737496D01*
X130823377Y-27843135D01*
G37*
X130823377Y-27843135D02*
X130717739Y-27948773D01*
X130830729Y-28061763D01*
X130936512Y-27955679D01*
X131042296Y-27849594D01*
X130985656Y-27793545D01*
X130929015Y-27737496D01*
X130823377Y-27843135D01*
G36*
X129974662Y-27854674D02*
G01*
X130077855Y-27958189D01*
X130113588Y-27993717D01*
X130144632Y-28023985D01*
X130168598Y-28046713D01*
X130183098Y-28059618D01*
X130186208Y-28061704D01*
X130194724Y-28055470D01*
X130212958Y-28038851D01*
X130237531Y-28014973D01*
X130247342Y-28005138D01*
X130303318Y-27948571D01*
X130197680Y-27842933D01*
X130092041Y-27737295D01*
X129974662Y-27854674D01*
G37*
X129974662Y-27854674D02*
X130077855Y-27958189D01*
X130113588Y-27993717D01*
X130144632Y-28023985D01*
X130168598Y-28046713D01*
X130183098Y-28059618D01*
X130186208Y-28061704D01*
X130194724Y-28055470D01*
X130212958Y-28038851D01*
X130237531Y-28014973D01*
X130247342Y-28005138D01*
X130303318Y-27948571D01*
X130197680Y-27842933D01*
X130092041Y-27737295D01*
X129974662Y-27854674D01*
G36*
X130663451Y-27683209D02*
G01*
X130557813Y-27788847D01*
X130670803Y-27901837D01*
X130776586Y-27795753D01*
X130882370Y-27689669D01*
X130825730Y-27633619D01*
X130769089Y-27577570D01*
X130663451Y-27683209D01*
G37*
X130663451Y-27683209D02*
X130557813Y-27788847D01*
X130670803Y-27901837D01*
X130776586Y-27795753D01*
X130882370Y-27689669D01*
X130825730Y-27633619D01*
X130769089Y-27577570D01*
X130663451Y-27683209D01*
G36*
X130134588Y-27694748D02*
G01*
X130237781Y-27798263D01*
X130273514Y-27833791D01*
X130304557Y-27864059D01*
X130328524Y-27886787D01*
X130343024Y-27899692D01*
X130346134Y-27901778D01*
X130354650Y-27895544D01*
X130372884Y-27878925D01*
X130397457Y-27855047D01*
X130407268Y-27845212D01*
X130463244Y-27788645D01*
X130357606Y-27683007D01*
X130251967Y-27577369D01*
X130134588Y-27694748D01*
G37*
X130134588Y-27694748D02*
X130237781Y-27798263D01*
X130273514Y-27833791D01*
X130304557Y-27864059D01*
X130328524Y-27886787D01*
X130343024Y-27899692D01*
X130346134Y-27901778D01*
X130354650Y-27895544D01*
X130372884Y-27878925D01*
X130397457Y-27855047D01*
X130407268Y-27845212D01*
X130463244Y-27788645D01*
X130357606Y-27683007D01*
X130251967Y-27577369D01*
X130134588Y-27694748D01*
G36*
X131955241Y-24999237D02*
G01*
X131950460Y-25009050D01*
X131941875Y-25032890D01*
X131930620Y-25066998D01*
X131917830Y-25107616D01*
X131904639Y-25150985D01*
X131892180Y-25193347D01*
X131881588Y-25230943D01*
X131873997Y-25260013D01*
X131870542Y-25276800D01*
X131870705Y-25279405D01*
X131880747Y-25283210D01*
X131904755Y-25291572D01*
X131938826Y-25303147D01*
X131968616Y-25313122D01*
X132197606Y-25398269D01*
X132426154Y-25500732D01*
X132651743Y-25619124D01*
X132871853Y-25752059D01*
X133083965Y-25898154D01*
X133215259Y-25998642D01*
X133264003Y-26039007D01*
X133320066Y-26087894D01*
X133380710Y-26142691D01*
X133443200Y-26200790D01*
X133504797Y-26259581D01*
X133562766Y-26316455D01*
X133614369Y-26368802D01*
X133656868Y-26414011D01*
X133685629Y-26447124D01*
X133707741Y-26472800D01*
X133726106Y-26491417D01*
X133736976Y-26499199D01*
X133737370Y-26499240D01*
X133747754Y-26493819D01*
X133770167Y-26478821D01*
X133801798Y-26456232D01*
X133839832Y-26428037D01*
X133861357Y-26411706D01*
X133975937Y-26324092D01*
X133939199Y-26279635D01*
X133869928Y-26200049D01*
X133788575Y-26113747D01*
X133698808Y-26024306D01*
X133604295Y-25935301D01*
X133508706Y-25850306D01*
X133436333Y-25789562D01*
X133406810Y-25764918D01*
X133383407Y-25744308D01*
X133369621Y-25730860D01*
X133367474Y-25727947D01*
X133371410Y-25717416D01*
X133384459Y-25695704D01*
X133404277Y-25666556D01*
X133416863Y-25649180D01*
X133439636Y-25617625D01*
X133457336Y-25591652D01*
X133463133Y-25582121D01*
X133397262Y-25582121D01*
X133394221Y-25595358D01*
X133381881Y-25616668D01*
X133364256Y-25642031D01*
X133323444Y-25698876D01*
X133295222Y-25677782D01*
X133277090Y-25664621D01*
X133247312Y-25643435D01*
X133209704Y-25616921D01*
X133168081Y-25587779D01*
X133158814Y-25581319D01*
X133112010Y-25549170D01*
X133063525Y-25516642D01*
X133018942Y-25487436D01*
X132983844Y-25465254D01*
X132982506Y-25464437D01*
X132951540Y-25444840D01*
X132927914Y-25428500D01*
X132915378Y-25418069D01*
X132914302Y-25416249D01*
X132918953Y-25405543D01*
X132931272Y-25383632D01*
X132948676Y-25355086D01*
X132950199Y-25352671D01*
X132986176Y-25295771D01*
X133183032Y-25428665D01*
X133237486Y-25465553D01*
X133287167Y-25499450D01*
X133329812Y-25528792D01*
X133363156Y-25552014D01*
X133384934Y-25567553D01*
X133392479Y-25573372D01*
X133397262Y-25582121D01*
X133463133Y-25582121D01*
X133467477Y-25574980D01*
X133468938Y-25571184D01*
X133461340Y-25564381D01*
X133439950Y-25548450D01*
X133406633Y-25524696D01*
X133363252Y-25494425D01*
X133311671Y-25458942D01*
X133253756Y-25419555D01*
X133220348Y-25397018D01*
X132972079Y-25229998D01*
X132921984Y-25309815D01*
X132900266Y-25343445D01*
X132881880Y-25370118D01*
X132869252Y-25386411D01*
X132865247Y-25389816D01*
X132854234Y-25385451D01*
X132832289Y-25373918D01*
X132808803Y-25360434D01*
X132770560Y-25339009D01*
X132718841Y-25311862D01*
X132657408Y-25280811D01*
X132590022Y-25247673D01*
X132520444Y-25214267D01*
X132452437Y-25182409D01*
X132389763Y-25153917D01*
X132336183Y-25130609D01*
X132315562Y-25122103D01*
X132264445Y-25102059D01*
X132209355Y-25081365D01*
X132153198Y-25061011D01*
X132098878Y-25041988D01*
X132049300Y-25025286D01*
X132007368Y-25011896D01*
X131975986Y-25002809D01*
X131958061Y-24999014D01*
X131955241Y-24999237D01*
G37*
X131955241Y-24999237D02*
X131950460Y-25009050D01*
X131941875Y-25032890D01*
X131930620Y-25066998D01*
X131917830Y-25107616D01*
X131904639Y-25150985D01*
X131892180Y-25193347D01*
X131881588Y-25230943D01*
X131873997Y-25260013D01*
X131870542Y-25276800D01*
X131870705Y-25279405D01*
X131880747Y-25283210D01*
X131904755Y-25291572D01*
X131938826Y-25303147D01*
X131968616Y-25313122D01*
X132197606Y-25398269D01*
X132426154Y-25500732D01*
X132651743Y-25619124D01*
X132871853Y-25752059D01*
X133083965Y-25898154D01*
X133215259Y-25998642D01*
X133264003Y-26039007D01*
X133320066Y-26087894D01*
X133380710Y-26142691D01*
X133443200Y-26200790D01*
X133504797Y-26259581D01*
X133562766Y-26316455D01*
X133614369Y-26368802D01*
X133656868Y-26414011D01*
X133685629Y-26447124D01*
X133707741Y-26472800D01*
X133726106Y-26491417D01*
X133736976Y-26499199D01*
X133737370Y-26499240D01*
X133747754Y-26493819D01*
X133770167Y-26478821D01*
X133801798Y-26456232D01*
X133839832Y-26428037D01*
X133861357Y-26411706D01*
X133975937Y-26324092D01*
X133939199Y-26279635D01*
X133869928Y-26200049D01*
X133788575Y-26113747D01*
X133698808Y-26024306D01*
X133604295Y-25935301D01*
X133508706Y-25850306D01*
X133436333Y-25789562D01*
X133406810Y-25764918D01*
X133383407Y-25744308D01*
X133369621Y-25730860D01*
X133367474Y-25727947D01*
X133371410Y-25717416D01*
X133384459Y-25695704D01*
X133404277Y-25666556D01*
X133416863Y-25649180D01*
X133439636Y-25617625D01*
X133457336Y-25591652D01*
X133463133Y-25582121D01*
X133397262Y-25582121D01*
X133394221Y-25595358D01*
X133381881Y-25616668D01*
X133364256Y-25642031D01*
X133323444Y-25698876D01*
X133295222Y-25677782D01*
X133277090Y-25664621D01*
X133247312Y-25643435D01*
X133209704Y-25616921D01*
X133168081Y-25587779D01*
X133158814Y-25581319D01*
X133112010Y-25549170D01*
X133063525Y-25516642D01*
X133018942Y-25487436D01*
X132983844Y-25465254D01*
X132982506Y-25464437D01*
X132951540Y-25444840D01*
X132927914Y-25428500D01*
X132915378Y-25418069D01*
X132914302Y-25416249D01*
X132918953Y-25405543D01*
X132931272Y-25383632D01*
X132948676Y-25355086D01*
X132950199Y-25352671D01*
X132986176Y-25295771D01*
X133183032Y-25428665D01*
X133237486Y-25465553D01*
X133287167Y-25499450D01*
X133329812Y-25528792D01*
X133363156Y-25552014D01*
X133384934Y-25567553D01*
X133392479Y-25573372D01*
X133397262Y-25582121D01*
X133463133Y-25582121D01*
X133467477Y-25574980D01*
X133468938Y-25571184D01*
X133461340Y-25564381D01*
X133439950Y-25548450D01*
X133406633Y-25524696D01*
X133363252Y-25494425D01*
X133311671Y-25458942D01*
X133253756Y-25419555D01*
X133220348Y-25397018D01*
X132972079Y-25229998D01*
X132921984Y-25309815D01*
X132900266Y-25343445D01*
X132881880Y-25370118D01*
X132869252Y-25386411D01*
X132865247Y-25389816D01*
X132854234Y-25385451D01*
X132832289Y-25373918D01*
X132808803Y-25360434D01*
X132770560Y-25339009D01*
X132718841Y-25311862D01*
X132657408Y-25280811D01*
X132590022Y-25247673D01*
X132520444Y-25214267D01*
X132452437Y-25182409D01*
X132389763Y-25153917D01*
X132336183Y-25130609D01*
X132315562Y-25122103D01*
X132264445Y-25102059D01*
X132209355Y-25081365D01*
X132153198Y-25061011D01*
X132098878Y-25041988D01*
X132049300Y-25025286D01*
X132007368Y-25011896D01*
X131975986Y-25002809D01*
X131958061Y-24999014D01*
X131955241Y-24999237D01*
G36*
X131745360Y-29311465D02*
G01*
X131715614Y-29331889D01*
X131693798Y-29359459D01*
X131690274Y-29367220D01*
X131686931Y-29398818D01*
X131695907Y-29433097D01*
X131714469Y-29461450D01*
X131722294Y-29468082D01*
X131752107Y-29479545D01*
X131788297Y-29481137D01*
X131821221Y-29472860D01*
X131829557Y-29468082D01*
X131850700Y-29443608D01*
X131863167Y-29410344D01*
X131863481Y-29400408D01*
X131822059Y-29400408D01*
X131807941Y-29426778D01*
X131807393Y-29427389D01*
X131784688Y-29442820D01*
X131760863Y-29439563D01*
X131746092Y-29429024D01*
X131730235Y-29404930D01*
X131730221Y-29380377D01*
X131744062Y-29360594D01*
X131769771Y-29350814D01*
X131775926Y-29350519D01*
X131804142Y-29357616D01*
X131820156Y-29375800D01*
X131822059Y-29400408D01*
X131863481Y-29400408D01*
X131864224Y-29376899D01*
X131861577Y-29367220D01*
X131843022Y-29338650D01*
X131814669Y-29315838D01*
X131783630Y-29304077D01*
X131775926Y-29303482D01*
X131745360Y-29311465D01*
G37*
X131745360Y-29311465D02*
X131715614Y-29331889D01*
X131693798Y-29359459D01*
X131690274Y-29367220D01*
X131686931Y-29398818D01*
X131695907Y-29433097D01*
X131714469Y-29461450D01*
X131722294Y-29468082D01*
X131752107Y-29479545D01*
X131788297Y-29481137D01*
X131821221Y-29472860D01*
X131829557Y-29468082D01*
X131850700Y-29443608D01*
X131863167Y-29410344D01*
X131863481Y-29400408D01*
X131822059Y-29400408D01*
X131807941Y-29426778D01*
X131807393Y-29427389D01*
X131784688Y-29442820D01*
X131760863Y-29439563D01*
X131746092Y-29429024D01*
X131730235Y-29404930D01*
X131730221Y-29380377D01*
X131744062Y-29360594D01*
X131769771Y-29350814D01*
X131775926Y-29350519D01*
X131804142Y-29357616D01*
X131820156Y-29375800D01*
X131822059Y-29400408D01*
X131863481Y-29400408D01*
X131864224Y-29376899D01*
X131861577Y-29367220D01*
X131843022Y-29338650D01*
X131814669Y-29315838D01*
X131783630Y-29304077D01*
X131775926Y-29303482D01*
X131745360Y-29311465D01*
%TD*%
M02*
