%TF.GenerationSoftware,KiCad,Pcbnew,(5.1.6)-1*%
%TF.CreationDate,2020-10-06T21:24:19+08:00*%
%TF.ProjectId,esp32,65737033-322e-46b6-9963-61645f706362,rev?*%
%TF.SameCoordinates,Original*%
%TF.FileFunction,Copper,L2,Bot*%
%TF.FilePolarity,Positive*%
%FSLAX46Y46*%
G04 Gerber Fmt 4.6, Leading zero omitted, Abs format (unit mm)*
G04 Created by KiCad (PCBNEW (5.1.6)-1) date 2020-10-06 21:24:19*
%MOMM*%
%LPD*%
G01*
G04 APERTURE LIST*
%TA.AperFunction,ComponentPad*%
%ADD10O,1.700000X1.700000*%
%TD*%
%TA.AperFunction,ComponentPad*%
%ADD11R,1.700000X1.700000*%
%TD*%
%TA.AperFunction,ComponentPad*%
%ADD12O,1.700000X0.900000*%
%TD*%
%TA.AperFunction,ComponentPad*%
%ADD13O,2.400000X0.900000*%
%TD*%
%TA.AperFunction,ComponentPad*%
%ADD14C,0.700000*%
%TD*%
%TA.AperFunction,ViaPad*%
%ADD15C,0.800000*%
%TD*%
%TA.AperFunction,Conductor*%
%ADD16C,0.250000*%
%TD*%
%TA.AperFunction,Conductor*%
%ADD17C,0.200000*%
%TD*%
G04 APERTURE END LIST*
D10*
%TO.P,REF\u002A\u002A,4*%
%TO.N,GND*%
X150600000Y-68020000D03*
%TO.P,REF\u002A\u002A,3*%
X150600000Y-65480000D03*
%TO.P,REF\u002A\u002A,2*%
%TO.N,+3V3*%
X150600000Y-62940000D03*
D11*
%TO.P,REF\u002A\u002A,1*%
X150600000Y-60400000D03*
%TD*%
D10*
%TO.P,J4,14*%
%TO.N,Net-(J4-Pad14)*%
X150500000Y-23680000D03*
%TO.P,J4,13*%
%TO.N,Net-(J4-Pad13)*%
X150500000Y-26220000D03*
%TO.P,J4,12*%
%TO.N,Net-(J4-Pad12)*%
X150500000Y-28760000D03*
%TO.P,J4,11*%
%TO.N,Net-(J4-Pad11)*%
X150500000Y-31300000D03*
%TO.P,J4,10*%
%TO.N,Net-(J4-Pad10)*%
X150500000Y-33840000D03*
%TO.P,J4,9*%
%TO.N,Net-(J4-Pad9)*%
X150500000Y-36380000D03*
%TO.P,J4,8*%
%TO.N,Net-(J4-Pad8)*%
X150500000Y-38920000D03*
%TO.P,J4,7*%
%TO.N,Net-(J4-Pad7)*%
X150500000Y-41460000D03*
%TO.P,J4,6*%
%TO.N,Net-(J4-Pad6)*%
X150500000Y-44000000D03*
%TO.P,J4,5*%
%TO.N,Net-(J4-Pad5)*%
X150500000Y-46540000D03*
%TO.P,J4,4*%
%TO.N,Net-(J4-Pad4)*%
X150500000Y-49080000D03*
%TO.P,J4,3*%
%TO.N,Net-(J4-Pad3)*%
X150500000Y-51620000D03*
%TO.P,J4,2*%
%TO.N,/usb_d+*%
X150500000Y-54160000D03*
D11*
%TO.P,J4,1*%
%TO.N,/usb_d-*%
X150500000Y-56700000D03*
%TD*%
D10*
%TO.P,J1,19*%
%TO.N,Net-(J1-Pad19)*%
X154300000Y-68820000D03*
%TO.P,J1,18*%
%TO.N,Net-(J1-Pad18)*%
X154300000Y-66280000D03*
%TO.P,J1,17*%
%TO.N,Net-(J1-Pad17)*%
X154300000Y-63740000D03*
%TO.P,J1,16*%
%TO.N,Net-(J1-Pad16)*%
X154300000Y-61200000D03*
%TO.P,J1,15*%
%TO.N,Net-(J1-Pad15)*%
X154300000Y-58660000D03*
%TO.P,J1,14*%
%TO.N,Net-(J1-Pad14)*%
X154300000Y-56120000D03*
%TO.P,J1,13*%
%TO.N,Net-(J1-Pad13)*%
X154300000Y-53580000D03*
%TO.P,J1,12*%
%TO.N,Net-(J1-Pad12)*%
X154300000Y-51040000D03*
%TO.P,J1,11*%
%TO.N,Net-(J1-Pad11)*%
X154300000Y-48500000D03*
%TO.P,J1,10*%
%TO.N,Net-(J1-Pad10)*%
X154300000Y-45960000D03*
%TO.P,J1,9*%
%TO.N,Net-(J1-Pad9)*%
X154300000Y-43420000D03*
%TO.P,J1,8*%
%TO.N,Net-(J1-Pad8)*%
X154300000Y-40880000D03*
%TO.P,J1,7*%
%TO.N,Net-(J1-Pad7)*%
X154300000Y-38340000D03*
%TO.P,J1,6*%
%TO.N,Net-(J1-Pad6)*%
X154300000Y-35800000D03*
%TO.P,J1,5*%
%TO.N,Net-(J1-Pad5)*%
X154300000Y-33260000D03*
%TO.P,J1,4*%
%TO.N,Net-(J1-Pad4)*%
X154300000Y-30720000D03*
%TO.P,J1,3*%
%TO.N,Net-(J1-Pad3)*%
X154300000Y-28180000D03*
%TO.P,J1,2*%
%TO.N,Net-(J1-Pad2)*%
X154300000Y-25640000D03*
D11*
%TO.P,J1,1*%
%TO.N,Net-(J1-Pad1)*%
X154300000Y-23100000D03*
%TD*%
D10*
%TO.P,J5,19*%
%TO.N,Net-(J5-Pad19)*%
X119000000Y-68820000D03*
%TO.P,J5,18*%
%TO.N,Net-(J5-Pad18)*%
X119000000Y-66280000D03*
%TO.P,J5,17*%
%TO.N,Net-(J5-Pad17)*%
X119000000Y-63740000D03*
%TO.P,J5,16*%
%TO.N,Net-(J5-Pad16)*%
X119000000Y-61200000D03*
%TO.P,J5,15*%
%TO.N,Net-(J5-Pad15)*%
X119000000Y-58660000D03*
%TO.P,J5,14*%
%TO.N,Net-(J5-Pad14)*%
X119000000Y-56120000D03*
%TO.P,J5,13*%
%TO.N,Net-(J5-Pad13)*%
X119000000Y-53580000D03*
%TO.P,J5,12*%
%TO.N,Net-(J5-Pad12)*%
X119000000Y-51040000D03*
%TO.P,J5,11*%
%TO.N,Net-(J5-Pad11)*%
X119000000Y-48500000D03*
%TO.P,J5,10*%
%TO.N,Net-(J5-Pad10)*%
X119000000Y-45960000D03*
%TO.P,J5,9*%
%TO.N,Net-(J5-Pad9)*%
X119000000Y-43420000D03*
%TO.P,J5,8*%
%TO.N,Net-(J5-Pad8)*%
X119000000Y-40880000D03*
%TO.P,J5,7*%
%TO.N,Net-(J5-Pad7)*%
X119000000Y-38340000D03*
%TO.P,J5,6*%
%TO.N,Net-(J5-Pad6)*%
X119000000Y-35800000D03*
%TO.P,J5,5*%
%TO.N,Net-(J5-Pad5)*%
X119000000Y-33260000D03*
%TO.P,J5,4*%
%TO.N,Net-(J5-Pad4)*%
X119000000Y-30720000D03*
%TO.P,J5,3*%
%TO.N,Net-(J5-Pad3)*%
X119000000Y-28180000D03*
%TO.P,J5,2*%
%TO.N,Net-(J5-Pad2)*%
X119000000Y-25640000D03*
D11*
%TO.P,J5,1*%
%TO.N,Net-(J5-Pad1)*%
X119000000Y-23100000D03*
%TD*%
D12*
%TO.P,P1,S1*%
%TO.N,GND*%
X181460000Y-57700000D03*
X181460000Y-66350000D03*
D13*
X178080000Y-57700000D03*
X178080000Y-66350000D03*
D14*
%TO.P,P1,B6*%
%TO.N,N/C*%
X178450000Y-61600000D03*
%TO.P,P1,B1*%
%TO.N,GND*%
X178450000Y-59050000D03*
%TO.P,P1,B4*%
%TO.N,/vbus*%
X178450000Y-59900000D03*
%TO.P,P1,B5*%
%TO.N,Net-(P1-PadB5)*%
X178450000Y-60750000D03*
%TO.P,P1,B12*%
%TO.N,GND*%
X178450000Y-65000000D03*
%TO.P,P1,B8*%
%TO.N,N/C*%
X178450000Y-63300000D03*
%TO.P,P1,B7*%
X178450000Y-62450000D03*
%TO.P,P1,B9*%
%TO.N,/vbus*%
X178450000Y-64150000D03*
%TO.P,P1,A12*%
%TO.N,GND*%
X177100000Y-59050000D03*
%TO.P,P1,A9*%
%TO.N,/vbus*%
X177100000Y-59900000D03*
%TO.P,P1,A8*%
%TO.N,N/C*%
X177100000Y-60750000D03*
%TO.P,P1,A7*%
%TO.N,/d-*%
X177100000Y-61600000D03*
%TO.P,P1,A6*%
%TO.N,/d+*%
X177100000Y-62450000D03*
%TO.P,P1,A5*%
%TO.N,Net-(P1-PadA5)*%
X177100000Y-63300000D03*
%TO.P,P1,A4*%
%TO.N,/vbus*%
X177100000Y-64150000D03*
%TO.P,P1,A1*%
%TO.N,GND*%
X177100000Y-65000000D03*
%TD*%
D10*
%TO.P,J6,2*%
%TO.N,Net-(J6-Pad2)*%
X144160000Y-23300000D03*
D11*
%TO.P,J6,1*%
%TO.N,+3V3*%
X146700000Y-23300000D03*
%TD*%
D10*
%TO.P,J3,12*%
%TO.N,Net-(J3-Pad12)*%
X181500000Y-26960000D03*
%TO.P,J3,11*%
%TO.N,Net-(J3-Pad11)*%
X181500000Y-29500000D03*
%TO.P,J3,10*%
%TO.N,Net-(J3-Pad10)*%
X181500000Y-32040000D03*
%TO.P,J3,9*%
%TO.N,Net-(J3-Pad9)*%
X181500000Y-34580000D03*
%TO.P,J3,8*%
%TO.N,Net-(J3-Pad8)*%
X181500000Y-37120000D03*
%TO.P,J3,7*%
%TO.N,Net-(J3-Pad7)*%
X181500000Y-39660000D03*
%TO.P,J3,6*%
%TO.N,Net-(J3-Pad6)*%
X181500000Y-42200000D03*
%TO.P,J3,5*%
%TO.N,Net-(J3-Pad5)*%
X181500000Y-44740000D03*
%TO.P,J3,4*%
%TO.N,Net-(J3-Pad4)*%
X181500000Y-47280000D03*
%TO.P,J3,3*%
%TO.N,Net-(J3-Pad3)*%
X181500000Y-49820000D03*
%TO.P,J3,2*%
%TO.N,Net-(J3-Pad2)*%
X181500000Y-52360000D03*
D11*
%TO.P,J3,1*%
%TO.N,Net-(J3-Pad1)*%
X181500000Y-54900000D03*
%TD*%
D10*
%TO.P,J2,2*%
%TO.N,Net-(J2-Pad2)*%
X178960000Y-23300000D03*
D11*
%TO.P,J2,1*%
%TO.N,+3V3*%
X181500000Y-23300000D03*
%TD*%
D15*
%TO.N,GND*%
X175300000Y-47300000D03*
X138200000Y-22300000D03*
X143600000Y-47500000D03*
%TO.N,+3V3*%
X170617848Y-47122993D03*
X173200000Y-59900000D03*
X125400000Y-23800000D03*
%TO.N,/d-*%
X178228768Y-56496232D03*
%TO.N,/d+*%
X178971232Y-55753768D03*
%TO.N,/tx*%
X173800000Y-28600000D03*
X143500000Y-30100000D03*
%TO.N,/rx*%
X146900000Y-28900000D03*
X174600000Y-29900000D03*
%TO.N,/io2*%
X174300000Y-38900000D03*
X144900000Y-40400000D03*
%TO.N,/io1*%
X147400000Y-38700000D03*
X174500000Y-40000000D03*
%TD*%
D16*
%TO.N,GND*%
X178944974Y-59050000D02*
X178450000Y-59050000D01*
X179125001Y-59230027D02*
X178944974Y-59050000D01*
X179125001Y-64474001D02*
X179125001Y-59230027D01*
X178599002Y-65000000D02*
X179125001Y-64474001D01*
X177100000Y-65000000D02*
X178599002Y-65000000D01*
X179696233Y-51696233D02*
X175300000Y-47300000D01*
X179696233Y-56083767D02*
X179696233Y-51696233D01*
X178080000Y-57700000D02*
X179696233Y-56083767D01*
X175300000Y-44120998D02*
X175300000Y-47300000D01*
X181815001Y-38484999D02*
X180935999Y-38484999D01*
X180935999Y-38484999D02*
X175300000Y-44120998D01*
X182675001Y-37624999D02*
X181815001Y-38484999D01*
X182675001Y-22189999D02*
X182675001Y-37624999D01*
X182385003Y-21900001D02*
X182675001Y-22189999D01*
X138599999Y-21900001D02*
X182385003Y-21900001D01*
X138200000Y-22300000D02*
X138599999Y-21900001D01*
X150600000Y-68020000D02*
X150600000Y-65480000D01*
X176834999Y-65104999D02*
X178080000Y-66350000D01*
X150600000Y-65480000D02*
X150975001Y-65104999D01*
X124674999Y-39554999D02*
X150600000Y-65480000D01*
X126001999Y-22124999D02*
X124674999Y-23451999D01*
X147810001Y-22124999D02*
X126001999Y-22124999D01*
X147875001Y-24410001D02*
X147875001Y-22189999D01*
X147359991Y-24925011D02*
X147875001Y-24410001D01*
X147875001Y-22189999D02*
X147810001Y-22124999D01*
X125888601Y-24925011D02*
X147359991Y-24925011D01*
X124674999Y-23451999D02*
X124674999Y-39554999D01*
X125888601Y-29788601D02*
X125888601Y-24925011D01*
X143600000Y-47500000D02*
X125888601Y-29788601D01*
X175451257Y-63846231D02*
X176605026Y-65000000D01*
X150600000Y-65480000D02*
X153320000Y-65480000D01*
X176605026Y-65000000D02*
X177100000Y-65000000D01*
X158816424Y-63846231D02*
X175451257Y-63846231D01*
X153884999Y-64915001D02*
X157747654Y-64915001D01*
X153320000Y-65480000D02*
X153884999Y-64915001D01*
X157747654Y-64915001D02*
X158816424Y-63846231D01*
%TO.N,+3V3*%
X180324999Y-24475001D02*
X181500000Y-23300000D01*
X180324999Y-37415842D02*
X180324999Y-24475001D01*
X170617848Y-47122993D02*
X180324999Y-37415842D01*
X170617848Y-57317848D02*
X170617848Y-47122993D01*
X173200000Y-59900000D02*
X170617848Y-57317848D01*
X150600000Y-62940000D02*
X150600000Y-60400000D01*
X170535001Y-62564999D02*
X173200000Y-59900000D01*
X150975001Y-62564999D02*
X170535001Y-62564999D01*
X150600000Y-62940000D02*
X150975001Y-62564999D01*
X145524999Y-24475001D02*
X146700000Y-23300000D01*
X126075001Y-24475001D02*
X145524999Y-24475001D01*
X125400000Y-23800000D02*
X126075001Y-24475001D01*
X125400000Y-35200000D02*
X150600000Y-60400000D01*
X125400000Y-23800000D02*
X125400000Y-35200000D01*
D17*
%TO.N,/d-*%
X177936304Y-56203768D02*
X177214432Y-56203768D01*
X178228768Y-56496232D02*
X177936304Y-56203768D01*
X177214432Y-56203768D02*
X175525000Y-57893200D01*
X175525000Y-60238603D02*
X176886397Y-61600000D01*
X175525000Y-57893200D02*
X175525000Y-60238603D01*
X176886397Y-61600000D02*
X177100000Y-61600000D01*
%TO.N,/d+*%
X177028032Y-55753768D02*
X175075000Y-57706800D01*
X178971232Y-55753768D02*
X177028032Y-55753768D01*
X176900001Y-62250001D02*
X177100000Y-62450000D01*
X176787999Y-62250001D02*
X176900001Y-62250001D01*
X176449999Y-61799999D02*
X176449999Y-61912001D01*
X176449999Y-61912001D02*
X176787999Y-62250001D01*
X175075000Y-60425000D02*
X176449999Y-61799999D01*
X175075000Y-57706800D02*
X175075000Y-60425000D01*
D16*
%TO.N,/tx*%
X153180998Y-30100000D02*
X143500000Y-30100000D01*
X153735999Y-29544999D02*
X153180998Y-30100000D01*
X172855001Y-29544999D02*
X153735999Y-29544999D01*
X173800000Y-28600000D02*
X172855001Y-29544999D01*
%TO.N,/rx*%
X172604999Y-31895001D02*
X174600000Y-29900000D01*
X153735999Y-31895001D02*
X172604999Y-31895001D01*
X153155999Y-32475001D02*
X153735999Y-31895001D01*
X144801999Y-32475001D02*
X153155999Y-32475001D01*
X142774999Y-30448001D02*
X144801999Y-32475001D01*
X142774999Y-29751999D02*
X142774999Y-30448001D01*
X143626998Y-28900000D02*
X142774999Y-29751999D01*
X146900000Y-28900000D02*
X143626998Y-28900000D01*
%TO.N,/io2*%
X151064001Y-42635001D02*
X147135001Y-42635001D01*
X151644001Y-42055001D02*
X151064001Y-42635001D01*
X173518001Y-42055001D02*
X151644001Y-42055001D01*
X175225001Y-40348001D02*
X173518001Y-42055001D01*
X175225001Y-39259316D02*
X175225001Y-40348001D01*
X147135001Y-42635001D02*
X144900000Y-40400000D01*
X174865685Y-38900000D02*
X175225001Y-39259316D01*
X174300000Y-38900000D02*
X174865685Y-38900000D01*
%TO.N,/io1*%
X174204999Y-39704999D02*
X174500000Y-40000000D01*
X153340998Y-40100000D02*
X153735999Y-39704999D01*
X148800000Y-40100000D02*
X153340998Y-40100000D01*
X153735999Y-39704999D02*
X174204999Y-39704999D01*
X147400000Y-38700000D02*
X148800000Y-40100000D01*
%TD*%
M02*
