%TF.GenerationSoftware,KiCad,Pcbnew,(5.1.6)-1*%
%TF.CreationDate,2020-10-06T21:24:19+08:00*%
%TF.ProjectId,esp32,65737033-322e-46b6-9963-61645f706362,rev?*%
%TF.SameCoordinates,Original*%
%TF.FileFunction,Soldermask,Top*%
%TF.FilePolarity,Negative*%
%FSLAX46Y46*%
G04 Gerber Fmt 4.6, Leading zero omitted, Abs format (unit mm)*
G04 Created by KiCad (PCBNEW (5.1.6)-1) date 2020-10-06 21:24:19*
%MOMM*%
%LPD*%
G01*
G04 APERTURE LIST*
%ADD10O,1.700000X1.700000*%
%ADD11R,1.700000X1.700000*%
%ADD12R,1.500000X0.900000*%
%ADD13R,0.900000X1.500000*%
%ADD14R,4.100000X4.100000*%
%ADD15R,2.000000X1.500000*%
%ADD16R,2.000000X3.800000*%
%ADD17O,1.700000X0.900000*%
%ADD18O,2.400000X0.900000*%
%ADD19C,0.700000*%
G04 APERTURE END LIST*
D10*
%TO.C,REF\u002A\u002A*%
X150600000Y-68020000D03*
X150600000Y-65480000D03*
X150600000Y-62940000D03*
D11*
X150600000Y-60400000D03*
%TD*%
D10*
%TO.C,J4*%
X150500000Y-23680000D03*
X150500000Y-26220000D03*
X150500000Y-28760000D03*
X150500000Y-31300000D03*
X150500000Y-33840000D03*
X150500000Y-36380000D03*
X150500000Y-38920000D03*
X150500000Y-41460000D03*
X150500000Y-44000000D03*
X150500000Y-46540000D03*
X150500000Y-49080000D03*
X150500000Y-51620000D03*
X150500000Y-54160000D03*
D11*
X150500000Y-56700000D03*
%TD*%
D10*
%TO.C,J1*%
X154300000Y-68820000D03*
X154300000Y-66280000D03*
X154300000Y-63740000D03*
X154300000Y-61200000D03*
X154300000Y-58660000D03*
X154300000Y-56120000D03*
X154300000Y-53580000D03*
X154300000Y-51040000D03*
X154300000Y-48500000D03*
X154300000Y-45960000D03*
X154300000Y-43420000D03*
X154300000Y-40880000D03*
X154300000Y-38340000D03*
X154300000Y-35800000D03*
X154300000Y-33260000D03*
X154300000Y-30720000D03*
X154300000Y-28180000D03*
X154300000Y-25640000D03*
D11*
X154300000Y-23100000D03*
%TD*%
D10*
%TO.C,J5*%
X119000000Y-68820000D03*
X119000000Y-66280000D03*
X119000000Y-63740000D03*
X119000000Y-61200000D03*
X119000000Y-58660000D03*
X119000000Y-56120000D03*
X119000000Y-53580000D03*
X119000000Y-51040000D03*
X119000000Y-48500000D03*
X119000000Y-45960000D03*
X119000000Y-43420000D03*
X119000000Y-40880000D03*
X119000000Y-38340000D03*
X119000000Y-35800000D03*
X119000000Y-33260000D03*
X119000000Y-30720000D03*
X119000000Y-28180000D03*
X119000000Y-25640000D03*
D11*
X119000000Y-23100000D03*
%TD*%
D12*
%TO.C,U3*%
X123875000Y-22325000D03*
X123875000Y-43325000D03*
X123875000Y-44825000D03*
D13*
X125750000Y-45575000D03*
X127250000Y-45575000D03*
X128750000Y-45575000D03*
X130250000Y-45575000D03*
X131750000Y-45575000D03*
X133250000Y-45575000D03*
X134750000Y-45575000D03*
X136250000Y-45575000D03*
D12*
X123875000Y-23825000D03*
X123875000Y-25325000D03*
X123875000Y-26825000D03*
X123875000Y-28325000D03*
X123875000Y-29825000D03*
X123875000Y-31325000D03*
X123875000Y-32825000D03*
X123875000Y-34325000D03*
X123875000Y-35825000D03*
X123875000Y-37325000D03*
X123875000Y-38825000D03*
X123875000Y-40325000D03*
X123875000Y-41825000D03*
X141125000Y-28425000D03*
X141125000Y-29925000D03*
X141125000Y-31425000D03*
X141125000Y-32925000D03*
X141125000Y-34425000D03*
X141125000Y-35925000D03*
X141125000Y-37425000D03*
X141125000Y-38925000D03*
X141125000Y-40425000D03*
X141125000Y-41925000D03*
X141125000Y-43425000D03*
X141125000Y-44925000D03*
D13*
X139250000Y-45575000D03*
X137750000Y-45575000D03*
D12*
X141125000Y-26925000D03*
X141125000Y-25325000D03*
X141125000Y-23825000D03*
X141125000Y-22425000D03*
D14*
X131310000Y-30365000D03*
%TD*%
D15*
%TO.C,U2*%
X166850000Y-60300000D03*
X166850000Y-64900000D03*
X166850000Y-62600000D03*
D16*
X173150000Y-62600000D03*
%TD*%
D12*
%TO.C,U1*%
X158775000Y-22325000D03*
X158775000Y-43325000D03*
X158775000Y-44825000D03*
D13*
X160650000Y-45575000D03*
X162150000Y-45575000D03*
X163650000Y-45575000D03*
X165150000Y-45575000D03*
X166650000Y-45575000D03*
X168150000Y-45575000D03*
X169650000Y-45575000D03*
X171150000Y-45575000D03*
D12*
X158775000Y-23825000D03*
X158775000Y-25325000D03*
X158775000Y-26825000D03*
X158775000Y-28325000D03*
X158775000Y-29825000D03*
X158775000Y-31325000D03*
X158775000Y-32825000D03*
X158775000Y-34325000D03*
X158775000Y-35825000D03*
X158775000Y-37325000D03*
X158775000Y-38825000D03*
X158775000Y-40325000D03*
X158775000Y-41825000D03*
X176025000Y-28425000D03*
X176025000Y-29925000D03*
X176025000Y-31425000D03*
X176025000Y-32925000D03*
X176025000Y-34425000D03*
X176025000Y-35925000D03*
X176025000Y-37425000D03*
X176025000Y-38925000D03*
X176025000Y-40425000D03*
X176025000Y-41925000D03*
X176025000Y-43425000D03*
X176025000Y-44925000D03*
D13*
X174150000Y-45575000D03*
X172650000Y-45575000D03*
D12*
X176025000Y-26925000D03*
X176025000Y-25325000D03*
X176025000Y-23825000D03*
X176025000Y-22425000D03*
D14*
X166210000Y-30365000D03*
%TD*%
%TO.C,R3*%
G36*
G01*
X171440000Y-48460000D02*
X171440000Y-48140000D01*
G75*
G02*
X171600000Y-47980000I160000J0D01*
G01*
X171995000Y-47980000D01*
G75*
G02*
X172155000Y-48140000I0J-160000D01*
G01*
X172155000Y-48460000D01*
G75*
G02*
X171995000Y-48620000I-160000J0D01*
G01*
X171600000Y-48620000D01*
G75*
G02*
X171440000Y-48460000I0J160000D01*
G01*
G37*
G36*
G01*
X170245000Y-48460000D02*
X170245000Y-48140000D01*
G75*
G02*
X170405000Y-47980000I160000J0D01*
G01*
X170800000Y-47980000D01*
G75*
G02*
X170960000Y-48140000I0J-160000D01*
G01*
X170960000Y-48460000D01*
G75*
G02*
X170800000Y-48620000I-160000J0D01*
G01*
X170405000Y-48620000D01*
G75*
G02*
X170245000Y-48460000I0J160000D01*
G01*
G37*
%TD*%
%TO.C,R2*%
G36*
G01*
X169340000Y-48740000D02*
X169660000Y-48740000D01*
G75*
G02*
X169820000Y-48900000I0J-160000D01*
G01*
X169820000Y-49295000D01*
G75*
G02*
X169660000Y-49455000I-160000J0D01*
G01*
X169340000Y-49455000D01*
G75*
G02*
X169180000Y-49295000I0J160000D01*
G01*
X169180000Y-48900000D01*
G75*
G02*
X169340000Y-48740000I160000J0D01*
G01*
G37*
G36*
G01*
X169340000Y-47545000D02*
X169660000Y-47545000D01*
G75*
G02*
X169820000Y-47705000I0J-160000D01*
G01*
X169820000Y-48100000D01*
G75*
G02*
X169660000Y-48260000I-160000J0D01*
G01*
X169340000Y-48260000D01*
G75*
G02*
X169180000Y-48100000I0J160000D01*
G01*
X169180000Y-47705000D01*
G75*
G02*
X169340000Y-47545000I160000J0D01*
G01*
G37*
%TD*%
%TO.C,R1*%
G36*
G01*
X168140000Y-48740000D02*
X168460000Y-48740000D01*
G75*
G02*
X168620000Y-48900000I0J-160000D01*
G01*
X168620000Y-49295000D01*
G75*
G02*
X168460000Y-49455000I-160000J0D01*
G01*
X168140000Y-49455000D01*
G75*
G02*
X167980000Y-49295000I0J160000D01*
G01*
X167980000Y-48900000D01*
G75*
G02*
X168140000Y-48740000I160000J0D01*
G01*
G37*
G36*
G01*
X168140000Y-47545000D02*
X168460000Y-47545000D01*
G75*
G02*
X168620000Y-47705000I0J-160000D01*
G01*
X168620000Y-48100000D01*
G75*
G02*
X168460000Y-48260000I-160000J0D01*
G01*
X168140000Y-48260000D01*
G75*
G02*
X167980000Y-48100000I0J160000D01*
G01*
X167980000Y-47705000D01*
G75*
G02*
X168140000Y-47545000I160000J0D01*
G01*
G37*
%TD*%
D17*
%TO.C,P1*%
X181460000Y-57700000D03*
X181460000Y-66350000D03*
D18*
X178080000Y-57700000D03*
X178080000Y-66350000D03*
D19*
X178450000Y-61600000D03*
X178450000Y-59050000D03*
X178450000Y-59900000D03*
X178450000Y-60750000D03*
X178450000Y-65000000D03*
X178450000Y-63300000D03*
X178450000Y-62450000D03*
X178450000Y-64150000D03*
X177100000Y-59050000D03*
X177100000Y-59900000D03*
X177100000Y-60750000D03*
X177100000Y-61600000D03*
X177100000Y-62450000D03*
X177100000Y-63300000D03*
X177100000Y-64150000D03*
X177100000Y-65000000D03*
%TD*%
D10*
%TO.C,J6*%
X144160000Y-23300000D03*
D11*
X146700000Y-23300000D03*
%TD*%
D10*
%TO.C,J3*%
X181500000Y-26960000D03*
X181500000Y-29500000D03*
X181500000Y-32040000D03*
X181500000Y-34580000D03*
X181500000Y-37120000D03*
X181500000Y-39660000D03*
X181500000Y-42200000D03*
X181500000Y-44740000D03*
X181500000Y-47280000D03*
X181500000Y-49820000D03*
X181500000Y-52360000D03*
D11*
X181500000Y-54900000D03*
%TD*%
D10*
%TO.C,J2*%
X178960000Y-23300000D03*
D11*
X181500000Y-23300000D03*
%TD*%
%TO.C,C4*%
G36*
G01*
X163355000Y-61700000D02*
X163045000Y-61700000D01*
G75*
G02*
X162890000Y-61545000I0J155000D01*
G01*
X162890000Y-61120000D01*
G75*
G02*
X163045000Y-60965000I155000J0D01*
G01*
X163355000Y-60965000D01*
G75*
G02*
X163510000Y-61120000I0J-155000D01*
G01*
X163510000Y-61545000D01*
G75*
G02*
X163355000Y-61700000I-155000J0D01*
G01*
G37*
G36*
G01*
X163355000Y-62835000D02*
X163045000Y-62835000D01*
G75*
G02*
X162890000Y-62680000I0J155000D01*
G01*
X162890000Y-62255000D01*
G75*
G02*
X163045000Y-62100000I155000J0D01*
G01*
X163355000Y-62100000D01*
G75*
G02*
X163510000Y-62255000I0J-155000D01*
G01*
X163510000Y-62680000D01*
G75*
G02*
X163355000Y-62835000I-155000J0D01*
G01*
G37*
%TD*%
%TO.C,C3*%
G36*
G01*
X164355000Y-61700000D02*
X164045000Y-61700000D01*
G75*
G02*
X163890000Y-61545000I0J155000D01*
G01*
X163890000Y-61120000D01*
G75*
G02*
X164045000Y-60965000I155000J0D01*
G01*
X164355000Y-60965000D01*
G75*
G02*
X164510000Y-61120000I0J-155000D01*
G01*
X164510000Y-61545000D01*
G75*
G02*
X164355000Y-61700000I-155000J0D01*
G01*
G37*
G36*
G01*
X164355000Y-62835000D02*
X164045000Y-62835000D01*
G75*
G02*
X163890000Y-62680000I0J155000D01*
G01*
X163890000Y-62255000D01*
G75*
G02*
X164045000Y-62100000I155000J0D01*
G01*
X164355000Y-62100000D01*
G75*
G02*
X164510000Y-62255000I0J-155000D01*
G01*
X164510000Y-62680000D01*
G75*
G02*
X164355000Y-62835000I-155000J0D01*
G01*
G37*
%TD*%
%TO.C,C2*%
G36*
G01*
X164355000Y-64000000D02*
X164045000Y-64000000D01*
G75*
G02*
X163890000Y-63845000I0J155000D01*
G01*
X163890000Y-63420000D01*
G75*
G02*
X164045000Y-63265000I155000J0D01*
G01*
X164355000Y-63265000D01*
G75*
G02*
X164510000Y-63420000I0J-155000D01*
G01*
X164510000Y-63845000D01*
G75*
G02*
X164355000Y-64000000I-155000J0D01*
G01*
G37*
G36*
G01*
X164355000Y-65135000D02*
X164045000Y-65135000D01*
G75*
G02*
X163890000Y-64980000I0J155000D01*
G01*
X163890000Y-64555000D01*
G75*
G02*
X164045000Y-64400000I155000J0D01*
G01*
X164355000Y-64400000D01*
G75*
G02*
X164510000Y-64555000I0J-155000D01*
G01*
X164510000Y-64980000D01*
G75*
G02*
X164355000Y-65135000I-155000J0D01*
G01*
G37*
%TD*%
%TO.C,C1*%
G36*
G01*
X163355000Y-64000000D02*
X163045000Y-64000000D01*
G75*
G02*
X162890000Y-63845000I0J155000D01*
G01*
X162890000Y-63420000D01*
G75*
G02*
X163045000Y-63265000I155000J0D01*
G01*
X163355000Y-63265000D01*
G75*
G02*
X163510000Y-63420000I0J-155000D01*
G01*
X163510000Y-63845000D01*
G75*
G02*
X163355000Y-64000000I-155000J0D01*
G01*
G37*
G36*
G01*
X163355000Y-65135000D02*
X163045000Y-65135000D01*
G75*
G02*
X162890000Y-64980000I0J155000D01*
G01*
X162890000Y-64555000D01*
G75*
G02*
X163045000Y-64400000I155000J0D01*
G01*
X163355000Y-64400000D01*
G75*
G02*
X163510000Y-64555000I0J-155000D01*
G01*
X163510000Y-64980000D01*
G75*
G02*
X163355000Y-65135000I-155000J0D01*
G01*
G37*
%TD*%
M02*
