%TF.GenerationSoftware,KiCad,Pcbnew,(5.1.6)-1*%
%TF.CreationDate,2020-10-06T21:24:19+08:00*%
%TF.ProjectId,esp32,65737033-322e-46b6-9963-61645f706362,rev?*%
%TF.SameCoordinates,Original*%
%TF.FileFunction,Soldermask,Bot*%
%TF.FilePolarity,Negative*%
%FSLAX46Y46*%
G04 Gerber Fmt 4.6, Leading zero omitted, Abs format (unit mm)*
G04 Created by KiCad (PCBNEW (5.1.6)-1) date 2020-10-06 21:24:19*
%MOMM*%
%LPD*%
G01*
G04 APERTURE LIST*
%ADD10O,1.700000X1.700000*%
%ADD11R,1.700000X1.700000*%
%ADD12O,1.700000X0.900000*%
%ADD13O,2.400000X0.900000*%
%ADD14C,0.700000*%
G04 APERTURE END LIST*
D10*
%TO.C,REF\u002A\u002A*%
X150600000Y-68020000D03*
X150600000Y-65480000D03*
X150600000Y-62940000D03*
D11*
X150600000Y-60400000D03*
%TD*%
D10*
%TO.C,J4*%
X150500000Y-23680000D03*
X150500000Y-26220000D03*
X150500000Y-28760000D03*
X150500000Y-31300000D03*
X150500000Y-33840000D03*
X150500000Y-36380000D03*
X150500000Y-38920000D03*
X150500000Y-41460000D03*
X150500000Y-44000000D03*
X150500000Y-46540000D03*
X150500000Y-49080000D03*
X150500000Y-51620000D03*
X150500000Y-54160000D03*
D11*
X150500000Y-56700000D03*
%TD*%
D10*
%TO.C,J1*%
X154300000Y-68820000D03*
X154300000Y-66280000D03*
X154300000Y-63740000D03*
X154300000Y-61200000D03*
X154300000Y-58660000D03*
X154300000Y-56120000D03*
X154300000Y-53580000D03*
X154300000Y-51040000D03*
X154300000Y-48500000D03*
X154300000Y-45960000D03*
X154300000Y-43420000D03*
X154300000Y-40880000D03*
X154300000Y-38340000D03*
X154300000Y-35800000D03*
X154300000Y-33260000D03*
X154300000Y-30720000D03*
X154300000Y-28180000D03*
X154300000Y-25640000D03*
D11*
X154300000Y-23100000D03*
%TD*%
D10*
%TO.C,J5*%
X119000000Y-68820000D03*
X119000000Y-66280000D03*
X119000000Y-63740000D03*
X119000000Y-61200000D03*
X119000000Y-58660000D03*
X119000000Y-56120000D03*
X119000000Y-53580000D03*
X119000000Y-51040000D03*
X119000000Y-48500000D03*
X119000000Y-45960000D03*
X119000000Y-43420000D03*
X119000000Y-40880000D03*
X119000000Y-38340000D03*
X119000000Y-35800000D03*
X119000000Y-33260000D03*
X119000000Y-30720000D03*
X119000000Y-28180000D03*
X119000000Y-25640000D03*
D11*
X119000000Y-23100000D03*
%TD*%
D12*
%TO.C,P1*%
X181460000Y-57700000D03*
X181460000Y-66350000D03*
D13*
X178080000Y-57700000D03*
X178080000Y-66350000D03*
D14*
X178450000Y-61600000D03*
X178450000Y-59050000D03*
X178450000Y-59900000D03*
X178450000Y-60750000D03*
X178450000Y-65000000D03*
X178450000Y-63300000D03*
X178450000Y-62450000D03*
X178450000Y-64150000D03*
X177100000Y-59050000D03*
X177100000Y-59900000D03*
X177100000Y-60750000D03*
X177100000Y-61600000D03*
X177100000Y-62450000D03*
X177100000Y-63300000D03*
X177100000Y-64150000D03*
X177100000Y-65000000D03*
%TD*%
D10*
%TO.C,J6*%
X144160000Y-23300000D03*
D11*
X146700000Y-23300000D03*
%TD*%
D10*
%TO.C,J3*%
X181500000Y-26960000D03*
X181500000Y-29500000D03*
X181500000Y-32040000D03*
X181500000Y-34580000D03*
X181500000Y-37120000D03*
X181500000Y-39660000D03*
X181500000Y-42200000D03*
X181500000Y-44740000D03*
X181500000Y-47280000D03*
X181500000Y-49820000D03*
X181500000Y-52360000D03*
D11*
X181500000Y-54900000D03*
%TD*%
D10*
%TO.C,J2*%
X178960000Y-23300000D03*
D11*
X181500000Y-23300000D03*
%TD*%
M02*
