M48
; DRILL file {KiCad (5.1.6)-1} date 10/06/20 21:24:25
; FORMAT={-:-/ absolute / inch / decimal}
; #@! TF.CreationDate,2020-10-06T21:24:25+08:00
; #@! TF.GenerationSoftware,Kicad,Pcbnew,(5.1.6)-1
; #@! TF.FileFunction,Plated,1,2,PTH
FMAT,2
INCH
T1C0.0157
T2C0.0236
T3C0.0394
%
G90
G05
T1
X4.937Y-0.937
X5.4409Y-0.878
X5.6496Y-1.185
X5.6535Y-1.8701
X5.7047Y-1.5906
X5.7835Y-1.1378
X5.8031Y-1.5236
X6.7172Y-1.8552
X6.8189Y-2.3583
X6.8425Y-1.126
X6.8622Y-1.5315
X6.8701Y-1.5748
X6.874Y-1.1772
X6.9016Y-1.8622
X7.0169Y-2.2243
X7.0461Y-2.195
X6.9724Y-2.3248
X6.9724Y-2.3583
X6.9724Y-2.3917
X6.9724Y-2.4252
X6.9724Y-2.4587
X6.9724Y-2.4921
X6.9724Y-2.5256
X6.9724Y-2.5591
X7.0256Y-2.3248
X7.0256Y-2.3583
X7.0256Y-2.3917
X7.0256Y-2.4252
X7.0256Y-2.4587
X7.0256Y-2.4921
X7.0256Y-2.5256
X7.0256Y-2.5591
T3
X5.9252Y-0.9323
X5.9252Y-1.0323
X5.9252Y-1.1323
X5.9252Y-1.2323
X5.9252Y-1.3323
X5.9252Y-1.4323
X5.9252Y-1.5323
X5.9252Y-1.6323
X5.9252Y-1.7323
X5.9252Y-1.8323
X5.9252Y-1.9323
X5.9252Y-2.0323
X5.9252Y-2.1323
X5.9252Y-2.2323
X7.1457Y-1.0614
X7.1457Y-1.1614
X7.1457Y-1.2614
X7.1457Y-1.3614
X7.1457Y-1.4614
X7.1457Y-1.5614
X7.1457Y-1.6614
X7.1457Y-1.7614
X7.1457Y-1.8614
X7.1457Y-1.9614
X7.1457Y-2.0614
X7.1457Y-2.1614
X6.0748Y-0.9094
X6.0748Y-1.0094
X6.0748Y-1.1094
X6.0748Y-1.2094
X6.0748Y-1.3094
X6.0748Y-1.4094
X6.0748Y-1.5094
X6.0748Y-1.6094
X6.0748Y-1.7094
X6.0748Y-1.8094
X6.0748Y-1.9094
X6.0748Y-2.0094
X6.0748Y-2.1094
X6.0748Y-2.2094
X6.0748Y-2.3094
X6.0748Y-2.4094
X6.0748Y-2.5094
X6.0748Y-2.6094
X6.0748Y-2.7094
X4.685Y-0.9094
X4.685Y-1.0094
X4.685Y-1.1094
X4.685Y-1.2094
X4.685Y-1.3094
X4.685Y-1.4094
X4.685Y-1.5094
X4.685Y-1.6094
X4.685Y-1.7094
X4.685Y-1.8094
X4.685Y-1.9094
X4.685Y-2.0094
X4.685Y-2.1094
X4.685Y-2.2094
X4.685Y-2.3094
X4.685Y-2.4094
X4.685Y-2.5094
X4.685Y-2.6094
X4.685Y-2.7094
X5.9291Y-2.378
X5.9291Y-2.478
X5.9291Y-2.578
X5.9291Y-2.678
X7.0457Y-0.9173
X7.1457Y-0.9173
X5.6756Y-0.9173
X5.7756Y-0.9173
T2
G00X6.9815Y-2.2717
M15
G01X7.0406Y-2.2717
M16
G05
G00X6.9815Y-2.6122
M15
G01X7.0406Y-2.6122
M16
G05
G00X7.1283Y-2.2717
M15
G01X7.1598Y-2.2717
M16
G05
G00X7.1283Y-2.6122
M15
G01X7.1598Y-2.6122
M16
G05
T0
M30
